<svg width="14" height="14" viewBox="0 0 14 14" fill="none" xmlns="http://www.w3.org/2000/svg">
<path d="M7.00016 7C6.3585 7 5.8335 6.475 5.8335 5.83333C5.8335 5.19167 6.3585 4.66667 7.00016 4.66667C7.64183 4.66667 8.16683 5.19167 8.16683 5.83333C8.16683 6.475 7.64183 7 7.00016 7ZM10.5002 5.95C10.5002 3.8325 8.95433 2.33333 7.00016 2.33333C5.046 2.33333 3.50016 3.8325 3.50016 5.95C3.50016 7.315 4.63766 9.12334 7.00016 11.2817C9.36266 9.12334 10.5002 7.315 10.5002 5.95ZM7.00016 1.16667C9.45016 1.16667 11.6668 3.045 11.6668 5.95C11.6668 7.88667 10.1093 10.1792 7.00016 12.8333C3.891 10.1792 2.3335 7.88667 2.3335 5.95C2.3335 3.045 4.55016 1.16667 7.00016 1.16667Z" fill="#3383F9"/>
<g clip-path="url(#clip0)">
<path d="M13.1114 11.8572C13.1192 11.795 13.1251 11.7328 13.1251 11.6667C13.1251 11.6006 13.1192 11.5383 13.1114 11.4761L13.5217 11.1553C13.5587 11.1261 13.5684 11.0736 13.545 11.0308L13.1562 10.3581C13.1387 10.3269 13.1056 10.3094 13.0706 10.3094C13.0589 10.3094 13.0473 10.3114 13.0375 10.3153L12.5534 10.5097C12.4523 10.4319 12.3434 10.3678 12.2248 10.3192L12.1509 9.80389C12.1451 9.75722 12.1042 9.72222 12.0556 9.72222H11.2778C11.2292 9.72222 11.1884 9.75722 11.1826 9.80389L11.1087 10.3192C10.9901 10.3678 10.8812 10.4339 10.7801 10.5097L10.2959 10.3153C10.2842 10.3114 10.2726 10.3094 10.2609 10.3094C10.2278 10.3094 10.1948 10.3269 10.1773 10.3581L9.78838 11.0308C9.76311 11.0736 9.77477 11.1261 9.81172 11.1553L10.222 11.4761C10.2142 11.5383 10.2084 11.6025 10.2084 11.6667C10.2084 11.7308 10.2142 11.795 10.222 11.8572L9.81172 12.1781C9.77477 12.2072 9.76505 12.2597 9.78838 12.3025L10.1773 12.9753C10.1948 13.0064 10.2278 13.0239 10.2628 13.0239C10.2745 13.0239 10.2862 13.0219 10.2959 13.0181L10.7801 12.8236C10.8812 12.9014 10.9901 12.9656 11.1087 13.0142L11.1826 13.5294C11.1884 13.5761 11.2292 13.6111 11.2778 13.6111H12.0556C12.1042 13.6111 12.1451 13.5761 12.1509 13.5294L12.2248 13.0142C12.3434 12.9656 12.4523 12.8994 12.5534 12.8236L13.0375 13.0181C13.0492 13.0219 13.0609 13.0239 13.0726 13.0239C13.1056 13.0239 13.1387 13.0064 13.1562 12.9753L13.545 12.3025C13.5684 12.2597 13.5587 12.2072 13.5217 12.1781L13.1114 11.8572ZM12.7264 11.5247C12.7342 11.585 12.7362 11.6258 12.7362 11.6667C12.7362 11.7075 12.7323 11.7503 12.7264 11.8086L12.6992 12.0283L12.8723 12.1644L13.0823 12.3278L12.9462 12.5631L12.6992 12.4639L12.497 12.3822L12.322 12.5144C12.2384 12.5767 12.1587 12.6233 12.0789 12.6564L11.8728 12.74L11.8417 12.9597L11.8028 13.2222H11.5306L11.4937 12.9597L11.4626 12.74L11.2564 12.6564C11.1728 12.6214 11.095 12.5767 11.0173 12.5183L10.8403 12.3822L10.6342 12.4658L10.3873 12.565L10.2512 12.3297L10.4612 12.1664L10.6342 12.0303L10.607 11.8106C10.6012 11.7503 10.5973 11.7056 10.5973 11.6667C10.5973 11.6278 10.6012 11.5831 10.607 11.5247L10.6342 11.305L10.4612 11.1689L10.2512 11.0056L10.3873 10.7703L10.6342 10.8694L10.8364 10.9511L11.0114 10.8189C11.0951 10.7567 11.1748 10.71 11.2545 10.6769L11.4606 10.5933L11.4917 10.3736L11.5306 10.1111H11.8009L11.8378 10.3736L11.8689 10.5933L12.0751 10.6769C12.1587 10.7119 12.2364 10.7567 12.3142 10.815L12.4912 10.9511L12.6973 10.8675L12.9442 10.7683L13.0803 11.0036L12.8723 11.1689L12.6992 11.305L12.7264 11.5247ZM11.6667 10.8889C11.237 10.8889 10.8889 11.2369 10.8889 11.6667C10.8889 12.0964 11.237 12.4444 11.6667 12.4444C12.0964 12.4444 12.4445 12.0964 12.4445 11.6667C12.4445 11.2369 12.0964 10.8889 11.6667 10.8889ZM11.6667 12.0556C11.4528 12.0556 11.2778 11.8806 11.2778 11.6667C11.2778 11.4528 11.4528 11.2778 11.6667 11.2778C11.8806 11.2778 12.0556 11.4528 12.0556 11.6667C12.0556 11.8806 11.8806 12.0556 11.6667 12.0556Z" fill="#3383F9"/>
</g>
<defs>
<clipPath id="clip0">
<rect width="4.66667" height="4.66667" fill="white" transform="translate(9.3335 9.33333)"/>
</clipPath>
</defs>
</svg>
