<svg width="20" height="20" viewBox="0 0 20 20" fill="none" xmlns="http://www.w3.org/2000/svg">
<g opacity="0.5">
<mask id="mask0_1386_16569" style="mask-type:alpha" maskUnits="userSpaceOnUse" x="0" y="0" width="20" height="20">
<rect width="20" height="20" fill="white"/>
</mask>
<g mask="url(#mask0_1386_16569)">
<path fill-rule="evenodd" clip-rule="evenodd" d="M18 8.45825V13.5833C18 15.651 16.3177 17.3333 14.25 17.3333H5.75C3.68225 17.3333 2 15.651 2 13.5833V8.45825C2 6.3905 3.68225 4.70825 5.75 4.70825H14.25C16.3177 4.70825 18 6.3905 18 8.45825ZM6.78125 11.3645C6.78125 11.796 6.43147 12.1458 6 12.1458C4.96369 12.1046 4.96397 10.6243 6 10.5833C6.43147 10.5833 6.78125 10.933 6.78125 11.3645ZM8.6875 10.5833C8.25603 10.5833 7.90625 10.933 7.90625 11.3645C7.94741 12.4008 9.42775 12.4005 9.46875 11.3645C9.46875 10.933 9.11897 10.5833 8.6875 10.5833ZM10.5938 11.3645C10.5938 10.933 10.9435 10.5833 11.375 10.5833C11.8065 10.5833 12.1562 10.933 12.1562 11.3645C12.1152 12.4005 10.6349 12.4008 10.5938 11.3645ZM6 13.2708C5.56853 13.2708 5.21875 13.6205 5.21875 14.052C5.25991 15.0883 6.74025 15.088 6.78125 14.052C6.78125 13.6205 6.43147 13.2708 6 13.2708ZM7.90625 14.052C7.90625 13.6205 8.25603 13.2708 8.6875 13.2708C9.11897 13.2708 9.46875 13.6205 9.46875 14.052C9.42775 15.088 7.94741 15.0883 7.90625 14.052ZM11.375 13.2708C10.9435 13.2708 10.5938 13.6205 10.5938 14.052C10.6349 15.0883 12.1152 15.088 12.1562 14.052C12.1562 13.6205 11.8065 13.2708 11.375 13.2708ZM13.2812 14.052C13.2812 13.6205 13.631 13.2708 14.0625 13.2708C14.494 13.2708 14.8438 13.6205 14.8438 14.052C14.8027 15.088 13.3224 15.0883 13.2812 14.052ZM14.25 5.95825C15.6285 5.95825 16.75 7.07975 16.75 8.45825V13.5833C16.75 14.9618 15.6285 16.0833 14.25 16.0833H5.75C4.3715 16.0833 3.25 14.9618 3.25 13.5833V8.45825C3.25 7.07975 4.3715 5.95825 5.75 5.95825H14.25ZM14.875 8.14575H5.125C4.29575 8.17875 4.29638 9.36303 5.125 9.39575H14.875C15.7043 9.36275 15.7036 8.17847 14.875 8.14575ZM13.2812 11.3645C13.2812 10.933 13.631 10.5833 14.0625 10.5833C14.494 10.5833 14.8438 10.933 14.8438 11.3645C14.8027 12.4005 13.3224 12.4008 13.2812 11.3645Z" fill="#0A2851"/>
<rect x="6.66699" y="3.33325" width="1.33333" height="2" rx="0.666667" fill="#0A2851"/>
<rect x="12" y="3.33325" width="1.33333" height="2" rx="0.666667" fill="#0A2851"/>
</g>
</g>
</svg>
