<svg width="96" height="96" viewBox="0 0 96 96" fill="none" xmlns="http://www.w3.org/2000/svg">
<circle cx="48" cy="48" r="48" fill="#ECEFF4"/>
<mask id="mask0_1139_21164" style="mask-type:alpha" maskUnits="userSpaceOnUse" x="0" y="0" width="96" height="96">
<circle cx="48" cy="48" r="48" fill="white"/>
</mask>
<g mask="url(#mask0_1139_21164)">
<path d="M17.8102 82.3166C17.8102 72.2405 25.9785 64.0723 36.0545 64.0723H62.1179C72.1939 64.0723 80.3622 72.2405 80.3622 82.3166V95.9999H17.8102V82.3166Z" fill="#D7DDE7"/>
<path d="M25.9549 86.9455V93.6108" stroke="#A2B0C7" stroke-width="0.868778" stroke-linecap="round"/>
<path d="M70.1123 86.9455V93.6108" stroke="#A2B0C7" stroke-width="0.868778" stroke-linecap="round"/>
<path fill-rule="evenodd" clip-rule="evenodd" d="M62.3357 38.5453C62.3357 38.5453 63.9253 31.4493 63.6328 25.6071C63.3403 19.7649 56.3777 15.7952 54.1432 14.2453C51.9088 12.6953 50.3481 13.0711 50.3481 14.2453C50.3481 15.4195 52.1316 17.2035 52.1316 17.2035C52.1316 17.2035 47.3774 14.3274 44.0995 13.2315C40.8216 12.1356 39.8717 13.812 40.99 15.2304C42.1084 16.6488 44.4671 18.3897 44.4671 18.3897C44.4671 18.3897 40.7379 18.1873 38.0953 18.3897C35.4527 18.592 35.7767 20.0072 36.6768 21.0436C37.5768 22.08 38.8572 22.6159 38.8572 22.6159C38.8572 22.6159 36.7483 24.2411 35.7169 27.287C34.6855 30.333 35.4698 35.1037 35.4698 35.1037L62.3357 38.5453Z" fill="#D7DDE7"/>
<circle cx="62.3343" cy="37.1405" r="3.47511" fill="#FEFFFF"/>
<path fill-rule="evenodd" clip-rule="evenodd" d="M36.2723 32.6876C36.2723 25.5504 42.1668 19.7645 49.304 19.7645C56.4412 19.7645 62.3357 25.5504 62.3357 32.6876V45.0677C62.3357 48.1171 61.2597 50.9197 59.4705 53.1299L59.5114 53.1269C59.5114 53.1269 58.4796 61.7071 58.0277 64.0724C57.5758 66.4377 54.7336 68.9184 49.9494 68.9184C45.1652 68.9184 41.6894 65.8936 41.4898 64.0724C41.2901 62.2513 40.3874 54.5159 40.3874 54.5159L40.4328 54.5126C37.88 52.154 36.2723 48.7951 36.2723 45.0677V40.6152C36.2723 40.6152 36.2723 40.6152 36.2722 40.6152C34.353 40.6152 32.7971 39.0594 32.7971 37.1401C32.7971 35.2209 34.353 33.665 36.2722 33.665C36.2723 33.665 36.2723 33.665 36.2723 33.665V32.6876Z" fill="#FEFFFF"/>
<path fill-rule="evenodd" clip-rule="evenodd" d="M36.271 33.6651V38.2613C36.271 38.2613 38.8059 36.1946 39.1924 32.5215C39.5788 28.8483 39.0178 25.1922 39.0178 25.1922C39.0178 25.1922 39.5565 24.942 39.9866 24.4825C40.4167 24.023 40.5992 23.2701 40.5992 23.2701C40.5992 23.2701 43.9554 24.723 47.5651 24.9576C51.1747 25.1922 54.05 23.7435 54.05 23.7435C54.05 23.7435 53.5805 24.8004 54.1743 25.4103C54.768 26.0201 58.634 24.9576 58.634 24.9576C58.634 24.9576 58.5717 28.8643 59.2004 31.8886C59.8291 34.9129 62.3343 38.545 62.3343 38.545V23.2701L51.9999 18.3999L41.5999 20.7999L35.9999 27.9999L36.271 33.6651Z" fill="#D7DDE7"/>
<path d="M52.2183 36.1239C52.2183 36.1239 52.6485 37.4687 53.4143 38.3731C54.18 39.2775 51.8151 39.8415 51.8151 39.8415" stroke="#A2B0C7" stroke-width="0.868778" stroke-linecap="round"/>
<path d="M44.3397 45.8282C45.1813 47.2093 46.3477 48.0695 47.1736 48.5644" stroke="#A2B0C7" stroke-width="0.868778" stroke-linecap="round"/>
<path d="M46.4789 56.4971C46.4789 56.4971 51.0703 57.588 54.7171 56.4971C58.3639 55.4061 60.1338 52.8448 60.1338 52.8448" stroke="#EBEFF0" stroke-width="0.868778"/>
</g>
</svg>
