<svg width="341" height="127" viewBox="0 0 341 127" fill="none" xmlns="http://www.w3.org/2000/svg">
<rect x="109" width="119" height="119" rx="6" fill="#EFEFEF"/>
<path fill-rule="evenodd" clip-rule="evenodd" d="M194 88.7637L213.239 100.911L218.407 119H131.604L127.839 99.5556L155 88.7637H194Z" fill="#0A73F0"/>
<path fill-rule="evenodd" clip-rule="evenodd" d="M161 73H188V91.4728H161V73Z" fill="#FFCDB3"/>
<mask id="mask0_1455_35669" style="mask-type:alpha" maskUnits="userSpaceOnUse" x="161" y="73" width="27" height="19">
<path fill-rule="evenodd" clip-rule="evenodd" d="M161 73H188V91.4728H161V73Z" fill="white"/>
</mask>
<g mask="url(#mask0_1455_35669)">
<ellipse cx="174.5" cy="71" rx="15.5" ry="13" fill="#F1AE99"/>
</g>
<path fill-rule="evenodd" clip-rule="evenodd" d="M150.422 45.7637C145.995 43.7944 144 45.8828 144 49.1884C144 52.494 147.762 58.9811 150.006 60.9226C152.249 62.8641 153.918 61.9208 153.918 60.1518C153.918 58.3827 154.849 47.7329 150.422 45.7637Z" fill="#FAC1A5"/>
<path fill-rule="evenodd" clip-rule="evenodd" d="M197.578 44.7637C202.005 42.7944 204 44.8828 204 48.1884C204 51.494 200.238 57.9811 197.994 59.9226C195.751 61.8641 194.082 60.9208 194.082 59.1518C194.082 57.3827 193.151 46.7329 197.578 44.7637Z" fill="#FAC1A5"/>
<path d="M197.358 50C197.358 67.1208 187.116 81 174.483 81C161.849 81 151.608 67.1208 151.608 50C151.608 42.8405 150.492 33.2479 153.5 28C157.685 20.6984 167.132 19 174.483 19C182.164 19 191.351 23.1302 195.5 31C198.175 36.0745 197.358 43.2882 197.358 50Z" fill="#FFCDB4"/>
<path fill-rule="evenodd" clip-rule="evenodd" d="M151.156 49.8241C152.515 53.0249 154.689 54.1776 154.271 51.5378C153.854 48.8979 152.42 34.8588 155.033 29.3026C157.645 23.7464 163.484 21.9404 171.174 23.5859C178.863 25.2313 192.969 31.5838 194.485 33.5041C196 35.4244 196.214 44.4233 195.835 47.4264C195.456 50.4295 195.159 55.1416 196.76 50.6436C198.36 46.1456 200.302 37.9475 199.96 29.6815C199.619 21.4154 196.327 15.0846 181.906 10.8671C167.484 6.64972 158.395 10.2515 155.033 14.9857C151.671 19.7199 152.276 24.7466 152.276 24.7466C152.276 24.7466 148.391 26.3012 148.039 31.5281C147.687 36.7549 149.796 46.6234 151.156 49.8241Z" fill="#323637"/>
<path fill-rule="evenodd" clip-rule="evenodd" d="M155 29.0358C155 29.0358 167.851 37.0868 179.413 36.9991C190.976 36.9113 198 32.265 198 32.265L185.09 17.698L168.38 17L156.117 25.3762L155 29.0358Z" fill="#353535"/>
<path fill-rule="evenodd" clip-rule="evenodd" d="M145.812 119L135.229 105.536L141.275 95.9129H124.727V74.0508C124.727 74.0508 119.208 85.802 118.016 89.0676C116.824 92.3333 117.456 97.1298 119.029 99.4878C120.602 101.846 127.058 119 127.058 119H145.812Z" fill="#FFCCB6"/>
<path fill-rule="evenodd" clip-rule="evenodd" d="M174.483 91.5094L181.237 101.805L194 88.7636L188 78.0859L174.483 91.5094Z" fill="#FEFFFF"/>
<path fill-rule="evenodd" clip-rule="evenodd" d="M174.483 91.5096L167.212 101.806L154 89.1749L161 77.9756L174.483 91.5096Z" fill="#FEFFFF"/>
<rect x="124.5" y="76.5" width="34" height="19" fill="#FCFFFF" stroke="#DFDCDC"/>
<path fill-rule="evenodd" clip-rule="evenodd" d="M134.601 90.3691L137.102 91.9483L137.774 94.2999H126L126.57 91.9483L129.531 90.3691H134.601Z" fill="#ECA31C"/>
<path fill-rule="evenodd" clip-rule="evenodd" d="M130.311 88.3198H133.821V90.7213H130.311V88.3198Z" fill="#FFCDB3"/>
<mask id="mask1_1455_35669" style="mask-type:alpha" maskUnits="userSpaceOnUse" x="130" y="88" width="4" height="3">
<path fill-rule="evenodd" clip-rule="evenodd" d="M130.311 88.3198H133.821V90.7213H130.311V88.3198Z" fill="white"/>
</mask>
<g mask="url(#mask1_1455_35669)">
<ellipse cx="132.066" cy="88.0596" rx="2.015" ry="1.69" fill="#F1AE99"/>
</g>
<path fill-rule="evenodd" clip-rule="evenodd" d="M128.936 84.7795C128.36 84.5234 128.101 84.7949 128.101 85.2247C128.101 85.6544 128.59 86.4977 128.881 86.7501C129.173 87.0025 129.39 86.8799 129.39 86.6499C129.39 86.4199 129.511 85.0355 128.936 84.7795Z" fill="#FAC1A5"/>
<path fill-rule="evenodd" clip-rule="evenodd" d="M135.065 84.6491C135.641 84.3931 135.9 84.6646 135.9 85.0943C135.9 85.524 135.411 86.3673 135.12 86.6197C134.828 86.8721 134.611 86.7495 134.611 86.5195C134.611 86.2896 134.49 84.9051 135.065 84.6491Z" fill="#FAC1A5"/>
<ellipse cx="132.064" cy="85.3298" rx="2.97376" ry="4.03" fill="#FFCDB4"/>
<path fill-rule="evenodd" clip-rule="evenodd" d="M129.03 85.3071C129.207 85.7232 129.49 85.8731 129.435 85.5299C129.381 85.1867 129.195 83.3616 129.534 82.6393C129.874 81.917 130.633 81.6823 131.633 81.8962C132.632 82.1101 134.466 82.9359 134.663 83.1855C134.86 83.4352 134.888 84.605 134.839 84.9954C134.789 85.3858 134.751 85.9984 134.959 85.4137C135.167 84.8289 135.419 83.7632 135.375 82.6886C135.331 81.614 134.903 80.791 133.028 80.2427C131.153 79.6945 129.971 80.1627 129.534 80.7781C129.097 81.3936 129.176 82.0471 129.176 82.0471C129.176 82.0471 128.671 82.2492 128.625 82.9286C128.579 83.6081 128.854 84.891 129.03 85.3071Z" fill="#323637"/>
<path fill-rule="evenodd" clip-rule="evenodd" d="M129.53 82.6047C129.53 82.6047 131.201 83.6513 132.704 83.6399C134.207 83.6285 135.12 83.0245 135.12 83.0245L133.442 81.1308L131.27 81.04L129.675 82.1289L129.53 82.6047Z" fill="#353535"/>
<path fill-rule="evenodd" clip-rule="evenodd" d="M132.063 90.726L132.941 92.0645L134.601 90.369L133.821 88.981L132.063 90.726Z" fill="#EAF0EA"/>
<path fill-rule="evenodd" clip-rule="evenodd" d="M132.064 90.7262L131.119 92.0647L129.401 90.4227L130.311 88.9668L132.064 90.7262Z" fill="#EAF0EA"/>
<path fill-rule="evenodd" clip-rule="evenodd" d="M131.339 70.3872C131.339 70.3872 129.769 69.1543 127.322 69.1543C124.876 69.1543 124.016 71.5065 124.446 74.7746C124.876 78.0426 126.008 79.9473 127.322 79.4251C128.637 78.9028 129.405 75.9787 129.405 75.9787H131.339V70.3872Z" fill="#FCD7C4"/>
<mask id="mask2_1455_35669" style="mask-type:alpha" maskUnits="userSpaceOnUse" x="124" y="69" width="8" height="11">
<path fill-rule="evenodd" clip-rule="evenodd" d="M131.339 70.3872C131.339 70.3872 129.769 69.1543 127.322 69.1543C124.876 69.1543 124.016 71.5065 124.446 74.7746C124.876 78.0426 126.008 79.9473 127.322 79.4251C128.637 78.9028 129.405 75.9787 129.405 75.9787H131.339V70.3872Z" fill="white"/>
</mask>
<g mask="url(#mask2_1455_35669)">
<path fill-rule="evenodd" clip-rule="evenodd" d="M124.768 75.1107C126.23 74.0508 126.805 74.5429 127.594 74.8268C128.384 75.1107 128.229 77.2011 127.594 78.6019C126.96 80.0027 125.473 80.3674 125.12 79.1322C124.768 77.8969 123.305 76.1707 124.768 75.1107Z" fill="#FFE1D2"/>
<path fill-rule="evenodd" clip-rule="evenodd" d="M129.572 68.6676C129.572 68.6676 129.777 71.6723 129.31 73.4895C128.842 75.3066 129.837 77.173 129.837 77.173L132.819 77.7415C132.819 77.7415 134.479 70.7107 134.479 70.4448C134.479 70.1789 131.605 68.3999 131.605 68.3999L129.572 68.6676Z" fill="#E5BBA2"/>
</g>
<path fill-rule="evenodd" clip-rule="evenodd" d="M139.866 71.2517C139.866 71.2517 138.814 67.9845 137.899 66.9631C136.983 65.9416 134.562 65.8835 133.491 66.4233C132.42 66.9631 130.93 70.3389 130.481 72.3355C130.033 74.3321 129.802 76.7684 130.976 77.5266C132.149 78.2848 133.939 76.8228 134.465 76.3959C134.991 75.969 135.293 75.8744 135.293 75.8744H138.906L139.866 71.2517Z" fill="#FCD7C4"/>
<mask id="mask3_1455_35669" style="mask-type:alpha" maskUnits="userSpaceOnUse" x="130" y="66" width="10" height="12">
<path fill-rule="evenodd" clip-rule="evenodd" d="M139.866 71.2517C139.866 71.2517 138.814 67.9845 137.899 66.9631C136.983 65.9416 134.562 65.8835 133.491 66.4233C132.42 66.9631 130.93 70.3389 130.481 72.3355C130.033 74.3321 129.802 76.7684 130.976 77.5266C132.149 78.2848 133.939 76.8228 134.465 76.3959C134.991 75.969 135.293 75.8744 135.293 75.8744H138.906L139.866 71.2517Z" fill="white"/>
</mask>
<g mask="url(#mask3_1455_35669)">
<path fill-rule="evenodd" clip-rule="evenodd" d="M130.711 72.9816C132.461 72.2475 133.205 73.1439 133.505 74.3322C133.805 75.5204 133.057 77.3658 132.108 77.7412C131.16 78.1166 129.749 77.833 129.749 76.6673C129.749 75.5015 128.962 73.7157 130.711 72.9816Z" fill="#FFE1D2"/>
<path fill-rule="evenodd" clip-rule="evenodd" d="M137.917 66.665C137.917 66.665 138.012 69.1426 137.613 70.129C137.214 71.1155 134.991 76.0227 134.991 76.0227C134.991 76.0227 136.189 77.8967 136.692 77.8967C137.195 77.8967 141.011 78.3226 141.484 77.1726C141.957 76.0227 141.67 69.3325 141.484 69.1539C141.299 68.9753 137.917 66.665 137.917 66.665Z" fill="#F1C1A5"/>
</g>
<path fill-rule="evenodd" clip-rule="evenodd" d="M150.806 76.2038C150.806 76.2038 151.142 73.7006 149.383 72.2492C147.624 70.7979 145.385 71.2376 145.385 71.2376C145.385 71.2376 144.299 69.6879 142.082 69.1541C139.866 68.6202 138.02 71.0454 137.024 72.987C136.028 74.9286 136.568 76.769 137.964 77.2552C139.361 77.7413 140.84 77.1639 141.461 76.7618C142.082 76.3597 142.082 76.2038 142.082 76.2038H150.806Z" fill="#FCD7C4"/>
<mask id="mask4_1455_35669" style="mask-type:alpha" maskUnits="userSpaceOnUse" x="136" y="69" width="15" height="9">
<path fill-rule="evenodd" clip-rule="evenodd" d="M150.806 76.2038C150.806 76.2038 151.142 73.7006 149.383 72.2492C147.624 70.7979 145.385 71.2376 145.385 71.2376C145.385 71.2376 144.299 69.6879 142.082 69.1541C139.866 68.6202 138.02 71.0454 137.024 72.987C136.028 74.9286 136.568 76.769 137.964 77.2552C139.361 77.7413 140.84 77.1639 141.461 76.7618C142.082 76.3597 142.082 76.2038 142.082 76.2038H150.806Z" fill="white"/>
</mask>
<g mask="url(#mask4_1455_35669)">
<path fill-rule="evenodd" clip-rule="evenodd" d="M137.147 72.9186C138.237 72.5531 139.011 72.7357 139.953 73.286C140.895 73.8363 140.383 75.7652 139.953 76.3111C139.522 76.8571 139.342 77.9894 137.836 77.674C136.33 77.3585 136.057 73.2842 137.147 72.9186Z" fill="#FFE1D2"/>
<path fill-rule="evenodd" clip-rule="evenodd" d="M142.946 73.8132C142.946 73.8132 142.153 75.0472 142.153 75.8033C142.153 76.5594 142.153 77.1727 142.153 77.1727L152.507 77.7412V71.9136L147.722 70.5664C147.722 70.5664 148.803 72.8611 148.803 74.3322C148.803 75.8033 147.722 76.3356 147.722 76.3356H144.023C144.023 76.3356 143.58 76.2351 143.279 75.545C142.978 74.8549 142.946 73.8132 142.946 73.8132Z" fill="#E6BBAA"/>
<path fill-rule="evenodd" clip-rule="evenodd" d="M145.386 71.2377L144.247 71.9138C144.247 71.9138 144.247 70.1149 143.687 69.4065C143.128 68.6981 146.215 69.1542 146.215 69.1542L145.386 71.2377Z" fill="#E6BBAA"/>
</g>
<path fill-rule="evenodd" clip-rule="evenodd" d="M134.991 105.417C134.991 105.417 138.99 104.063 142.153 102.114C145.316 100.166 149.015 97.6554 148.582 95.9366C148.148 94.2178 146.037 93.1089 143.773 94.0224C141.508 94.9358 139.512 96.8709 139.512 96.8709L131.604 97.7316L133.202 104.199L134.991 105.417Z" fill="#FFCCB6"/>
<path fill-rule="evenodd" clip-rule="evenodd" d="M134.991 105.417C134.991 105.417 132.432 104.565 130.65 103.571C128.867 102.577 127.073 100.912 127.073 100.912C127.073 100.912 128.814 103.756 131.032 104.786C133.25 105.817 134.991 105.417 134.991 105.417Z" fill="#F8C0A9"/>
<rect x="141.25" y="82.25" width="13.5" height="0.5" rx="0.25" fill="#D8D8D8" stroke="#979797" stroke-width="0.5"/>
<rect x="141.25" y="85.25" width="13.5" height="0.5" rx="0.25" fill="#D8D8D8" stroke="#979797" stroke-width="0.5"/>
<rect x="141.25" y="88.25" width="13.5" height="0.5" rx="0.25" fill="#D8D8D8" stroke="#979797" stroke-width="0.5"/>
<rect x="141.25" y="91.25" width="8.5" height="0.5" rx="0.25" fill="#D8D8D8" stroke="#979797" stroke-width="0.5"/>
<rect y="15" width="90" height="90" rx="4.53782" fill="#EFEFEF"/>
<path fill-rule="evenodd" clip-rule="evenodd" d="M64.2857 82.1323L78.8361 91.3197L82.745 105H17.0955L14.248 90.2943L34.7899 82.1323H64.2857Z" fill="#0A73F0"/>
<path fill-rule="evenodd" clip-rule="evenodd" d="M39.3281 70.21H59.7483V84.181H39.3281V70.21Z" fill="#FFCDB3"/>
<mask id="mask5_1455_35669" style="mask-type:alpha" maskUnits="userSpaceOnUse" x="39" y="70" width="21" height="15">
<path fill-rule="evenodd" clip-rule="evenodd" d="M39.3281 70.21H59.7483V84.181H39.3281V70.21Z" fill="white"/>
</mask>
<g mask="url(#mask5_1455_35669)">
<ellipse cx="49.5381" cy="68.6972" rx="11.7227" ry="9.83193" fill="#F1AE99"/>
</g>
<path fill-rule="evenodd" clip-rule="evenodd" d="M31.328 49.6112C27.9799 48.1219 26.4707 49.7013 26.4707 52.2014C26.4707 54.7015 29.3163 59.6076 31.0128 61.076C32.7094 62.5444 33.972 61.8309 33.972 60.493C33.972 59.1551 34.6762 51.1006 31.328 49.6112Z" fill="#FAC1A5"/>
<path fill-rule="evenodd" clip-rule="evenodd" d="M66.9913 48.8549C70.3395 47.3655 71.8486 48.945 71.8486 51.445C71.8486 53.9451 69.0031 58.8513 67.3065 60.3197C65.6099 61.788 64.3473 61.0746 64.3473 59.7367C64.3473 58.3987 63.6431 50.3443 66.9913 48.8549Z" fill="#FAC1A5"/>
<path d="M66.8255 52.815C66.8255 65.7635 59.0798 76.2604 49.525 76.2604C39.9703 76.2604 32.2246 65.7635 32.2246 52.815C32.2246 47.4251 31.7438 40.4599 33.9998 36.4999C37.1636 30.9465 43.9475 29.3696 49.525 29.3696C55.2654 29.3696 61.8528 32.667 64.9998 38.4999C67.091 42.3758 66.8255 47.6457 66.8255 52.815Z" fill="#FFCDB4"/>
<path fill-rule="evenodd" clip-rule="evenodd" d="M31.8827 52.682C32.9111 55.1028 34.5552 55.9746 34.2392 53.9781C33.9232 51.9816 32.8392 41.3637 34.8151 37.1616C36.791 32.9594 41.2066 31.5935 47.0224 32.838C52.8382 34.0824 63.5066 38.8868 64.6527 40.3391C65.7989 41.7915 65.9603 48.5974 65.6739 50.8686C65.3875 53.1399 65.1625 56.7036 66.3731 53.3018C67.5837 49.9 69.0523 43.6997 68.7939 37.4481C68.5356 31.1965 66.0458 26.4084 55.139 23.2188C44.2322 20.0291 37.3576 22.7532 34.8151 26.3337C32.2726 29.9142 32.7301 33.7159 32.7301 33.7159C32.7301 33.7159 29.7917 34.8916 29.5256 38.8447C29.2595 42.7977 30.8544 50.2613 31.8827 52.682Z" fill="#323637"/>
<path fill-rule="evenodd" clip-rule="evenodd" d="M34.79 36.9596C34.79 36.9596 44.5093 43.0486 53.2539 42.9823C61.9985 42.9159 67.311 39.4019 67.311 39.4019L57.5469 28.3848L44.9097 27.8569L35.6346 34.1919L34.79 36.9596Z" fill="#353535"/>
<path fill-rule="evenodd" clip-rule="evenodd" d="M27.8413 105L19.8376 94.8171L24.4099 87.5393H11.895V71.0049C11.895 71.0049 7.72097 79.8924 6.81914 82.3622C5.91731 84.832 6.39576 88.4596 7.5855 90.2429C8.77523 92.0262 13.6576 105 13.6576 105H27.8413Z" fill="#FFCCB6"/>
<path fill-rule="evenodd" clip-rule="evenodd" d="M49.5254 84.2088L54.6334 91.9958L64.2859 82.1322L59.7481 74.0566L49.5254 84.2088Z" fill="#FEFFFF"/>
<path fill-rule="evenodd" clip-rule="evenodd" d="M49.5248 84.209L44.0253 91.9959L34.0332 82.4432L39.3273 73.9731L49.5248 84.209Z" fill="#FEFFFF"/>
<rect x="11.7229" y="72.8572" width="25.7143" height="14.3697" fill="#FCFFFF" stroke="#DFDCDC" stroke-width="0.756303"/>
<path fill-rule="evenodd" clip-rule="evenodd" d="M19.3623 83.3467L21.2539 84.541L21.762 86.3195H12.8574L13.2889 84.541L15.5279 83.3467H19.3623Z" fill="#ECA31C"/>
<path d="M14.4463 78.5044C14.4463 76.8475 15.7894 75.5044 17.4463 75.5044V75.5044C19.1031 75.5044 20.4463 76.8475 20.4463 78.5044V82.5044H14.4463V78.5044Z" fill="#353535"/>
<path fill-rule="evenodd" clip-rule="evenodd" d="M16.1182 81.7969H18.7728V83.6131H16.1182V81.7969Z" fill="#FFCDB3"/>
<mask id="mask6_1455_35669" style="mask-type:alpha" maskUnits="userSpaceOnUse" x="16" y="81" width="3" height="3">
<path fill-rule="evenodd" clip-rule="evenodd" d="M16.1182 81.7969H18.7728V83.6131H16.1182V81.7969Z" fill="white"/>
</mask>
<g mask="url(#mask6_1455_35669)">
<ellipse cx="17.4458" cy="81.6004" rx="1.52395" ry="1.27815" fill="#F1AE99"/>
</g>
<path fill-rule="evenodd" clip-rule="evenodd" d="M15.0777 79.119C14.6425 78.9254 14.4463 79.1307 14.4463 79.4557C14.4463 79.7808 14.8162 80.4186 15.0368 80.6094C15.2573 80.8003 15.4215 80.7076 15.4215 80.5337C15.4215 80.3597 15.513 79.3126 15.0777 79.119Z" fill="#FAC1A5"/>
<path fill-rule="evenodd" clip-rule="evenodd" d="M19.7142 79.0209C20.1495 78.8273 20.3457 79.0326 20.3457 79.3576C20.3457 79.6826 19.9758 80.3204 19.7552 80.5113C19.5347 80.7022 19.3705 80.6094 19.3705 80.4355C19.3705 80.2616 19.279 79.2145 19.7142 79.0209Z" fill="#FAC1A5"/>
<ellipse cx="17.4434" cy="79.5357" rx="2.24906" ry="3.0479" fill="#FFCDB4"/>
<path fill-rule="evenodd" clip-rule="evenodd" d="M15.1501 80.5184C15.2838 80.8331 15.4975 80.9465 15.4564 80.6869C15.4154 80.4274 15.2744 79.047 15.5313 78.5008C15.7882 77.9545 16.3622 77.7769 17.1183 77.9387C17.8743 78.1005 19.2612 78.725 19.4102 78.9138C19.5592 79.1026 19.5802 79.9874 19.543 80.2827C19.5057 80.5779 19.4765 81.0412 19.6339 80.599C19.7912 80.1568 19.9822 79.3507 19.9486 78.538C19.915 77.7253 19.6037 76.6756 18.1858 76.2609C16.7679 75.8463 15.8618 76.6277 15.5313 77.0931C15.2008 77.5586 15.1501 77.7735 15.1501 77.7735C15.1501 77.7735 14.8783 78.2057 14.8437 78.7196C14.8091 79.2335 15.0164 80.2037 15.1501 80.5184Z" fill="#353535"/>
<path fill-rule="evenodd" clip-rule="evenodd" d="M17.4434 83.6167L18.1074 84.629L19.3622 83.3467L18.7723 82.2969L17.4434 83.6167Z" fill="#EAF0EA"/>
<path fill-rule="evenodd" clip-rule="evenodd" d="M17.4436 83.6168L16.7287 84.6291L15.4297 83.3872L16.1179 82.2861L17.4436 83.6168Z" fill="#EAF0EA"/>
<path fill-rule="evenodd" clip-rule="evenodd" d="M16.895 68.2337C16.895 68.2337 15.7074 67.3013 13.8571 67.3013C12.0067 67.3013 11.3568 69.0803 11.6818 71.5519C12.0067 74.0235 12.863 75.4641 13.8571 75.0691C14.8511 74.6741 15.4323 72.4626 15.4323 72.4626H16.895V68.2337Z" fill="#FCD7C4"/>
<mask id="mask7_1455_35669" style="mask-type:alpha" maskUnits="userSpaceOnUse" x="11" y="67" width="6" height="9">
<path fill-rule="evenodd" clip-rule="evenodd" d="M16.895 68.2337C16.895 68.2337 15.7074 67.3013 13.8571 67.3013C12.0067 67.3013 11.3568 69.0803 11.6818 71.5519C12.0067 74.0235 12.863 75.4641 13.8571 75.0691C14.8511 74.6741 15.4323 72.4626 15.4323 72.4626H16.895V68.2337Z" fill="white"/>
</mask>
<g mask="url(#mask7_1455_35669)">
<path fill-rule="evenodd" clip-rule="evenodd" d="M11.9247 71.8061C13.0308 71.0045 13.4653 71.3767 14.0625 71.5914C14.6597 71.8061 14.5424 73.3871 14.0625 74.4465C13.5825 75.5059 12.4579 75.7818 12.1913 74.8475C11.9247 73.9133 10.8186 72.6078 11.9247 71.8061Z" fill="#FFE1D2"/>
<path fill-rule="evenodd" clip-rule="evenodd" d="M15.5589 66.9334C15.5589 66.9334 15.7136 69.2059 15.3601 70.5802C15.0066 71.9545 15.7588 73.3661 15.7588 73.3661C15.7588 73.3661 18.0142 73.7961 18.0142 73.7961C18.0142 73.7961 19.27 68.4786 19.27 68.2775C19.27 68.0764 17.0958 66.731 17.0958 66.731C17.0958 66.731 15.5589 66.9334 15.5589 66.9334Z" fill="#E5BBA2"/>
</g>
<path fill-rule="evenodd" clip-rule="evenodd" d="M23.3443 68.8879C23.3443 68.8879 22.5486 66.4168 21.8565 65.6443C21.1643 64.8718 19.3332 64.8279 18.5232 65.2361C17.7132 65.6443 16.5861 68.1975 16.2469 69.7076C15.9078 71.2176 15.7332 73.0602 16.6207 73.6336C17.5082 74.207 18.8616 73.1013 19.2595 72.7784C19.6575 72.4556 19.8861 72.384 19.8861 72.384H22.6187L23.3443 68.8879Z" fill="#FCD7C4"/>
<mask id="mask8_1455_35669" style="mask-type:alpha" maskUnits="userSpaceOnUse" x="15" y="64" width="9" height="10">
<path fill-rule="evenodd" clip-rule="evenodd" d="M23.3443 68.8879C23.3443 68.8879 22.5486 66.4168 21.8565 65.6443C21.1643 64.8718 19.3332 64.8279 18.5232 65.2361C17.7132 65.6443 16.5861 68.1975 16.2469 69.7076C15.9078 71.2176 15.7332 73.0602 16.6207 73.6336C17.5082 74.207 18.8616 73.1013 19.2595 72.7784C19.6575 72.4556 19.8861 72.384 19.8861 72.384H22.6187L23.3443 68.8879Z" fill="white"/>
</mask>
<g mask="url(#mask8_1455_35669)">
<path fill-rule="evenodd" clip-rule="evenodd" d="M16.4201 70.1961C17.7435 69.6409 18.306 70.3189 18.533 71.2176C18.76 72.1162 18.194 73.5119 17.4766 73.7958C16.7592 74.0797 15.6921 73.8653 15.6921 72.9836C15.6921 72.1019 15.0968 70.7513 16.4201 70.1961Z" fill="#FFE1D2"/>
<path fill-rule="evenodd" clip-rule="evenodd" d="M21.8699 65.4189C21.8699 65.4189 21.9418 67.2928 21.64 68.0388C21.3381 68.7848 19.6572 72.4962 19.6572 72.4962C19.6572 72.4962 20.5631 73.9135 20.9435 73.9135C21.3239 73.9135 24.2102 74.2356 24.5679 73.3659C24.9257 72.4962 24.7084 67.4364 24.5679 67.3013C24.4275 67.1662 21.8699 65.4189 21.8699 65.4189Z" fill="#F1C1A5"/>
</g>
<path fill-rule="evenodd" clip-rule="evenodd" d="M31.6182 72.633C31.6182 72.633 31.8722 70.7399 30.5419 69.6422C29.2117 68.5445 27.5183 68.8771 27.5183 68.8771C27.5183 68.8771 26.6963 67.7051 25.0202 67.3013C23.3441 66.8976 21.9482 68.7317 21.1948 70.2002C20.4414 71.6686 20.8495 73.0605 21.9058 73.4282C22.9621 73.7959 24.0809 73.3592 24.5506 73.0551C25.0202 72.7509 25.0202 72.633 25.0202 72.633H31.6182Z" fill="#FCD7C4"/>
<mask id="mask9_1455_35669" style="mask-type:alpha" maskUnits="userSpaceOnUse" x="20" y="67" width="12" height="7">
<path fill-rule="evenodd" clip-rule="evenodd" d="M31.6182 72.633C31.6182 72.633 31.8722 70.7399 30.5419 69.6422C29.2117 68.5445 27.5183 68.8771 27.5183 68.8771C27.5183 68.8771 26.6963 67.7051 25.0202 67.3013C23.3441 66.8976 21.9482 68.7317 21.1948 70.2002C20.4414 71.6686 20.8495 73.0605 21.9058 73.4282C22.9621 73.7959 24.0809 73.3592 24.5506 73.0551C25.0202 72.7509 25.0202 72.633 25.0202 72.633H31.6182Z" fill="white"/>
</mask>
<g mask="url(#mask9_1455_35669)">
<path fill-rule="evenodd" clip-rule="evenodd" d="M21.287 70.1487C22.1113 69.8722 22.6967 70.0103 23.4093 70.4265C24.122 70.8427 23.7348 72.3015 23.4093 72.7144C23.0839 73.1273 22.947 73.9837 21.8082 73.7451C20.6693 73.5066 20.4626 70.4251 21.287 70.1487Z" fill="#FFE1D2"/>
<path fill-rule="evenodd" clip-rule="evenodd" d="M25.6739 70.8252C25.6739 70.8252 25.0742 71.7585 25.0742 72.3303C25.0742 72.9021 25.0742 73.366 25.0742 73.366L32.905 73.796V69.3885L29.2859 68.3696C29.2859 68.3696 30.1035 70.1051 30.1035 71.2177C30.1035 72.3303 29.2859 72.7329 29.2859 72.7329H26.488C26.488 72.7329 26.1534 72.6569 25.9257 72.135C25.698 71.6131 25.6739 70.8252 25.6739 70.8252Z" fill="#E6BBAA"/>
<path fill-rule="evenodd" clip-rule="evenodd" d="M27.5184 68.8769L26.6569 69.3882C26.6569 69.3882 26.6569 68.0277 26.2338 67.4919C25.8108 66.9562 28.1456 67.3011 28.1456 67.3011L27.5184 68.8769Z" fill="#E6BBAA"/>
</g>
<path fill-rule="evenodd" clip-rule="evenodd" d="M19.6572 94.7273C19.6572 94.7273 22.6817 93.7029 25.0739 92.2293C27.4661 90.7557 30.2635 88.8571 29.9356 87.5572C29.6078 86.2573 28.0114 85.4185 26.2987 86.1094C24.586 86.8003 23.0764 88.2638 23.0764 88.2638L17.0957 88.9148L18.3038 93.8062L19.6572 94.7273Z" fill="#FFCCB6"/>
<path fill-rule="evenodd" clip-rule="evenodd" d="M19.6572 94.7274C19.6572 94.7274 17.7215 94.0825 16.3737 93.3311C15.0259 92.5797 13.6689 91.3198 13.6689 91.3198C13.6689 91.3198 14.9856 93.4708 16.6631 94.2502C18.3406 95.0296 19.6572 94.7274 19.6572 94.7274Z" fill="#F8C0A9"/>
<rect x="24.3912" y="77.2057" width="10.2101" height="0.378151" rx="0.189076" fill="#D8D8D8" stroke="#979797" stroke-width="0.378151"/>
<rect x="24.3912" y="79.4747" width="10.2101" height="0.378151" rx="0.189076" fill="#D8D8D8" stroke="#979797" stroke-width="0.378151"/>
<rect x="24.3912" y="81.7438" width="10.2101" height="0.378151" rx="0.189076" fill="#D8D8D8" stroke="#979797" stroke-width="0.378151"/>
<rect x="24.3912" y="84.0128" width="6.42857" height="0.378151" rx="0.189076" fill="#D8D8D8" stroke="#979797" stroke-width="0.378151"/>
<circle cx="213.5" cy="109.5" r="16.5" fill="#0BC763" stroke="white" stroke-width="2"/>
<path d="M206.9 109.81L211.416 114.473L220.9 104.473" stroke="#FEFFFF" stroke-width="3" stroke-linecap="round" stroke-linejoin="round"/>
<rect x="247" y="15" width="90" height="90" rx="4.53782" fill="#EFEFEF"/>
<path fill-rule="evenodd" clip-rule="evenodd" d="M311.286 82.1323L325.836 91.3197L329.745 105H264.096L261.248 90.2943L281.79 82.1323H311.286Z" fill="#0A73F0"/>
<path fill-rule="evenodd" clip-rule="evenodd" d="M286.328 70.21H306.748V84.181H286.328V70.21Z" fill="#FFCDB3"/>
<mask id="mask10_1455_35669" style="mask-type:alpha" maskUnits="userSpaceOnUse" x="286" y="70" width="21" height="15">
<path fill-rule="evenodd" clip-rule="evenodd" d="M286.328 70.21H306.748V84.181H286.328V70.21Z" fill="white"/>
</mask>
<g mask="url(#mask10_1455_35669)">
<ellipse cx="296.538" cy="68.6972" rx="11.7227" ry="9.83193" fill="#F1AE99"/>
</g>
<path fill-rule="evenodd" clip-rule="evenodd" d="M278.328 49.6112C274.98 48.1219 273.471 49.7013 273.471 52.2014C273.471 54.7015 276.316 59.6076 278.013 61.076C279.709 62.5444 280.972 61.8309 280.972 60.493C280.972 59.1551 281.676 51.1006 278.328 49.6112Z" fill="#FAC1A5"/>
<path fill-rule="evenodd" clip-rule="evenodd" d="M313.991 48.8549C317.339 47.3655 318.849 48.945 318.849 51.445C318.849 53.9451 316.003 58.8513 314.307 60.3197C312.61 61.788 311.347 61.0746 311.347 59.7367C311.347 58.3987 310.643 50.3443 313.991 48.8549Z" fill="#FAC1A5"/>
<ellipse cx="296.525" cy="52.815" rx="17.3005" ry="23.4454" fill="#FFCDB4"/>
<path fill-rule="evenodd" clip-rule="evenodd" d="M278.883 52.682C279.911 55.1028 281.555 55.9746 281.239 53.9781C280.923 51.9816 279.839 41.3637 281.815 37.1616C283.791 32.9594 288.207 31.5935 294.022 32.838C299.838 34.0824 310.507 38.8868 311.653 40.3391C312.799 41.7915 312.96 48.5974 312.674 50.8686C312.387 53.1399 312.162 56.7036 313.373 53.3018C314.584 49.9 316.052 43.6997 315.794 37.4481C315.536 31.1965 313.046 26.4084 302.139 23.2188C291.232 20.0291 284.358 22.7532 281.815 26.3337C279.273 29.9142 279.73 33.7159 279.73 33.7159C279.73 33.7159 276.792 34.8916 276.526 38.8447C276.259 42.7977 277.854 50.2613 278.883 52.682Z" fill="#323637"/>
<path fill-rule="evenodd" clip-rule="evenodd" d="M281.79 36.9596C281.79 36.9596 291.509 43.0486 300.254 42.9823C308.998 42.9159 314.311 39.4019 314.311 39.4019L304.547 28.3848L291.91 27.8569L282.635 34.1919L281.79 36.9596Z" fill="#353535"/>
<path fill-rule="evenodd" clip-rule="evenodd" d="M274.841 105L266.838 94.8171L271.41 87.5393H258.895V71.0049C258.895 71.0049 254.721 79.8924 253.819 82.3622C252.917 84.832 253.396 88.4596 254.585 90.2429C255.775 92.0262 260.658 105 260.658 105H274.841Z" fill="#FFCCB6"/>
<path fill-rule="evenodd" clip-rule="evenodd" d="M296.525 84.2088L301.633 91.9958L311.286 82.1322L306.748 74.0566L296.525 84.2088Z" fill="#FEFFFF"/>
<path fill-rule="evenodd" clip-rule="evenodd" d="M296.525 84.209L291.025 91.9959L281.033 82.4432L286.327 73.9731L296.525 84.209Z" fill="#FEFFFF"/>
<rect x="258.723" y="72.8572" width="25.7143" height="14.3697" fill="#FCFFFF" stroke="#DFDCDC" stroke-width="0.756303"/>
<path fill-rule="evenodd" clip-rule="evenodd" d="M266.362 83.3467L268.254 84.541L268.762 86.3195H259.857L260.289 84.541L262.528 83.3467H266.362Z" fill="#ECA31C"/>
<path fill-rule="evenodd" clip-rule="evenodd" d="M263.118 81.7969H265.773V83.6131H263.118V81.7969Z" fill="#FFCDB3"/>
<mask id="mask11_1455_35669" style="mask-type:alpha" maskUnits="userSpaceOnUse" x="263" y="81" width="3" height="3">
<path fill-rule="evenodd" clip-rule="evenodd" d="M263.118 81.7969H265.773V83.6131H263.118V81.7969Z" fill="white"/>
</mask>
<g mask="url(#mask11_1455_35669)">
<ellipse cx="264.446" cy="81.6004" rx="1.52395" ry="1.27815" fill="#F1AE99"/>
</g>
<path fill-rule="evenodd" clip-rule="evenodd" d="M262.078 79.119C261.642 78.9254 261.446 79.1307 261.446 79.4557C261.446 79.7808 261.816 80.4186 262.037 80.6094C262.257 80.8003 262.421 80.7076 262.421 80.5337C262.421 80.3597 262.513 79.3126 262.078 79.119Z" fill="#FAC1A5"/>
<path fill-rule="evenodd" clip-rule="evenodd" d="M266.714 79.0209C267.15 78.8273 267.346 79.0326 267.346 79.3576C267.346 79.6826 266.976 80.3204 266.755 80.5113C266.535 80.7022 266.371 80.6094 266.371 80.4355C266.371 80.2616 266.279 79.2145 266.714 79.0209Z" fill="#FAC1A5"/>
<ellipse cx="264.443" cy="79.5357" rx="2.24906" ry="3.0479" fill="#FFCDB4"/>
<path fill-rule="evenodd" clip-rule="evenodd" d="M262.15 79.5182C262.284 79.8329 262.498 79.9462 262.456 79.6867C262.415 79.4271 262.274 78.0468 262.531 77.5005C262.788 76.9543 263.362 76.7767 264.118 76.9385C264.874 77.1002 266.261 77.7248 266.41 77.9136C266.559 78.1024 266.58 78.9872 266.543 79.2825C266.506 79.5777 266.476 80.041 266.634 79.5988C266.791 79.1565 266.982 78.3505 266.949 77.5378C266.915 76.7251 266.591 76.1026 265.173 75.688C263.756 75.2733 262.862 75.6274 262.531 76.0929C262.201 76.5584 262.26 77.0526 262.26 77.0526C262.26 77.0526 261.878 77.2054 261.844 77.7193C261.809 78.2332 262.016 79.2035 262.15 79.5182Z" fill="#323637"/>
<path fill-rule="evenodd" clip-rule="evenodd" d="M262.527 77.4744C262.527 77.4744 263.791 78.2659 264.928 78.2573C266.064 78.2487 266.755 77.7919 266.755 77.7919L265.486 76.3596L263.843 76.291L262.637 77.1146L262.527 77.4744Z" fill="#353535"/>
<path fill-rule="evenodd" clip-rule="evenodd" d="M264.443 83.6167L265.107 84.629L266.362 83.3467L265.772 82.2969L264.443 83.6167Z" fill="#EAF0EA"/>
<path fill-rule="evenodd" clip-rule="evenodd" d="M264.444 83.6168L263.729 84.6291L262.43 83.3872L263.118 82.2861L264.444 83.6168Z" fill="#EAF0EA"/>
<path fill-rule="evenodd" clip-rule="evenodd" d="M263.895 68.2337C263.895 68.2337 262.707 67.3013 260.857 67.3013C259.007 67.3013 258.357 69.0803 258.682 71.5519C259.007 74.0235 259.863 75.4641 260.857 75.0691C261.851 74.6741 262.432 72.4626 262.432 72.4626H263.895V68.2337Z" fill="#FCD7C4"/>
<mask id="mask12_1455_35669" style="mask-type:alpha" maskUnits="userSpaceOnUse" x="258" y="67" width="6" height="9">
<path fill-rule="evenodd" clip-rule="evenodd" d="M263.895 68.2337C263.895 68.2337 262.707 67.3013 260.857 67.3013C259.007 67.3013 258.357 69.0803 258.682 71.5519C259.007 74.0235 259.863 75.4641 260.857 75.0691C261.851 74.6741 262.432 72.4626 262.432 72.4626H263.895V68.2337Z" fill="white"/>
</mask>
<g mask="url(#mask12_1455_35669)">
<path fill-rule="evenodd" clip-rule="evenodd" d="M258.925 71.8061C260.031 71.0045 260.465 71.3767 261.062 71.5914C261.66 71.8061 261.542 73.3871 261.062 74.4465C260.582 75.5059 259.458 75.7818 259.191 74.8475C258.925 73.9133 257.819 72.6078 258.925 71.8061Z" fill="#FFE1D2"/>
<path fill-rule="evenodd" clip-rule="evenodd" d="M262.559 66.9334C262.559 66.9334 262.714 69.2059 262.36 70.5802C262.007 71.9545 262.759 73.3661 262.759 73.3661L265.014 73.7961C265.014 73.7961 266.27 68.4786 266.27 68.2775C266.27 68.0764 264.096 66.731 264.096 66.731L262.559 66.9334Z" fill="#E5BBA2"/>
</g>
<path fill-rule="evenodd" clip-rule="evenodd" d="M270.344 68.8879C270.344 68.8879 269.549 66.4168 268.856 65.6443C268.164 64.8718 266.333 64.8279 265.523 65.2361C264.713 65.6443 263.586 68.1975 263.247 69.7076C262.908 71.2176 262.733 73.0602 263.621 73.6336C264.508 74.207 265.862 73.1013 266.26 72.7784C266.658 72.4556 266.886 72.384 266.886 72.384H269.619L270.344 68.8879Z" fill="#FCD7C4"/>
<mask id="mask13_1455_35669" style="mask-type:alpha" maskUnits="userSpaceOnUse" x="262" y="64" width="9" height="10">
<path fill-rule="evenodd" clip-rule="evenodd" d="M270.344 68.8879C270.344 68.8879 269.549 66.4168 268.856 65.6443C268.164 64.8718 266.333 64.8279 265.523 65.2361C264.713 65.6443 263.586 68.1975 263.247 69.7076C262.908 71.2176 262.733 73.0602 263.621 73.6336C264.508 74.207 265.862 73.1013 266.26 72.7784C266.658 72.4556 266.886 72.384 266.886 72.384H269.619L270.344 68.8879Z" fill="white"/>
</mask>
<g mask="url(#mask13_1455_35669)">
<path fill-rule="evenodd" clip-rule="evenodd" d="M263.42 70.1961C264.743 69.6409 265.306 70.3189 265.533 71.2176C265.76 72.1162 265.194 73.5119 264.477 73.7958C263.759 74.0797 262.692 73.8653 262.692 72.9836C262.692 72.1019 262.097 70.7513 263.42 70.1961Z" fill="#FFE1D2"/>
<path fill-rule="evenodd" clip-rule="evenodd" d="M268.87 65.4189C268.87 65.4189 268.942 67.2928 268.64 68.0388C268.338 68.7848 266.657 72.4962 266.657 72.4962C266.657 72.4962 267.563 73.9135 267.944 73.9135C268.324 73.9135 271.21 74.2356 271.568 73.3659C271.926 72.4962 271.708 67.4364 271.568 67.3013C271.427 67.1662 268.87 65.4189 268.87 65.4189Z" fill="#F1C1A5"/>
</g>
<path fill-rule="evenodd" clip-rule="evenodd" d="M278.618 72.633C278.618 72.633 278.872 70.7399 277.542 69.6422C276.212 68.5445 274.518 68.8771 274.518 68.8771C274.518 68.8771 273.696 67.7051 272.02 67.3013C270.344 66.8976 268.948 68.7317 268.195 70.2002C267.441 71.6686 267.85 73.0605 268.906 73.4282C269.962 73.7959 271.081 73.3592 271.551 73.0551C272.02 72.7509 272.02 72.633 272.02 72.633H278.618Z" fill="#FCD7C4"/>
<mask id="mask14_1455_35669" style="mask-type:alpha" maskUnits="userSpaceOnUse" x="267" y="67" width="12" height="7">
<path fill-rule="evenodd" clip-rule="evenodd" d="M278.618 72.633C278.618 72.633 278.872 70.7399 277.542 69.6422C276.212 68.5445 274.518 68.8771 274.518 68.8771C274.518 68.8771 273.696 67.7051 272.02 67.3013C270.344 66.8976 268.948 68.7317 268.195 70.2002C267.441 71.6686 267.85 73.0605 268.906 73.4282C269.962 73.7959 271.081 73.3592 271.551 73.0551C272.02 72.7509 272.02 72.633 272.02 72.633H278.618Z" fill="white"/>
</mask>
<g mask="url(#mask14_1455_35669)">
<path fill-rule="evenodd" clip-rule="evenodd" d="M268.287 70.1487C269.111 69.8722 269.697 70.0103 270.409 70.4265C271.122 70.8427 270.735 72.3015 270.409 72.7144C270.084 73.1273 269.947 73.9837 268.808 73.7451C267.669 73.5066 267.463 70.4251 268.287 70.1487Z" fill="#FFE1D2"/>
<path fill-rule="evenodd" clip-rule="evenodd" d="M272.674 70.8252C272.674 70.8252 272.074 71.7585 272.074 72.3303C272.074 72.9021 272.074 73.366 272.074 73.366L279.905 73.796V69.3885L276.286 68.3696C276.286 68.3696 277.103 70.1051 277.103 71.2177C277.103 72.3303 276.286 72.7329 276.286 72.7329H273.488C273.488 72.7329 273.153 72.6569 272.926 72.135C272.698 71.6131 272.674 70.8252 272.674 70.8252Z" fill="#E6BBAA"/>
<path fill-rule="evenodd" clip-rule="evenodd" d="M274.518 68.8769L273.657 69.3882C273.657 69.3882 273.657 68.0277 273.234 67.4919C272.811 66.9562 275.146 67.3011 275.146 67.3011L274.518 68.8769Z" fill="#E6BBAA"/>
</g>
<path fill-rule="evenodd" clip-rule="evenodd" d="M266.657 94.7273C266.657 94.7273 269.682 93.7029 272.074 92.2293C274.466 90.7557 277.263 88.8571 276.936 87.5572C276.608 86.2573 275.011 85.4185 273.299 86.1094C271.586 86.8003 270.076 88.2638 270.076 88.2638L264.096 88.9148L265.304 93.8062L266.657 94.7273Z" fill="#FFCCB6"/>
<path fill-rule="evenodd" clip-rule="evenodd" d="M266.657 94.7274C266.657 94.7274 264.722 94.0825 263.374 93.3311C262.026 92.5797 260.669 91.3198 260.669 91.3198C260.669 91.3198 261.986 93.4708 263.663 94.2502C265.341 95.0296 266.657 94.7274 266.657 94.7274Z" fill="#F8C0A9"/>
<rect x="271.391" y="77.2057" width="10.2101" height="0.378151" rx="0.189076" fill="#D8D8D8" stroke="#979797" stroke-width="0.378151"/>
<rect x="271.391" y="79.4747" width="10.2101" height="0.378151" rx="0.189076" fill="#D8D8D8" stroke="#979797" stroke-width="0.378151"/>
<rect x="271.391" y="81.7438" width="10.2101" height="0.378151" rx="0.189076" fill="#D8D8D8" stroke="#979797" stroke-width="0.378151"/>
<rect x="271.391" y="84.0128" width="6.42857" height="0.378151" rx="0.189076" fill="#D8D8D8" stroke="#979797" stroke-width="0.378151"/>
<ellipse cx="287.703" cy="54.9697" rx="7.5884" ry="6.09264" transform="rotate(-24 287.703 54.9697)" fill="#353535"/>
<ellipse rx="7.5884" ry="6.09264" transform="matrix(-0.913545 -0.406737 -0.406737 0.913545 305.063 54.9697)" fill="#353535"/>
<rect x="292.74" y="53.4702" width="7.6" height="2.21053" fill="#353535"/>
<path fill-rule="evenodd" clip-rule="evenodd" d="M278.344 52.6005C279.617 54.5754 281.147 54.3397 283.328 53.4701C285.509 52.6005 290.272 49.6641 298.167 50.7143C306.062 51.7646 310.993 53.748 312.708 53.748C314.423 53.748 315.269 51.53 315.269 51.1222C315.269 50.7143 311.435 47.396 310.731 47.1364C310.026 46.8767 299.291 43 296.015 43C292.74 43 280.869 45.0631 280.284 45.9699C279.699 46.8767 277.071 50.6257 278.344 52.6005Z" fill="#353535"/>
<rect x="294" y="19" width="4" height="3" rx="1.5" fill="#C66C26"/>
<path fill-rule="evenodd" clip-rule="evenodd" d="M275 44.7896C275 45.8241 275.717 46.3376 277.801 46.3376C279.886 46.3376 288.506 43.1021 296.663 43.1021C304.819 43.1021 313.886 46.3376 314.97 46.3376C316.055 46.3376 316.884 46.3376 316.884 44.7198C316.884 43.1021 315.732 33.1012 314.321 29.3155C312.909 25.5298 308.983 23.2273 305.385 22.0231C301.788 20.8189 297.943 20.3013 295.942 20.3013C293.941 20.3013 286.896 21.4334 282.647 23.5966C278.399 25.7598 277.184 31.5148 276.577 33.8944C275.97 36.2741 275 43.7552 275 44.7896Z" fill="#C86C22"/>
<mask id="mask15_1455_35669" style="mask-type:alpha" maskUnits="userSpaceOnUse" x="275" y="20" width="42" height="27">
<path fill-rule="evenodd" clip-rule="evenodd" d="M275 44.7896C275 45.8241 275.717 46.3376 277.801 46.3376C279.886 46.3376 288.506 43.1021 296.663 43.1021C304.819 43.1021 313.886 46.3376 314.97 46.3376C316.055 46.3376 316.884 46.3376 316.884 44.7198C316.884 43.1021 315.732 33.1012 314.321 29.3155C312.909 25.5298 308.983 23.2273 305.385 22.0231C301.788 20.8189 297.943 20.3013 295.942 20.3013C293.941 20.3013 286.896 21.4334 282.647 23.5966C278.399 25.7598 277.184 31.5148 276.577 33.8944C275.97 36.2741 275 43.7552 275 44.7896Z" fill="white"/>
</mask>
<g mask="url(#mask15_1455_35669)">
<path fill-rule="evenodd" clip-rule="evenodd" d="M294.512 20.3013C289.618 24.2497 288.786 24.7259 287.893 26.9358C287 29.1457 285.703 37.7531 285.703 38.8961C285.703 40.0392 287.113 39.5953 289.169 39.2457C291.225 38.8961 296.214 37.6854 301.968 39.2457C307.721 40.8061 316.884 46.084 316.884 46.084L320.515 36.3151C320.515 36.3151 318.216 25.1689 317.934 24.5796C317.652 23.9903 307.007 19.5867 307.007 19.5867C307.007 19.5867 300.721 17.6157 299.996 17.9667C299.27 18.3176 299.406 16.353 294.512 20.3013Z" fill="#DF8129"/>
<mask id="mask16_1455_35669" style="mask-type:alpha" maskUnits="userSpaceOnUse" x="285" y="17" width="36" height="30">
<path fill-rule="evenodd" clip-rule="evenodd" d="M294.512 20.3013C289.618 24.2497 288.786 24.7259 287.893 26.9358C287 29.1457 285.703 37.7531 285.703 38.8961C285.703 40.0392 287.113 39.5953 289.169 39.2457C291.225 38.8961 296.214 37.6854 301.968 39.2457C307.721 40.8061 316.884 46.084 316.884 46.084L320.515 36.3151C320.515 36.3151 318.216 25.1689 317.934 24.5796C317.652 23.9903 307.007 19.5867 307.007 19.5867C307.007 19.5867 300.721 17.6157 299.996 17.9667C299.27 18.3176 299.406 16.353 294.512 20.3013Z" fill="white"/>
</mask>
<g mask="url(#mask16_1455_35669)">
<path fill-rule="evenodd" clip-rule="evenodd" d="M306.5 42.5313C306.5 37.5695 306.5 32.3076 305.19 29.2238C303.879 26.1399 300.555 22.0147 297.819 20.3012C295.084 18.5876 295.602 15.6797 295.602 15.6797C295.602 15.6797 314.096 16.7816 314.337 16.7816C314.578 16.7816 319.917 21.0132 320.514 21.993C321.111 22.9728 322.665 35.9432 322.665 36.3199C322.665 36.6967 322.375 47.3021 321.823 47.8113C321.272 48.3204 315.222 50.2322 315.222 50.2322C315.222 50.2322 306.5 47.4931 306.5 42.5313Z" fill="#F49535"/>
</g>
</g>
<path fill-rule="evenodd" clip-rule="evenodd" d="M278.502 44.6436C279.397 44.1007 287.503 40.248 296.5 40.248C305.497 40.248 314.051 45.1941 315.185 45.7297C316.319 46.2652 316.898 47.0642 316.898 49.026C316.898 50.9878 317.01 53.114 315.979 52.7155C314.948 52.317 307.007 46.8342 296.868 46.5197C286.729 46.2053 279.313 51.6073 277.671 52.376C276.028 53.1448 275.979 51.8269 276.004 50.4265C276.028 49.026 276.734 46.8008 276.98 46.2652C277.227 45.7297 277.608 45.1865 278.502 44.6436Z" fill="#DC8227"/>
<mask id="mask17_1455_35669" style="mask-type:alpha" maskUnits="userSpaceOnUse" x="276" y="40" width="41" height="13">
<path fill-rule="evenodd" clip-rule="evenodd" d="M278.502 44.6436C279.397 44.1007 287.503 40.248 296.5 40.248C305.497 40.248 314.051 45.1941 315.185 45.7297C316.319 46.2652 316.898 47.0642 316.898 49.026C316.898 50.9878 317.01 53.114 315.979 52.7155C314.948 52.317 307.007 46.8342 296.868 46.5197C286.729 46.2053 279.313 51.6073 277.671 52.376C276.028 53.1448 275.979 51.8269 276.004 50.4265C276.028 49.026 276.734 46.8008 276.98 46.2652C277.227 45.7297 277.608 45.1865 278.502 44.6436Z" fill="white"/>
</mask>
<g mask="url(#mask17_1455_35669)">
<path fill-rule="evenodd" clip-rule="evenodd" d="M294.391 39.5728C290.481 41.8475 288.98 44.8984 289.395 48.5721C289.81 52.2457 308.864 56.0207 308.864 56.0207C308.864 56.0207 324.023 57.2212 325.051 56.6209C326.079 56.0207 326.073 46.7744 326.073 46.5199C326.073 46.2653 320.834 42.2818 320.067 41.9634C319.301 41.6451 298.301 37.2982 294.391 39.5728Z" fill="#F29434"/>
<path fill-rule="evenodd" clip-rule="evenodd" d="M315.736 46.0137C316.072 48.5258 316.627 51.6351 314.989 50.4265C313.351 49.2179 304.939 45.4989 299.047 45.4989C293.156 45.4989 288.649 46.8052 285.646 49.1184C282.644 51.4317 301.559 58.3745 301.842 58.3745C302.124 58.3745 318.906 56.0797 318.906 56.0797C318.906 56.0797 320.935 52.3337 320.935 50.7261C320.935 49.1184 315.4 43.5016 315.736 46.0137Z" fill="#FEC879"/>
</g>
<circle cx="329" cy="101" r="10.75" fill="#F7484A" stroke="white" stroke-width="1.5"/>
<rect x="324.05" y="97.4644" width="2" height="12" rx="1" transform="rotate(-45 324.05 97.4644)" fill="white"/>
<rect x="332.535" y="96.0503" width="2" height="12" rx="1" transform="rotate(45 332.535 96.0503)" fill="white"/>
<circle cx="82" cy="101" r="10.75" fill="#F7484A" stroke="white" stroke-width="1.5"/>
<rect x="77.0498" y="97.4644" width="2" height="12" rx="1" transform="rotate(-45 77.0498 97.4644)" fill="white"/>
<rect x="85.5352" y="96.0503" width="2" height="12" rx="1" transform="rotate(45 85.5352 96.0503)" fill="white"/>
</svg>
