<svg width="266" height="349" viewBox="0 0 266 349" fill="none" xmlns="http://www.w3.org/2000/svg">
<path fill-rule="evenodd" clip-rule="evenodd" d="M27.9995 113.086C27.9995 113.086 14.0893 112.548 5.21902 120.8C-3.65127 129.051 5.04415 138.699 12.1436 141.493C19.243 144.287 27.9995 145.415 27.9995 145.415" fill="#FEFFFF"/>
<path d="M27.9995 113.086C27.9995 113.086 14.0893 112.548 5.21902 120.8C-3.65127 129.051 5.04415 138.699 12.1436 141.493C19.243 144.287 27.9995 145.415 27.9995 145.415" stroke="#0A2851" stroke-width="2"/>
<path fill-rule="evenodd" clip-rule="evenodd" d="M27.9997 161.967C27.9997 161.967 17.9422 161.154 11.1117 168.971C4.28124 176.788 5.37365 184.045 11.1117 187.641C16.8498 191.237 27.9997 191.002 27.9997 191.002" fill="#FEFFFF"/>
<path d="M27.9997 161.967C27.9997 161.967 17.9422 161.154 11.1117 168.971C4.28124 176.788 5.37365 184.045 11.1117 187.641C16.8498 191.237 27.9997 191.002 27.9997 191.002" stroke="#0A2851" stroke-width="2"/>
<path fill-rule="evenodd" clip-rule="evenodd" d="M27.9996 203.504C27.9996 203.504 18.7435 203.944 12.9745 210.909C7.20549 217.875 10.7068 226.436 15.8428 229.35C20.9787 232.263 27.9996 232.695 27.9996 232.695" fill="#FEFFFF"/>
<path d="M27.9996 203.504C27.9996 203.504 18.7435 203.944 12.9745 210.909C7.20549 217.875 10.7068 226.436 15.8428 229.35C20.9787 232.263 27.9996 232.695 27.9996 232.695" stroke="#0A2851" stroke-width="2"/>
<rect x="28" y="2" width="141" height="277" rx="8" stroke="#0A2851" stroke-width="4"/>
<circle cx="98.5" cy="15.5" r="4.5" fill="#0A2851"/>
<rect x="75" y="31" width="45" height="5" rx="2.5" fill="#BEC7D6"/>
<rect opacity="0.5" x="57" y="43" width="81" height="5" rx="2.5" fill="#BEC7D6"/>
<rect x="49" y="104" width="96" height="66" rx="9" fill="#BEC7D6"/>
<path fill-rule="evenodd" clip-rule="evenodd" d="M57 125C57 121.134 60.134 118 64 118H80C83.866 118 87 121.134 87 125V149C87 152.866 83.866 156 80 156H64C60.134 156 57 152.866 57 149V125ZM78 129C78 132.314 75.3137 135 72 135C68.6863 135 66 132.314 66 129C66 125.686 68.6863 123 72 123C75.3137 123 78 125.686 78 129ZM72.5 151.829C78.8513 151.829 84 148.957 84 145.415C84 141.872 78.8513 139 72.5 139C66.1487 139 61 141.872 61 145.415C61 148.957 66.1487 151.829 72.5 151.829Z" fill="white"/>
<path fill-rule="evenodd" clip-rule="evenodd" d="M91 121C91 119.343 92.3431 118 94 118H133C134.657 118 136 119.343 136 121C136 122.657 134.657 124 133 124H94C92.3431 124 91 122.657 91 121ZM91 131C91 129.343 92.3431 128 94 128H133C134.657 128 136 129.343 136 131C136 132.657 134.657 134 133 134H94C92.3431 134 91 132.657 91 131ZM94 138C92.3431 138 91 139.343 91 141C91 142.657 92.3431 144 94 144H133C134.657 144 136 142.657 136 141C136 139.343 134.657 138 133 138H94ZM91 151C91 149.343 92.3431 148 94 148H109C110.657 148 112 149.343 112 151C112 152.657 110.657 154 109 154H94C92.3431 154 91 152.657 91 151ZM118 148C116.343 148 115 149.343 115 151C115 152.657 116.343 154 118 154H133C134.657 154 136 152.657 136 151C136 149.343 134.657 148 133 148H118Z" fill="white"/>
<path d="M42.5664 113.086V100.967C42.5664 98.2059 44.805 95.9673 47.5664 95.9673H59.0786" stroke="#0073FF" stroke-width="2" stroke-linecap="round"/>
<path d="M42.5664 161.967V174.085C42.5664 176.847 44.805 179.085 47.5664 179.085H59.0786" stroke="#0073FF" stroke-width="2" stroke-linecap="round"/>
<path d="M154.078 113.086V100.967C154.078 98.2059 151.84 95.9673 149.078 95.9673H137.566" stroke="#0073FF" stroke-width="2" stroke-linecap="round"/>
<path d="M154.078 161.967V174.085C154.078 176.847 151.84 179.085 149.078 179.085H137.566" stroke="#0073FF" stroke-width="2" stroke-linecap="round"/>
<path fill-rule="evenodd" clip-rule="evenodd" d="M162.346 279.233C159.804 251.471 159.956 229.925 162.801 214.595C167.476 189.406 175.367 180.294 175.367 180.294C175.367 180.294 162.455 144.054 162.801 118C163.147 91.9455 170.381 85.3671 175.367 82.9753C180.352 80.5835 185.986 79.0678 188.386 84.1343C190.787 89.2007 191.375 100.15 191.375 102.87C191.375 105.589 192.19 110.643 193.755 116.66C195.32 122.677 205.046 146.654 216.173 166.533C227.301 186.411 233.841 197.165 233.841 206.286C233.841 215.406 234.384 245.249 239.305 258.334C244.227 271.419 256.581 288.986 260.271 294.959C263.96 300.931 265.549 325.02 263.477 339.017C261.405 353.014 255.038 383.977 233.841 376.756C212.644 369.535 204.277 365.203 184.668 351.319C165.059 337.436 156.291 321.223 155.181 319.494C154.071 317.765 152.153 315.551 141.997 313.809C131.84 312.067 118.503 310.163 103.478 301.241C88.4523 292.318 70.8184 279 70.8184 279L162.346 279.233Z" fill="#FEFFFF"/>
<mask id="mask0_1455_35865" style="mask-type:alpha" maskUnits="userSpaceOnUse" x="70" y="80" width="195" height="298">
<path fill-rule="evenodd" clip-rule="evenodd" d="M162.346 279.233C159.804 251.471 159.956 229.925 162.801 214.595C167.476 189.406 175.367 180.294 175.367 180.294C175.367 180.294 162.455 144.054 162.801 118C163.147 91.9455 170.381 85.3671 175.367 82.9753C180.352 80.5835 185.986 79.0678 188.386 84.1343C190.787 89.2007 191.375 100.15 191.375 102.87C191.375 105.589 192.19 110.643 193.755 116.66C195.32 122.677 205.046 146.654 216.173 166.533C227.301 186.411 233.841 197.165 233.841 206.286C233.841 215.406 234.384 245.249 239.305 258.334C244.227 271.419 256.581 288.986 260.271 294.959C263.96 300.931 265.549 325.02 263.477 339.017C261.405 353.014 255.038 383.977 233.841 376.756C212.644 369.535 204.277 365.203 184.668 351.319C165.059 337.436 156.291 321.223 155.181 319.494C154.071 317.765 152.153 315.551 141.997 313.809C131.84 312.067 118.503 310.163 103.478 301.241C88.4523 292.318 70.8184 279 70.8184 279L162.346 279.233Z" fill="white"/>
</mask>
<g mask="url(#mask0_1455_35865)">
<path fill-rule="evenodd" clip-rule="evenodd" d="M168.999 194.023C168.999 194.023 174.36 186.474 178.4 182.645C182.44 178.816 184.942 177.088 184.942 177.088C184.942 177.088 171.733 156.863 168.999 134C166.266 111.137 166.525 94.5267 172.462 84.4614C178.4 74.396 152.339 82.7197 151.622 83.5905C150.905 84.4614 145.822 114.653 145.822 114.653L155.271 155.616L162.277 193.205L168.999 194.023Z" fill="#EAEEF1"/>
</g>
<path d="M163.147 287.352C163.147 287.352 158.126 239.784 162.801 214.595C167.476 189.406 175.367 180.294 175.367 180.294C175.367 180.294 162.455 144.054 162.801 118C163.147 91.9455 170.381 85.3671 175.367 82.9753C180.352 80.5835 185.986 79.0678 188.386 84.1343C190.787 89.2007 191.375 100.15 191.375 102.87C191.375 105.589 192.19 110.643 193.755 116.66C195.32 122.677 205.046 146.654 216.173 166.533C227.301 186.411 233.841 197.165 233.841 206.286C233.841 215.406 234.384 245.249 239.305 258.334C244.227 271.419 256.581 288.986 260.271 294.959C263.96 300.931 265.549 325.02 263.477 339.017C261.405 353.014 255.038 383.977 233.841 376.756C212.644 369.535 204.277 365.203 184.668 351.319C165.059 337.436 156.291 321.223 155.181 319.494C154.071 317.765 152.153 315.551 141.997 313.809C131.84 312.067 118.503 310.163 103.478 301.241C88.4523 292.319 70.8184 279 70.8184 279" stroke="#0A2851" stroke-width="2" stroke-linecap="round"/>
<path d="M187.309 90.7134C184.367 91.3685 181.955 94.0369 182.217 98.7604C182.478 103.484 184.753 108.739 184.753 108.739" stroke="#D6DDE4" stroke-linecap="round"/>
<circle cx="98.5" cy="239.5" r="20.5" fill="#0A73F0"/>
<path d="M87.875 240.807L94.9062 247.775L109.675 232.831" stroke="#FEFFFF" stroke-width="4" stroke-linecap="round" stroke-linejoin="round"/>
<path d="M38.2979 279H161.886" stroke="#0A2851" stroke-width="4"/>
</svg>
