<svg width="24" height="24" viewBox="0 0 24 24" fill="none" xmlns="http://www.w3.org/2000/svg">
<path fill-rule="evenodd" clip-rule="evenodd" d="M12 24C18.6274 24 24 18.6274 24 12C24 5.37258 18.6274 0 12 0C5.37258 0 0 5.37258 0 12C0 18.6274 5.37258 24 12 24ZM12.621 18.0014C13.241 18.0014 13.741 17.5014 13.741 16.8914V16.1714H9.66103V16.7114C9.66103 17.6014 10.241 18.0014 10.781 18.0014H12.621ZM13.771 15.1714C13.861 14.7114 14.131 14.2714 14.551 13.9314C15.602 13.0814 16.201 11.8214 16.201 10.4714C16.201 9.27135 15.731 8.14135 14.871 7.30135C14.001 6.44135 12.841 5.97135 11.631 6.00135C9.24102 6.03135 7.25102 8.00135 7.20102 10.3814C7.17102 11.8014 7.80102 13.1114 8.91103 13.9814C9.32102 14.3014 9.57102 14.7214 9.64102 15.1714H13.771Z" fill="#0A73F0"/>
</svg>
