<svg width="340" height="108" viewBox="0 0 340 108" fill="none" xmlns="http://www.w3.org/2000/svg">
<rect x="0.5" y="0.5" width="339" height="107" rx="9.5" fill="#F7484A" fill-opacity="0.1" stroke="#F7484A"/>
<path d="M43.4414 26.8135V28H37.0254V17.4312H38.3438V26.8135H43.4414ZM50.0845 26.6963C49.5864 27.6143 48.7246 28.0732 47.499 28.0732C46.6348 28.0732 45.9512 27.8145 45.4482 27.2969C44.9453 26.7744 44.6938 26.064 44.6938 25.1655V20.1045H45.9683V24.9458C45.9683 25.5903 46.1318 26.0835 46.459 26.4253C46.791 26.7671 47.2671 26.938 47.8872 26.938C48.5366 26.938 49.0566 26.7329 49.4473 26.3228C49.8428 25.9126 50.0405 25.3682 50.0405 24.6895V20.1045H51.3149V20.8369C51.5005 21.0078 51.7324 21.0933 52.0107 21.0933C52.3281 21.0933 52.5552 20.9956 52.6919 20.8003C52.8286 20.6001 52.897 20.2754 52.897 19.8262V18.6836H54.0615V20.1777C54.0615 20.7539 53.8931 21.2227 53.5562 21.584C53.2241 21.9404 52.7896 22.1187 52.2524 22.1187C51.8862 22.1187 51.5737 22.0259 51.3149 21.8403V28H50.1138V26.6963H50.0845ZM61.7739 20.1045V28H60.5728V26.6963H60.5435C60.0454 27.6143 59.1836 28.0732 57.958 28.0732C57.0938 28.0732 56.4102 27.8145 55.9072 27.2969C55.4043 26.7744 55.1528 26.064 55.1528 25.1655V20.1045H56.4272V24.9458C56.4272 25.5903 56.5908 26.0835 56.918 26.4253C57.25 26.7671 57.7261 26.938 58.3462 26.938C58.9956 26.938 59.5156 26.7329 59.9062 26.3228C60.3018 25.9126 60.4995 25.3682 60.4995 24.6895V20.1045H61.7739ZM67.7725 30.8638C67.582 30.8638 67.3965 30.8467 67.2158 30.8125V29.7358C67.3623 29.7651 67.5356 29.7798 67.7358 29.7798C68.1021 29.7798 68.395 29.6797 68.6147 29.4795C68.8345 29.2842 69.0249 28.9497 69.186 28.4761L69.3398 28.0073L66.4175 20.1045H67.7725L69.9844 26.7036H70.0137L72.2256 20.1045H73.5659L70.4751 28.4834C70.1382 29.3965 69.7769 30.0215 69.3911 30.3584C69.0103 30.6953 68.4707 30.8638 67.7725 30.8638ZM70.541 18.8447H69.457L71.0024 16.6475H72.4526L70.541 18.8447ZM75.6533 28.0732C75.4189 28.0732 75.2212 27.9927 75.0601 27.8315C74.8989 27.6704 74.8184 27.4727 74.8184 27.2383C74.8184 26.999 74.8989 26.8013 75.0601 26.645C75.2212 26.4839 75.4189 26.4033 75.6533 26.4033C75.8926 26.4033 76.0903 26.4839 76.2466 26.645C76.4077 26.8013 76.4883 26.999 76.4883 27.2383C76.4883 27.4727 76.4077 27.6704 76.2466 27.8315C76.0903 27.9927 75.8926 28.0732 75.6533 28.0732ZM75.6533 22.6826C75.4189 22.6826 75.2212 22.6021 75.0601 22.4409C74.8989 22.2798 74.8184 22.082 74.8184 21.8477C74.8184 21.6084 74.8989 21.4106 75.0601 21.2544C75.2212 21.0933 75.4189 21.0127 75.6533 21.0127C75.8926 21.0127 76.0903 21.0933 76.2466 21.2544C76.4077 21.4106 76.4883 21.6084 76.4883 21.8477C76.4883 22.082 76.4077 22.2798 76.2466 22.4409C76.0903 22.6021 75.8926 22.6826 75.6533 22.6826ZM83.4756 28H82.1719V17.4312H83.4536L89.2397 25.7295H89.3057V17.4312H90.6094V28H89.3276L83.5415 19.731H83.4756V28ZM95.6924 26.8647C96.3857 26.8647 96.9448 26.6035 97.3696 26.0811C97.7993 25.5537 98.0142 24.8677 98.0142 24.0229C98.0142 23.1733 97.7993 22.4849 97.3696 21.9575C96.9448 21.4302 96.3857 21.1665 95.6924 21.1665C95.0039 21.1665 94.4521 21.4277 94.0371 21.9502C93.6221 22.4678 93.4146 23.1587 93.4146 24.0229C93.4146 24.8823 93.6221 25.5708 94.0371 26.0884C94.4521 26.606 95.0039 26.8647 95.6924 26.8647ZM95.7144 30.8198C94.8208 30.8198 94.0762 30.6196 93.4805 30.2192C92.8848 29.8237 92.5405 29.2988 92.4478 28.6445H93.7734C93.8662 28.9717 94.0933 29.2305 94.4546 29.4209C94.8208 29.6162 95.2651 29.7139 95.7876 29.7139C96.4712 29.7139 97.0132 29.5479 97.4136 29.2158C97.814 28.8887 98.0142 28.4443 98.0142 27.8828V26.645H97.9849C97.7358 27.0747 97.3892 27.4092 96.9448 27.6484C96.5005 27.8828 96.0024 28 95.4507 28C94.4497 28 93.6416 27.6362 93.0264 26.9087C92.416 26.1763 92.1108 25.2144 92.1108 24.0229C92.1108 22.8169 92.4185 21.8501 93.0337 21.1226C93.6489 20.395 94.4644 20.0312 95.48 20.0312C96.0366 20.0312 96.5371 20.1484 96.9814 20.3828C97.4307 20.6172 97.7871 20.9517 98.0508 21.3862H98.0728V20.1045H99.2886V27.7803C99.2886 28.7227 98.9688 29.4648 98.3291 30.0068C97.6943 30.5488 96.8228 30.8198 95.7144 30.8198ZM101.098 28V16.9697H102.372V21.3862H102.401C102.899 20.4829 103.759 20.0312 104.979 20.0312C105.844 20.0312 106.542 20.2998 107.074 20.8369C107.606 21.374 107.873 22.082 107.873 22.9609V28H106.598V23.188C106.598 22.5581 106.42 22.0649 106.063 21.7085C105.712 21.3472 105.224 21.1665 104.599 21.1665C103.93 21.1665 103.39 21.3765 102.98 21.7964C102.575 22.2163 102.372 22.7705 102.372 23.459V28H101.098ZM109.638 28V20.1045H110.912V28H109.638ZM110.275 18.8301C110.055 18.8301 109.865 18.752 109.704 18.5957C109.547 18.4346 109.469 18.2441 109.469 18.0244C109.469 17.7998 109.547 17.6094 109.704 17.4531C109.865 17.2969 110.055 17.2188 110.275 17.2188C110.5 17.2188 110.69 17.2969 110.846 17.4531C111.002 17.6094 111.081 17.7998 111.081 18.0244C111.081 18.2441 111.002 18.4346 110.846 18.5957C110.69 18.752 110.5 18.8301 110.275 18.8301ZM115.863 21.1519C115.243 21.1519 114.728 21.3569 114.318 21.7671C113.913 22.1772 113.688 22.7168 113.644 23.3857H117.987C117.973 22.7168 117.77 22.1772 117.379 21.7671C116.994 21.3569 116.488 21.1519 115.863 21.1519ZM117.958 25.7441H119.218C119.11 26.4229 118.749 26.9819 118.134 27.4214C117.519 27.856 116.789 28.0732 115.944 28.0732C114.835 28.0732 113.954 27.7144 113.3 26.9966C112.65 26.2788 112.326 25.3071 112.326 24.0815C112.326 22.856 112.65 21.8745 113.3 21.1372C113.949 20.3999 114.811 20.0312 115.885 20.0312C116.94 20.0312 117.775 20.3804 118.39 21.0786C119.005 21.772 119.313 22.7144 119.313 23.9058V24.4038H113.644V24.4771C113.644 25.229 113.856 25.8296 114.281 26.2788C114.706 26.728 115.27 26.9526 115.973 26.9526C116.466 26.9526 116.891 26.8452 117.248 26.6304C117.609 26.4106 117.846 26.1152 117.958 25.7441ZM116.339 16.6475L118.368 18.8447H117.174L115.907 17.4019H115.863L114.596 18.8447H113.402L115.431 16.6475H116.339ZM120.653 28V20.1045H121.854V21.3862H121.884C122.069 20.9663 122.36 20.6367 122.755 20.3975C123.156 20.1533 123.612 20.0312 124.125 20.0312C124.657 20.0312 125.116 20.1606 125.502 20.4194C125.888 20.6782 126.166 21.0469 126.337 21.5254H126.366C126.591 21.0566 126.923 20.6904 127.362 20.4268C127.802 20.1631 128.297 20.0312 128.849 20.0312C129.63 20.0312 130.253 20.2656 130.717 20.7344C131.186 21.2031 131.42 21.8281 131.42 22.6094V28H130.146V22.9023C130.146 22.3555 129.999 21.9307 129.706 21.6279C129.418 21.3203 129.01 21.1665 128.483 21.1665C127.956 21.1665 127.521 21.3423 127.179 21.6938C126.842 22.0454 126.674 22.4922 126.674 23.0342V28H125.399V22.7485C125.399 22.27 125.248 21.8867 124.945 21.5986C124.647 21.3105 124.252 21.1665 123.759 21.1665C123.231 21.1665 122.794 21.3521 122.448 21.7231C122.101 22.0894 121.928 22.5483 121.928 23.1001V28H120.653ZM143.234 22.6753H141.981C141.898 22.231 141.679 21.8696 141.322 21.5913C140.966 21.3081 140.502 21.1665 139.931 21.1665C139.237 21.1665 138.678 21.4302 138.253 21.9575C137.829 22.4849 137.616 23.1831 137.616 24.0522C137.616 24.9409 137.829 25.644 138.253 26.1616C138.683 26.6792 139.247 26.938 139.945 26.938C140.497 26.938 140.949 26.8135 141.3 26.5645C141.657 26.3105 141.889 25.9468 141.996 25.4731H143.249C143.141 26.2495 142.785 26.877 142.179 27.3555C141.579 27.834 140.832 28.0732 139.938 28.0732C138.844 28.0732 137.968 27.7119 137.309 26.9893C136.649 26.2617 136.32 25.2827 136.32 24.0522C136.32 22.8413 136.649 21.8696 137.309 21.1372C137.968 20.3999 138.839 20.0312 139.923 20.0312C140.856 20.0312 141.62 20.29 142.216 20.8076C142.812 21.3203 143.151 21.9429 143.234 22.6753ZM147.05 26.9673C147.694 26.9673 148.227 26.7817 148.646 26.4106C149.071 26.0347 149.284 25.5635 149.284 24.9971V24.3599L147.218 24.4917C146.017 24.5649 145.417 24.9873 145.417 25.7588C145.417 26.125 145.563 26.418 145.856 26.6377C146.154 26.8574 146.552 26.9673 147.05 26.9673ZM146.779 28.0732C145.978 28.0732 145.333 27.8608 144.845 27.436C144.357 27.0112 144.113 26.4497 144.113 25.7515C144.113 25.0728 144.367 24.5405 144.875 24.1548C145.382 23.7642 146.115 23.5396 147.072 23.481L149.284 23.3491V22.6899C149.284 22.2017 149.127 21.8257 148.815 21.562C148.502 21.2983 148.056 21.1665 147.475 21.1665C147.016 21.1665 146.627 21.2764 146.31 21.4961C145.998 21.7158 145.802 22.0112 145.724 22.3823H144.501C144.521 21.7183 144.816 21.1616 145.387 20.7124C145.958 20.2583 146.659 20.0312 147.489 20.0312C148.422 20.0312 149.167 20.2632 149.723 20.7271C150.28 21.186 150.558 21.8037 150.558 22.5801V28H149.35V26.6304H149.32C149.096 27.0698 148.754 27.4214 148.295 27.6851C147.836 27.9438 147.331 28.0732 146.779 28.0732ZM148.083 16.9624L149.994 18.8447H148.815L147.482 17.5264H147.438L146.105 18.8447H144.926L146.837 16.9624H148.083ZM148.705 16.6475L149.994 14.4575H151.225L149.657 16.6475H148.705ZM152.25 28V20.1045H153.451V21.3862H153.48C153.666 20.9663 153.957 20.6367 154.352 20.3975C154.752 20.1533 155.209 20.0312 155.722 20.0312C156.254 20.0312 156.713 20.1606 157.099 20.4194C157.484 20.6782 157.763 21.0469 157.934 21.5254H157.963C158.188 21.0566 158.52 20.6904 158.959 20.4268C159.398 20.1631 159.894 20.0312 160.446 20.0312C161.227 20.0312 161.85 20.2656 162.313 20.7344C162.782 21.2031 163.017 21.8281 163.017 22.6094V28H161.742V22.9023C161.742 22.3555 161.596 21.9307 161.303 21.6279C161.015 21.3203 160.607 21.1665 160.08 21.1665C159.552 21.1665 159.118 21.3423 158.776 21.6938C158.439 22.0454 158.271 22.4922 158.271 23.0342V28H156.996V22.7485C156.996 22.27 156.845 21.8867 156.542 21.5986C156.244 21.3105 155.849 21.1665 155.355 21.1665C154.828 21.1665 154.391 21.3521 154.044 21.7231C153.698 22.0894 153.524 22.5483 153.524 23.1001V28H152.25ZM168.173 22.3091C168.173 21.645 168.444 21.1006 168.986 20.6758C169.533 20.251 170.236 20.0386 171.095 20.0386C171.896 20.0386 172.567 20.2534 173.109 20.6831C173.656 21.1079 173.942 21.645 173.966 22.2944H172.743C172.704 21.9233 172.533 21.6304 172.23 21.4155C171.928 21.2007 171.535 21.0933 171.051 21.0933C170.563 21.0933 170.17 21.1982 169.872 21.4082C169.574 21.6182 169.425 21.8965 169.425 22.2432C169.425 22.7705 169.87 23.144 170.758 23.3638L171.959 23.6641C172.755 23.8643 173.314 24.123 173.637 24.4404C173.964 24.7529 174.127 25.1973 174.127 25.7734C174.127 26.4473 173.834 26.999 173.249 27.4287C172.667 27.8584 171.92 28.0732 171.007 28.0732C170.158 28.0732 169.452 27.8633 168.891 27.4434C168.329 27.0186 168.017 26.4644 167.953 25.7808H169.235C169.298 26.1812 169.489 26.4888 169.806 26.7036C170.128 26.9136 170.558 27.0186 171.095 27.0186C171.632 27.0186 172.057 26.916 172.37 26.7109C172.687 26.501 172.846 26.2178 172.846 25.8613C172.846 25.583 172.753 25.3633 172.567 25.2021C172.382 25.0361 172.064 24.8945 171.615 24.7773L170.231 24.4185C168.859 24.062 168.173 23.3589 168.173 22.3091ZM177.943 17.5264V16.7573C178.236 16.6353 178.563 16.5742 178.925 16.5742C179.34 16.5742 179.672 16.6914 179.921 16.9258C180.175 17.1553 180.302 17.4653 180.302 17.856C180.302 18.1636 180.194 18.4492 179.979 18.7129C179.765 18.9717 179.477 19.1646 179.115 19.2915L178.668 18.6763C179.118 18.5249 179.342 18.2686 179.342 17.9072C179.342 17.751 179.279 17.6191 179.152 17.5117C179.025 17.4043 178.871 17.3506 178.69 17.3506C178.466 17.3506 178.217 17.4092 177.943 17.5264ZM180.866 26.6963C180.368 27.6143 179.506 28.0732 178.28 28.0732C177.416 28.0732 176.732 27.8145 176.229 27.2969C175.727 26.7744 175.475 26.064 175.475 25.1655V20.1045H176.75V24.9458C176.75 25.5903 176.913 26.0835 177.24 26.4253C177.572 26.7671 178.048 26.938 178.668 26.938C179.318 26.938 179.838 26.7329 180.229 26.3228C180.624 25.9126 180.822 25.3682 180.822 24.6895V20.1045H182.096V20.8369C182.282 21.0078 182.514 21.0933 182.792 21.0933C183.109 21.0933 183.336 20.9956 183.473 20.8003C183.61 20.6001 183.678 20.2754 183.678 19.8262V18.6836H184.843V20.1777C184.843 20.7539 184.674 21.2227 184.337 21.584C184.005 21.9404 183.571 22.1187 183.034 22.1187C182.667 22.1187 182.355 22.0259 182.096 21.8403V28H180.895V26.6963H180.866ZM192.555 28.0732C191.559 28.0732 190.746 27.7046 190.116 26.9673C189.486 26.2251 189.171 25.2534 189.171 24.0522C189.171 22.856 189.484 21.8867 190.109 21.1445C190.734 20.4023 191.54 20.0312 192.526 20.0312C193.087 20.0312 193.585 20.1484 194.02 20.3828C194.459 20.6172 194.801 20.9517 195.045 21.3862H195.075V16.9697H196.349V28H195.133V26.667H195.111C194.853 27.1211 194.503 27.4702 194.064 27.7144C193.629 27.9536 193.126 28.0732 192.555 28.0732ZM192.782 21.1665C192.089 21.1665 191.53 21.4302 191.105 21.9575C190.685 22.4849 190.475 23.1831 190.475 24.0522C190.475 24.9263 190.685 25.627 191.105 26.1543C191.53 26.6768 192.089 26.938 192.782 26.938C193.466 26.938 194.02 26.6719 194.445 26.1396C194.87 25.6074 195.082 24.9116 195.082 24.0522C195.082 23.1929 194.87 22.4971 194.445 21.9648C194.02 21.4326 193.466 21.1665 192.782 21.1665ZM204.743 20.1045V28H203.542V26.6963H203.512C203.014 27.6143 202.152 28.0732 200.927 28.0732C200.062 28.0732 199.379 27.8145 198.876 27.2969C198.373 26.7744 198.122 26.064 198.122 25.1655V20.1045H199.396V24.9458C199.396 25.5903 199.56 26.0835 199.887 26.4253C200.219 26.7671 200.695 26.938 201.315 26.938C201.964 26.938 202.484 26.7329 202.875 26.3228C203.271 25.9126 203.468 25.3682 203.468 24.6895V20.1045H204.743ZM202.055 30.6074C201.884 30.7832 201.676 30.8711 201.432 30.8711C201.188 30.8711 200.978 30.7832 200.802 30.6074C200.631 30.4365 200.546 30.229 200.546 29.9849C200.546 29.7407 200.631 29.5308 200.802 29.355C200.978 29.1841 201.188 29.0986 201.432 29.0986C201.676 29.0986 201.884 29.1841 202.055 29.355C202.23 29.5308 202.318 29.7407 202.318 29.9849C202.318 30.229 202.23 30.4365 202.055 30.6074ZM206.479 28V20.1045H207.68V21.3862H207.709C208.212 20.4829 209.071 20.0312 210.287 20.0312C211.156 20.0312 211.842 20.2925 212.345 20.8149C212.848 21.3325 213.1 22.0405 213.1 22.939V28H211.825V23.1587C211.825 22.5142 211.659 22.021 211.327 21.6792C211 21.3374 210.526 21.1665 209.906 21.1665C209.257 21.1665 208.734 21.3716 208.339 21.7817C207.948 22.1919 207.753 22.7363 207.753 23.415V28H206.479ZM217.992 26.8647C218.686 26.8647 219.245 26.6035 219.669 26.0811C220.099 25.5537 220.314 24.8677 220.314 24.0229C220.314 23.1733 220.099 22.4849 219.669 21.9575C219.245 21.4302 218.686 21.1665 217.992 21.1665C217.304 21.1665 216.752 21.4277 216.337 21.9502C215.922 22.4678 215.714 23.1587 215.714 24.0229C215.714 24.8823 215.922 25.5708 216.337 26.0884C216.752 26.606 217.304 26.8647 217.992 26.8647ZM218.014 30.8198C217.121 30.8198 216.376 30.6196 215.78 30.2192C215.185 29.8237 214.84 29.2988 214.748 28.6445H216.073C216.166 28.9717 216.393 29.2305 216.754 29.4209C217.121 29.6162 217.565 29.7139 218.087 29.7139C218.771 29.7139 219.313 29.5479 219.713 29.2158C220.114 28.8887 220.314 28.4443 220.314 27.8828V26.645H220.285C220.036 27.0747 219.689 27.4092 219.245 27.6484C218.8 27.8828 218.302 28 217.75 28C216.75 28 215.941 27.6362 215.326 26.9087C214.716 26.1763 214.411 25.2144 214.411 24.0229C214.411 22.8169 214.718 21.8501 215.333 21.1226C215.949 20.395 216.764 20.0312 217.78 20.0312C218.336 20.0312 218.837 20.1484 219.281 20.3828C219.73 20.6172 220.087 20.9517 220.351 21.3862H220.373V20.1045H221.588V27.7803C221.588 28.7227 221.269 29.4648 220.629 30.0068C219.994 30.5488 219.123 30.8198 218.014 30.8198ZM231.425 28.1758C229.965 28.1758 228.805 27.6851 227.946 26.7036C227.091 25.7173 226.664 24.3867 226.664 22.7119C226.664 21.0518 227.096 19.7285 227.96 18.7422C228.825 17.751 229.979 17.2554 231.425 17.2554C232.577 17.2554 233.554 17.5776 234.354 18.2222C235.16 18.8618 235.646 19.709 235.812 20.7637H234.479C234.308 20.0703 233.944 19.5161 233.388 19.1011C232.831 18.6812 232.177 18.4712 231.425 18.4712C230.395 18.4712 229.569 18.8569 228.949 19.6284C228.329 20.3999 228.019 21.4277 228.019 22.7119C228.019 24.0107 228.327 25.0435 228.942 25.8101C229.557 26.5767 230.387 26.96 231.432 26.96C232.208 26.96 232.863 26.7817 233.395 26.4253C233.927 26.0688 234.289 25.5684 234.479 24.9238H235.812C235.568 25.9688 235.067 26.772 234.311 27.3335C233.554 27.895 232.592 28.1758 231.425 28.1758ZM247.787 17.4312V28H246.557V19.8555H246.505L243.136 27.9268H242.023L238.654 19.8555H238.603V28H237.372V17.4312H238.903L242.55 26.2495H242.609L246.256 17.4312H247.787ZM251.142 28H249.838V17.4312H251.12L256.906 25.7295H256.972V17.4312H258.275V28H256.994L251.208 19.731H251.142V28ZM260.326 17.4312H263.952C265.519 17.4312 266.742 17.8975 267.621 18.8301C268.5 19.7578 268.939 21.0518 268.939 22.7119C268.939 24.377 268.5 25.6758 267.621 26.6084C266.747 27.5361 265.524 28 263.952 28H260.326V17.4312ZM261.645 18.6177V26.8135H263.864C265.06 26.8135 265.98 26.4619 266.625 25.7588C267.27 25.0508 267.592 24.04 267.592 22.7266C267.592 21.4033 267.27 20.3877 266.625 19.6797C265.985 18.9717 265.065 18.6177 263.864 18.6177H261.645ZM270.258 30.4097H269.188L272.418 17.4238H273.51L270.258 30.4097ZM278.886 28.1758C277.426 28.1758 276.266 27.6851 275.407 26.7036C274.552 25.7173 274.125 24.3867 274.125 22.7119C274.125 21.0518 274.557 19.7285 275.421 18.7422C276.286 17.751 277.44 17.2554 278.886 17.2554C280.038 17.2554 281.015 17.5776 281.815 18.2222C282.621 18.8618 283.107 19.709 283.273 20.7637H281.94C281.769 20.0703 281.405 19.5161 280.849 19.1011C280.292 18.6812 279.638 18.4712 278.886 18.4712C277.855 18.4712 277.03 18.8569 276.41 19.6284C275.79 20.3999 275.48 21.4277 275.48 22.7119C275.48 24.0107 275.788 25.0435 276.403 25.8101C277.018 26.5767 277.848 26.96 278.893 26.96C279.669 26.96 280.324 26.7817 280.856 26.4253C281.388 26.0688 281.75 25.5684 281.94 24.9238H283.273C283.029 25.9688 282.528 26.772 281.771 27.3335C281.015 27.895 280.053 28.1758 278.886 28.1758ZM289.184 28.1758C287.724 28.1758 286.564 27.6851 285.705 26.7036C284.85 25.7173 284.423 24.3867 284.423 22.7119C284.423 21.0518 284.855 19.7285 285.719 18.7422C286.583 17.751 287.738 17.2554 289.184 17.2554C290.336 17.2554 291.312 17.5776 292.113 18.2222C292.919 18.8618 293.405 19.709 293.571 20.7637H292.238C292.067 20.0703 291.703 19.5161 291.146 19.1011C290.59 18.6812 289.936 18.4712 289.184 18.4712C288.153 18.4712 287.328 18.8569 286.708 19.6284C286.088 20.3999 285.778 21.4277 285.778 22.7119C285.778 24.0107 286.085 25.0435 286.701 25.8101C287.316 26.5767 288.146 26.96 289.191 26.96C289.967 26.96 290.622 26.7817 291.154 26.4253C291.686 26.0688 292.047 25.5684 292.238 24.9238H293.571C293.327 25.9688 292.826 26.772 292.069 27.3335C291.312 27.895 290.351 28.1758 289.184 28.1758ZM299.481 28.1758C298.021 28.1758 296.862 27.6851 296.002 26.7036C295.148 25.7173 294.721 24.3867 294.721 22.7119C294.721 21.0518 295.153 19.7285 296.017 18.7422C296.881 17.751 298.036 17.2554 299.481 17.2554C300.634 17.2554 301.61 17.5776 302.411 18.2222C303.217 18.8618 303.703 19.709 303.869 20.7637H302.536C302.365 20.0703 302.001 19.5161 301.444 19.1011C300.888 18.6812 300.233 18.4712 299.481 18.4712C298.451 18.4712 297.626 18.8569 297.006 19.6284C296.386 20.3999 296.076 21.4277 296.076 22.7119C296.076 24.0107 296.383 25.0435 296.999 25.8101C297.614 26.5767 298.444 26.96 299.489 26.96C300.265 26.96 300.919 26.7817 301.452 26.4253C301.984 26.0688 302.345 25.5684 302.536 24.9238H303.869C303.625 25.9688 303.124 26.772 302.367 27.3335C301.61 27.895 300.648 28.1758 299.481 28.1758ZM305.429 17.4312H309.054C310.622 17.4312 311.845 17.8975 312.724 18.8301C313.603 19.7578 314.042 21.0518 314.042 22.7119C314.042 24.377 313.603 25.6758 312.724 26.6084C311.85 27.5361 310.626 28 309.054 28H305.429V17.4312ZM306.747 18.6177V26.8135H308.966C310.163 26.8135 311.083 26.4619 311.728 25.7588C312.372 25.0508 312.694 24.04 312.694 22.7266C312.694 21.4033 312.372 20.3877 311.728 19.6797C311.088 18.9717 310.167 18.6177 308.966 18.6177H306.747ZM40.0576 47.8647C40.751 47.8647 41.3101 47.6035 41.7349 47.0811C42.1646 46.5537 42.3794 45.8677 42.3794 45.0229C42.3794 44.1733 42.1646 43.4849 41.7349 42.9575C41.3101 42.4302 40.751 42.1665 40.0576 42.1665C39.3691 42.1665 38.8174 42.4277 38.4023 42.9502C37.9873 43.4678 37.7798 44.1587 37.7798 45.0229C37.7798 45.8823 37.9873 46.5708 38.4023 47.0884C38.8174 47.606 39.3691 47.8647 40.0576 47.8647ZM40.0796 51.8198C39.186 51.8198 38.4414 51.6196 37.8457 51.2192C37.25 50.8237 36.9058 50.2988 36.813 49.6445H38.1387C38.2314 49.9717 38.4585 50.2305 38.8198 50.4209C39.186 50.6162 39.6304 50.7139 40.1528 50.7139C40.8364 50.7139 41.3784 50.5479 41.7788 50.2158C42.1792 49.8887 42.3794 49.4443 42.3794 48.8828V47.645H42.3501C42.1011 48.0747 41.7544 48.4092 41.3101 48.6484C40.8657 48.8828 40.3677 49 39.8159 49C38.8149 49 38.0068 48.6362 37.3916 47.9087C36.7812 47.1763 36.4761 46.2144 36.4761 45.0229C36.4761 43.8169 36.7837 42.8501 37.3989 42.1226C38.0142 41.395 38.8296 41.0312 39.8452 41.0312C40.4019 41.0312 40.9023 41.1484 41.3467 41.3828C41.7959 41.6172 42.1523 41.9517 42.416 42.3862H42.438V41.1045H43.6538V48.7803C43.6538 49.7227 43.334 50.4648 42.6943 51.0068C42.0596 51.5488 41.188 51.8198 40.0796 51.8198ZM45.4629 49V41.1045H46.7373V49H45.4629ZM46.1001 39.8301C45.8804 39.8301 45.6899 39.752 45.5288 39.5957C45.3726 39.4346 45.2944 39.2441 45.2944 39.0244C45.2944 38.7998 45.3726 38.6094 45.5288 38.4531C45.6899 38.2969 45.8804 38.2188 46.1001 38.2188C46.3247 38.2188 46.5151 38.2969 46.6714 38.4531C46.8276 38.6094 46.9058 38.7998 46.9058 39.0244C46.9058 39.2441 46.8276 39.4346 46.6714 39.5957C46.5151 39.752 46.3247 39.8301 46.1001 39.8301ZM51.1172 47.9673C51.7617 47.9673 52.2939 47.7817 52.7139 47.4106C53.1387 47.0347 53.3511 46.5635 53.3511 45.9971V45.3599L51.2856 45.4917C50.0845 45.5649 49.4839 45.9873 49.4839 46.7588C49.4839 47.125 49.6304 47.418 49.9233 47.6377C50.2212 47.8574 50.6191 47.9673 51.1172 47.9673ZM50.8462 49.0732C50.0454 49.0732 49.4009 48.8608 48.9126 48.436C48.4243 48.0112 48.1802 47.4497 48.1802 46.7515C48.1802 46.0728 48.4341 45.5405 48.9419 45.1548C49.4497 44.7642 50.1821 44.5396 51.1392 44.481L53.3511 44.3491V43.6899C53.3511 43.2017 53.1948 42.8257 52.8823 42.562C52.5698 42.2983 52.123 42.1665 51.542 42.1665C51.083 42.1665 50.6948 42.2764 50.3774 42.4961C50.0649 42.7158 49.8696 43.0112 49.7915 43.3823H48.5684C48.5879 42.7183 48.8833 42.1616 49.4546 41.7124C50.0259 41.2583 50.7266 41.0312 51.5566 41.0312C52.4893 41.0312 53.2339 41.2632 53.7905 41.7271C54.3472 42.186 54.6255 42.8037 54.6255 43.5801V49H53.417V47.6304H53.3877C53.1631 48.0698 52.8213 48.4214 52.3623 48.6851C51.9033 48.9438 51.3979 49.0732 50.8462 49.0732ZM50.6851 38.5264V37.7573C50.978 37.6353 51.3052 37.5742 51.6665 37.5742C52.0815 37.5742 52.4136 37.6914 52.6626 37.9258C52.9165 38.1553 53.0435 38.4653 53.0435 38.856C53.0435 39.1636 52.936 39.4492 52.7212 39.7129C52.5063 39.9717 52.2183 40.1646 51.8569 40.2915L51.4102 39.6763C51.8594 39.5249 52.084 39.2686 52.084 38.9072C52.084 38.751 52.0205 38.6191 51.8936 38.5117C51.7666 38.4043 51.6128 38.3506 51.4321 38.3506C51.2075 38.3506 50.9585 38.4092 50.6851 38.5264ZM59.9062 49V41.1045H61.1074V42.3862H61.1367C61.3223 41.9663 61.6128 41.6367 62.0083 41.3975C62.4087 41.1533 62.8652 41.0312 63.3779 41.0312C63.9102 41.0312 64.3691 41.1606 64.7549 41.4194C65.1406 41.6782 65.4189 42.0469 65.5898 42.5254H65.6191C65.8438 42.0566 66.1758 41.6904 66.6152 41.4268C67.0547 41.1631 67.5503 41.0312 68.1021 41.0312C68.8833 41.0312 69.5059 41.2656 69.9697 41.7344C70.4385 42.2031 70.6729 42.8281 70.6729 43.6094V49H69.3984V43.9023C69.3984 43.3555 69.252 42.9307 68.959 42.6279C68.6709 42.3203 68.2632 42.1665 67.7358 42.1665C67.2085 42.1665 66.7739 42.3423 66.4321 42.6938C66.0952 43.0454 65.9268 43.4922 65.9268 44.0342V49H64.6523V43.7485C64.6523 43.27 64.501 42.8867 64.1982 42.5986C63.9004 42.3105 63.5049 42.1665 63.0117 42.1665C62.4844 42.1665 62.0474 42.3521 61.7007 42.7231C61.354 43.0894 61.1807 43.5483 61.1807 44.1001V49H59.9062ZM74.9502 47.9673C75.5947 47.9673 76.127 47.7817 76.5469 47.4106C76.9717 47.0347 77.1841 46.5635 77.1841 45.9971V45.3599L75.1187 45.4917C73.9175 45.5649 73.3169 45.9873 73.3169 46.7588C73.3169 47.125 73.4634 47.418 73.7563 47.6377C74.0542 47.8574 74.4521 47.9673 74.9502 47.9673ZM74.6792 49.0732C73.8784 49.0732 73.2339 48.8608 72.7456 48.436C72.2573 48.0112 72.0132 47.4497 72.0132 46.7515C72.0132 46.0728 72.2671 45.5405 72.7749 45.1548C73.2827 44.7642 74.0151 44.5396 74.9722 44.481L77.1841 44.3491V43.6899C77.1841 43.2017 77.0278 42.8257 76.7153 42.562C76.4028 42.2983 75.9561 42.1665 75.375 42.1665C74.916 42.1665 74.5278 42.2764 74.2104 42.4961C73.8979 42.7158 73.7026 43.0112 73.6245 43.3823H72.4014C72.4209 42.7183 72.7163 42.1616 73.2876 41.7124C73.8589 41.2583 74.5596 41.0312 75.3896 41.0312C76.3223 41.0312 77.0669 41.2632 77.6235 41.7271C78.1802 42.186 78.4585 42.8037 78.4585 43.5801V49H77.25V47.6304H77.2207C76.9961 48.0698 76.6543 48.4214 76.1953 48.6851C75.7363 48.9438 75.231 49.0732 74.6792 49.0732ZM75.8804 51.6074C75.7095 51.7832 75.502 51.8711 75.2578 51.8711C75.0137 51.8711 74.8037 51.7832 74.6279 51.6074C74.457 51.4365 74.3716 51.229 74.3716 50.9849C74.3716 50.7407 74.457 50.5308 74.6279 50.355C74.8037 50.1841 75.0137 50.0986 75.2578 50.0986C75.502 50.0986 75.7095 50.1841 75.8804 50.355C76.0562 50.5308 76.144 50.7407 76.144 50.9849C76.144 51.229 76.0562 51.4365 75.8804 51.6074ZM86.0537 47.9819C85.3945 48.7095 84.5107 49.0732 83.4023 49.0732C82.2939 49.0732 81.4102 48.7095 80.751 47.9819C80.0918 47.2544 79.7622 46.2778 79.7622 45.0522C79.7622 43.8267 80.0918 42.8501 80.751 42.1226C81.4102 41.395 82.2939 41.0312 83.4023 41.0312C84.5107 41.0312 85.3945 41.395 86.0537 42.1226C86.7129 42.8501 87.0425 43.8267 87.0425 45.0522C87.0425 46.2778 86.7129 47.2544 86.0537 47.9819ZM83.4023 47.938C84.1396 47.938 84.7134 47.6841 85.1235 47.1763C85.5386 46.6636 85.7461 45.9556 85.7461 45.0522C85.7461 44.144 85.5386 43.436 85.1235 42.9282C84.7134 42.4204 84.1396 42.1665 83.4023 42.1665C82.665 42.1665 82.0889 42.4229 81.6738 42.9355C81.2637 43.4434 81.0586 44.1489 81.0586 45.0522C81.0586 45.9556 81.2661 46.6636 81.6812 47.1763C82.0962 47.6841 82.6699 47.938 83.4023 47.938ZM88.793 50.8823H87.8042L88.5366 47.5205H89.8916L88.793 50.8823ZM96.8203 44.6348L100.358 41.1045H101.911L98.4609 44.5176L102.013 49H100.534L97.5674 45.3013L96.8203 46.0044V49H95.5459V37.9697H96.8203V44.6348ZM103.061 49V37.9697H104.335V42.3862H104.364C104.862 41.4829 105.722 41.0312 106.942 41.0312C107.807 41.0312 108.505 41.2998 109.037 41.8369C109.569 42.374 109.835 43.082 109.835 43.9609V49H108.561V44.188C108.561 43.5581 108.383 43.0649 108.026 42.7085C107.675 42.3472 107.187 42.1665 106.562 42.1665C105.893 42.1665 105.353 42.3765 104.943 42.7964C104.538 43.2163 104.335 43.7705 104.335 44.459V49H103.061ZM117.431 47.9819C116.771 48.7095 115.888 49.0732 114.779 49.0732C113.671 49.0732 112.787 48.7095 112.128 47.9819C111.469 47.2544 111.139 46.2778 111.139 45.0522C111.139 43.8267 111.469 42.8501 112.128 42.1226C112.787 41.395 113.671 41.0312 114.779 41.0312C115.888 41.0312 116.771 41.395 117.431 42.1226C118.09 42.8501 118.419 43.8267 118.419 45.0522C118.419 46.2778 118.09 47.2544 117.431 47.9819ZM114.779 47.938C115.517 47.938 116.09 47.6841 116.5 47.1763C116.916 46.6636 117.123 45.9556 117.123 45.0522C117.123 44.144 116.916 43.436 116.5 42.9282C116.09 42.4204 115.517 42.1665 114.779 42.1665C114.042 42.1665 113.466 42.4229 113.051 42.9355C112.641 43.4434 112.436 44.1489 112.436 45.0522C112.436 45.9556 112.643 46.6636 113.058 47.1763C113.473 47.6841 114.047 47.938 114.779 47.938ZM115.233 37.6475L117.262 39.8447H116.068L114.801 38.4019H114.757L113.49 39.8447H112.296L114.325 37.6475H115.233ZM119.76 49V41.1045H120.961V42.3862H120.99C121.493 41.4829 122.353 41.0312 123.568 41.0312C124.438 41.0312 125.124 41.2925 125.626 41.8149C126.129 42.3325 126.381 43.0405 126.381 43.939V49H125.106V44.1587C125.106 43.5142 124.94 43.021 124.608 42.6792C124.281 42.3374 123.808 42.1665 123.188 42.1665C122.538 42.1665 122.016 42.3716 121.62 42.7817C121.229 43.1919 121.034 43.7363 121.034 44.415V49H119.76ZM131.273 47.8647C131.967 47.8647 132.526 47.6035 132.951 47.0811C133.38 46.5537 133.595 45.8677 133.595 45.0229C133.595 44.1733 133.38 43.4849 132.951 42.9575C132.526 42.4302 131.967 42.1665 131.273 42.1665C130.585 42.1665 130.033 42.4277 129.618 42.9502C129.203 43.4678 128.996 44.1587 128.996 45.0229C128.996 45.8823 129.203 46.5708 129.618 47.0884C130.033 47.606 130.585 47.8647 131.273 47.8647ZM131.295 51.8198C130.402 51.8198 129.657 51.6196 129.062 51.2192C128.466 50.8237 128.122 50.2988 128.029 49.6445H129.354C129.447 49.9717 129.674 50.2305 130.036 50.4209C130.402 50.6162 130.846 50.7139 131.369 50.7139C132.052 50.7139 132.594 50.5479 132.995 50.2158C133.395 49.8887 133.595 49.4443 133.595 48.8828V47.645H133.566C133.317 48.0747 132.97 48.4092 132.526 48.6484C132.082 48.8828 131.583 49 131.032 49C130.031 49 129.223 48.6362 128.607 47.9087C127.997 47.1763 127.692 46.2144 127.692 45.0229C127.692 43.8169 128 42.8501 128.615 42.1226C129.23 41.395 130.045 41.0312 131.061 41.0312C131.618 41.0312 132.118 41.1484 132.562 41.3828C133.012 41.6172 133.368 41.9517 133.632 42.3862H133.654V41.1045H134.87V48.7803C134.87 49.7227 134.55 50.4648 133.91 51.0068C133.275 51.5488 132.404 51.8198 131.295 51.8198ZM146.72 43.6753H145.468C145.385 43.231 145.165 42.8696 144.809 42.5913C144.452 42.3081 143.988 42.1665 143.417 42.1665C142.724 42.1665 142.165 42.4302 141.74 42.9575C141.315 43.4849 141.103 44.1831 141.103 45.0522C141.103 45.9409 141.315 46.644 141.74 47.1616C142.169 47.6792 142.733 47.938 143.432 47.938C143.983 47.938 144.435 47.8135 144.787 47.5645C145.143 47.3105 145.375 46.9468 145.482 46.4731H146.735C146.627 47.2495 146.271 47.877 145.666 48.3555C145.065 48.834 144.318 49.0732 143.424 49.0732C142.331 49.0732 141.454 48.7119 140.795 47.9893C140.136 47.2617 139.806 46.2827 139.806 45.0522C139.806 43.8413 140.136 42.8696 140.795 42.1372C141.454 41.3999 142.326 41.0312 143.41 41.0312C144.342 41.0312 145.106 41.29 145.702 41.8076C146.298 42.3203 146.637 42.9429 146.72 43.6753ZM148.031 49V37.9697H149.306V42.3862H149.335C149.833 41.4829 150.692 41.0312 151.913 41.0312C152.777 41.0312 153.476 41.2998 154.008 41.8369C154.54 42.374 154.806 43.082 154.806 43.9609V49H153.532V44.188C153.532 43.5581 153.354 43.0649 152.997 42.7085C152.646 42.3472 152.157 42.1665 151.532 42.1665C150.863 42.1665 150.324 42.3765 149.914 42.7964C149.508 43.2163 149.306 43.7705 149.306 44.459V49H148.031ZM156.571 49V41.1045H157.846V49H156.571ZM157.75 39.8447H156.667L158.212 37.6475H159.662L157.75 39.8447ZM159.647 49V41.1045H160.849V42.3862H160.878C161.381 41.4829 162.24 41.0312 163.456 41.0312C164.325 41.0312 165.011 41.2925 165.514 41.8149C166.017 42.3325 166.269 43.0405 166.269 43.939V49H164.994V44.1587C164.994 43.5142 164.828 43.021 164.496 42.6792C164.169 42.3374 163.695 42.1665 163.075 42.1665C162.426 42.1665 161.903 42.3716 161.508 42.7817C161.117 43.1919 160.922 43.7363 160.922 44.415V49H159.647ZM168.041 49V37.9697H169.315V42.3862H169.345C169.843 41.4829 170.702 41.0312 171.923 41.0312C172.787 41.0312 173.485 41.2998 174.018 41.8369C174.55 42.374 174.816 43.082 174.816 43.9609V49H173.542V44.188C173.542 43.5581 173.363 43.0649 173.007 42.7085C172.655 42.3472 172.167 42.1665 171.542 42.1665C170.873 42.1665 170.333 42.3765 169.923 42.7964C169.518 43.2163 169.315 43.7705 169.315 44.459V49H168.041ZM186.623 43.6753H185.37C185.287 43.231 185.067 42.8696 184.711 42.5913C184.354 42.3081 183.891 42.1665 183.319 42.1665C182.626 42.1665 182.067 42.4302 181.642 42.9575C181.217 43.4849 181.005 44.1831 181.005 45.0522C181.005 45.9409 181.217 46.644 181.642 47.1616C182.072 47.6792 182.636 47.938 183.334 47.938C183.886 47.938 184.337 47.8135 184.689 47.5645C185.045 47.3105 185.277 46.9468 185.385 46.4731H186.637C186.53 47.2495 186.173 47.877 185.568 48.3555C184.967 48.834 184.22 49.0732 183.327 49.0732C182.233 49.0732 181.356 48.7119 180.697 47.9893C180.038 47.2617 179.708 46.2827 179.708 45.0522C179.708 43.8413 180.038 42.8696 180.697 42.1372C181.356 41.3999 182.228 41.0312 183.312 41.0312C184.245 41.0312 185.009 41.29 185.604 41.8076C186.2 42.3203 186.54 42.9429 186.623 43.6753ZM187.934 49V37.9697H189.208V42.3862H189.237C189.735 41.4829 190.595 41.0312 191.815 41.0312C192.68 41.0312 193.378 41.2998 193.91 41.8369C194.442 42.374 194.708 43.082 194.708 43.9609V49H193.434V44.188C193.434 43.5581 193.256 43.0649 192.899 42.7085C192.548 42.3472 192.06 42.1665 191.435 42.1665C190.766 42.1665 190.226 42.3765 189.816 42.7964C189.411 43.2163 189.208 43.7705 189.208 44.459V49H187.934ZM202.985 41.1045V49H201.784V47.6963H201.754C201.256 48.6143 200.395 49.0732 199.169 49.0732C198.305 49.0732 197.621 48.8145 197.118 48.2969C196.615 47.7744 196.364 47.064 196.364 46.1655V41.1045H197.638V45.9458C197.638 46.5903 197.802 47.0835 198.129 47.4253C198.461 47.7671 198.937 47.938 199.557 47.938C200.207 47.938 200.727 47.7329 201.117 47.3228C201.513 46.9126 201.71 46.3682 201.71 45.6895V41.1045H202.985ZM198.832 38.5264V37.7573C199.125 37.6353 199.452 37.5742 199.813 37.5742C200.229 37.5742 200.561 37.6914 200.81 37.9258C201.063 38.1553 201.19 38.4653 201.19 38.856C201.19 39.1636 201.083 39.4492 200.868 39.7129C200.653 39.9717 200.365 40.1646 200.004 40.2915L199.557 39.6763C200.006 39.5249 200.231 39.2686 200.231 38.9072C200.231 38.751 200.167 38.6191 200.041 38.5117C199.914 38.4043 199.76 38.3506 199.579 38.3506C199.354 38.3506 199.105 38.4092 198.832 38.5264ZM205.761 49.0732C205.526 49.0732 205.329 48.9927 205.167 48.8315C205.006 48.6704 204.926 48.4727 204.926 48.2383C204.926 47.999 205.006 47.8013 205.167 47.645C205.329 47.4839 205.526 47.4033 205.761 47.4033C206 47.4033 206.198 47.4839 206.354 47.645C206.515 47.8013 206.596 47.999 206.596 48.2383C206.596 48.4727 206.515 48.6704 206.354 48.8315C206.198 48.9927 206 49.0732 205.761 49.0732ZM213.598 49H212.279V38.4312H213.598V43.5874H213.671L218.336 38.4312H219.999L215.656 43.1113L220.387 49H218.703L214.74 44.0488L213.598 45.3086V49ZM221.42 49V37.9697H222.694V42.3862H222.724C223.222 41.4829 224.081 41.0312 225.302 41.0312C226.166 41.0312 226.864 41.2998 227.396 41.8369C227.929 42.374 228.195 43.082 228.195 43.9609V49H226.92V44.188C226.92 43.5581 226.742 43.0649 226.386 42.7085C226.034 42.3472 225.546 42.1665 224.921 42.1665C224.252 42.1665 223.712 42.3765 223.302 42.7964C222.897 43.2163 222.694 43.7705 222.694 44.459V49H221.42ZM232.465 47.9673C233.109 47.9673 233.642 47.7817 234.062 47.4106C234.486 47.0347 234.699 46.5635 234.699 45.9971V45.3599L232.633 45.4917C231.432 45.5649 230.832 45.9873 230.832 46.7588C230.832 47.125 230.978 47.418 231.271 47.6377C231.569 47.8574 231.967 47.9673 232.465 47.9673ZM232.194 49.0732C231.393 49.0732 230.749 48.8608 230.26 48.436C229.772 48.0112 229.528 47.4497 229.528 46.7515C229.528 46.0728 229.782 45.5405 230.29 45.1548C230.797 44.7642 231.53 44.5396 232.487 44.481L234.699 44.3491V43.6899C234.699 43.2017 234.542 42.8257 234.23 42.562C233.917 42.2983 233.471 42.1665 232.89 42.1665C232.431 42.1665 232.042 42.2764 231.725 42.4961C231.413 42.7158 231.217 43.0112 231.139 43.3823H229.916C229.936 42.7183 230.231 42.1616 230.802 41.7124C231.374 41.2583 232.074 41.0312 232.904 41.0312C233.837 41.0312 234.582 41.2632 235.138 41.7271C235.695 42.186 235.973 42.8037 235.973 43.5801V49H234.765V47.6304H234.735C234.511 48.0698 234.169 48.4214 233.71 48.6851C233.251 48.9438 232.746 49.0732 232.194 49.0732ZM233.417 39.8447H232.333L233.878 37.6475H235.329L233.417 39.8447ZM244.191 43.6753H242.938C242.855 43.231 242.636 42.8696 242.279 42.5913C241.923 42.3081 241.459 42.1665 240.888 42.1665C240.194 42.1665 239.635 42.4302 239.21 42.9575C238.786 43.4849 238.573 44.1831 238.573 45.0522C238.573 45.9409 238.786 46.644 239.21 47.1616C239.64 47.6792 240.204 47.938 240.902 47.938C241.454 47.938 241.906 47.8135 242.257 47.5645C242.614 47.3105 242.846 46.9468 242.953 46.4731H244.206C244.098 47.2495 243.742 47.877 243.136 48.3555C242.536 48.834 241.789 49.0732 240.895 49.0732C239.801 49.0732 238.925 48.7119 238.266 47.9893C237.606 47.2617 237.277 46.2827 237.277 45.0522C237.277 43.8413 237.606 42.8696 238.266 42.1372C238.925 41.3999 239.796 41.0312 240.88 41.0312C241.813 41.0312 242.577 41.29 243.173 41.8076C243.769 42.3203 244.108 42.9429 244.191 43.6753ZM245.502 49V37.9697H246.776V42.3862H246.806C247.304 41.4829 248.163 41.0312 249.384 41.0312C250.248 41.0312 250.946 41.2998 251.479 41.8369C252.011 42.374 252.277 43.082 252.277 43.9609V49H251.002V44.188C251.002 43.5581 250.824 43.0649 250.468 42.7085C250.116 42.3472 249.628 42.1665 249.003 42.1665C248.334 42.1665 247.794 42.3765 247.384 42.7964C246.979 43.2163 246.776 43.7705 246.776 44.459V49H245.502ZM257.631 49V37.9697H258.905V42.3862H258.935C259.433 41.4829 260.292 41.0312 261.513 41.0312C262.377 41.0312 263.075 41.2998 263.607 41.8369C264.14 42.374 264.406 43.082 264.406 43.9609V49H263.131V44.188C263.131 43.5581 262.953 43.0649 262.597 42.7085C262.245 42.3472 261.757 42.1665 261.132 42.1665C260.463 42.1665 259.923 42.3765 259.513 42.7964C259.108 43.2163 258.905 43.7705 258.905 44.459V49H257.631ZM268.676 47.9673C269.32 47.9673 269.853 47.7817 270.272 47.4106C270.697 47.0347 270.91 46.5635 270.91 45.9971V45.3599L268.844 45.4917C267.643 45.5649 267.042 45.9873 267.042 46.7588C267.042 47.125 267.189 47.418 267.482 47.6377C267.78 47.8574 268.178 47.9673 268.676 47.9673ZM268.405 49.0732C267.604 49.0732 266.959 48.8608 266.471 48.436C265.983 48.0112 265.739 47.4497 265.739 46.7515C265.739 46.0728 265.993 45.5405 266.5 45.1548C267.008 44.7642 267.741 44.5396 268.698 44.481L270.91 44.3491V43.6899C270.91 43.2017 270.753 42.8257 270.441 42.562C270.128 42.2983 269.682 42.1665 269.101 42.1665C268.642 42.1665 268.253 42.2764 267.936 42.4961C267.624 42.7158 267.428 43.0112 267.35 43.3823H266.127C266.146 42.7183 266.442 42.1616 267.013 41.7124C267.584 41.2583 268.285 41.0312 269.115 41.0312C270.048 41.0312 270.792 41.2632 271.349 41.7271C271.906 42.186 272.184 42.8037 272.184 43.5801V49H270.976V47.6304H270.946C270.722 48.0698 270.38 48.4214 269.921 48.6851C269.462 48.9438 268.957 49.0732 268.405 49.0732ZM269.562 39.8447H268.478L266.566 37.6475H268.017L269.562 39.8447ZM273.876 49V41.1045H275.077V42.3862H275.106C275.609 41.4829 276.469 41.0312 277.685 41.0312C278.554 41.0312 279.24 41.2925 279.743 41.8149C280.246 42.3325 280.497 43.0405 280.497 43.939V49H279.223V44.1587C279.223 43.5142 279.057 43.021 278.725 42.6792C278.397 42.3374 277.924 42.1665 277.304 42.1665C276.654 42.1665 276.132 42.3716 275.736 42.7817C275.346 43.1919 275.15 43.7363 275.15 44.415V49H273.876ZM285.39 47.8647C286.083 47.8647 286.642 47.6035 287.067 47.0811C287.497 46.5537 287.711 45.8677 287.711 45.0229C287.711 44.1733 287.497 43.4849 287.067 42.9575C286.642 42.4302 286.083 42.1665 285.39 42.1665C284.701 42.1665 284.149 42.4277 283.734 42.9502C283.319 43.4678 283.112 44.1587 283.112 45.0229C283.112 45.8823 283.319 46.5708 283.734 47.0884C284.149 47.606 284.701 47.8647 285.39 47.8647ZM285.412 51.8198C284.518 51.8198 283.773 51.6196 283.178 51.2192C282.582 50.8237 282.238 50.2988 282.145 49.6445H283.471C283.563 49.9717 283.791 50.2305 284.152 50.4209C284.518 50.6162 284.962 50.7139 285.485 50.7139C286.168 50.7139 286.71 50.5479 287.111 50.2158C287.511 49.8887 287.711 49.4443 287.711 48.8828V47.645H287.682C287.433 48.0747 287.086 48.4092 286.642 48.6484C286.198 48.8828 285.7 49 285.148 49C284.147 49 283.339 48.6362 282.724 47.9087C282.113 47.1763 281.808 46.2144 281.808 45.0229C281.808 43.8169 282.116 42.8501 282.731 42.1226C283.346 41.395 284.162 41.0312 285.177 41.0312C285.734 41.0312 286.234 41.1484 286.679 41.3828C287.128 41.6172 287.484 41.9517 287.748 42.3862H287.77V41.1045H288.986V48.7803C288.986 49.7227 288.666 50.4648 288.026 51.0068C287.392 51.5488 286.52 51.8198 285.412 51.8198ZM300.836 43.6753H299.584C299.501 43.231 299.281 42.8696 298.925 42.5913C298.568 42.3081 298.104 42.1665 297.533 42.1665C296.84 42.1665 296.281 42.4302 295.856 42.9575C295.431 43.4849 295.219 44.1831 295.219 45.0522C295.219 45.9409 295.431 46.644 295.856 47.1616C296.286 47.6792 296.85 47.938 297.548 47.938C298.1 47.938 298.551 47.8135 298.903 47.5645C299.259 47.3105 299.491 46.9468 299.599 46.4731H300.851C300.744 47.2495 300.387 47.877 299.782 48.3555C299.181 48.834 298.434 49.0732 297.541 49.0732C296.447 49.0732 295.57 48.7119 294.911 47.9893C294.252 47.2617 293.922 46.2827 293.922 45.0522C293.922 43.8413 294.252 42.8696 294.911 42.1372C295.57 41.3999 296.442 41.0312 297.526 41.0312C298.458 41.0312 299.223 41.29 299.818 41.8076C300.414 42.3203 300.753 42.9429 300.836 43.6753ZM302.147 49V37.9697H303.422V42.3862H303.451C303.949 41.4829 304.809 41.0312 306.029 41.0312C306.894 41.0312 307.592 41.2998 308.124 41.8369C308.656 42.374 308.922 43.082 308.922 43.9609V49H307.648V44.188C307.648 43.5581 307.47 43.0649 307.113 42.7085C306.762 42.3472 306.273 42.1665 305.648 42.1665C304.979 42.1665 304.44 42.3765 304.03 42.7964C303.625 43.2163 303.422 43.7705 303.422 44.459V49H302.147ZM310.688 49V41.1045H311.962V49H310.688ZM311.325 39.8301C311.105 39.8301 310.915 39.752 310.753 39.5957C310.597 39.4346 310.519 39.2441 310.519 39.0244C310.519 38.7998 310.597 38.6094 310.753 38.4531C310.915 38.2969 311.105 38.2188 311.325 38.2188C311.549 38.2188 311.74 38.2969 311.896 38.4531C312.052 38.6094 312.13 38.7998 312.13 39.0244C312.13 39.2441 312.052 39.4346 311.896 39.5957C311.74 39.752 311.549 39.8301 311.325 39.8301ZM311.947 51.6074C311.776 51.7832 311.569 51.8711 311.325 51.8711C311.081 51.8711 310.871 51.7832 310.695 51.6074C310.524 51.4365 310.438 51.229 310.438 50.9849C310.438 50.7407 310.524 50.5308 310.695 50.355C310.871 50.1841 311.081 50.0986 311.325 50.0986C311.569 50.0986 311.776 50.1841 311.947 50.355C312.123 50.5308 312.211 50.7407 312.211 50.9849C312.211 51.229 312.123 51.4365 311.947 51.6074ZM320.348 41.1045V49H319.147V47.6963H319.118C318.62 48.6143 317.758 49.0732 316.532 49.0732C315.668 49.0732 314.984 48.8145 314.481 48.2969C313.979 47.7744 313.727 47.064 313.727 46.1655V41.1045H315.001V45.9458C315.001 46.5903 315.165 47.0835 315.492 47.4253C315.824 47.7671 316.3 47.938 316.92 47.938C317.57 47.938 318.09 47.7329 318.48 47.3228C318.876 46.9126 319.074 46.3682 319.074 45.6895V41.1045H320.348ZM36.9375 70V58.9697H38.2119V63.3862H38.2412C38.7393 62.4829 39.5986 62.0312 40.8193 62.0312C41.6836 62.0312 42.3818 62.2998 42.9141 62.8369C43.4463 63.374 43.7124 64.082 43.7124 64.9609V70H42.438V65.188C42.438 64.5581 42.2598 64.0649 41.9033 63.7085C41.5518 63.3472 41.0635 63.1665 40.4385 63.1665C39.7695 63.1665 39.23 63.3765 38.8198 63.7964C38.4146 64.2163 38.2119 64.7705 38.2119 65.459V70H36.9375ZM51.3076 68.9819C50.6484 69.7095 49.7646 70.0732 48.6562 70.0732C47.5479 70.0732 46.6641 69.7095 46.0049 68.9819C45.3457 68.2544 45.0161 67.2778 45.0161 66.0522C45.0161 64.8267 45.3457 63.8501 46.0049 63.1226C46.6641 62.395 47.5479 62.0312 48.6562 62.0312C49.7646 62.0312 50.6484 62.395 51.3076 63.1226C51.9668 63.8501 52.2964 64.8267 52.2964 66.0522C52.2964 67.2778 51.9668 68.2544 51.3076 68.9819ZM48.6562 68.938C49.3936 68.938 49.9673 68.6841 50.3774 68.1763C50.7925 67.6636 51 66.9556 51 66.0522C51 65.144 50.7925 64.436 50.3774 63.9282C49.9673 63.4204 49.3936 63.1665 48.6562 63.1665C47.9189 63.1665 47.3428 63.4229 46.9277 63.9355C46.5176 64.4434 46.3125 65.1489 46.3125 66.0522C46.3125 66.9556 46.52 67.6636 46.9351 68.1763C47.3501 68.6841 47.9238 68.938 48.6562 68.938ZM56.2148 68.9673C56.8594 68.9673 57.3916 68.7817 57.8115 68.4106C58.2363 68.0347 58.4487 67.5635 58.4487 66.9971V66.3599L56.3833 66.4917C55.1821 66.5649 54.5815 66.9873 54.5815 67.7588C54.5815 68.125 54.728 68.418 55.021 68.6377C55.3188 68.8574 55.7168 68.9673 56.2148 68.9673ZM55.9438 70.0732C55.1431 70.0732 54.4985 69.8608 54.0103 69.436C53.522 69.0112 53.2778 68.4497 53.2778 67.7515C53.2778 67.0728 53.5317 66.5405 54.0396 66.1548C54.5474 65.7642 55.2798 65.5396 56.2368 65.481L58.4487 65.3491V64.6899C58.4487 64.2017 58.2925 63.8257 57.98 63.562C57.6675 63.2983 57.2207 63.1665 56.6396 63.1665C56.1807 63.1665 55.7925 63.2764 55.4751 63.4961C55.1626 63.7158 54.9673 64.0112 54.8892 64.3823H53.666C53.6855 63.7183 53.981 63.1616 54.5522 62.7124C55.1235 62.2583 55.8242 62.0312 56.6543 62.0312C57.5869 62.0312 58.3315 62.2632 58.8882 62.7271C59.4448 63.186 59.7231 63.8037 59.7231 64.5801V70H58.5146V68.6304H58.4854C58.2607 69.0698 57.9189 69.4214 57.46 69.6851C57.001 69.9438 56.4956 70.0732 55.9438 70.0732ZM57.1011 60.8447H56.0171L54.1055 58.6475H55.5557L57.1011 60.8447ZM61.415 70V62.1045H62.6162V63.3862H62.6455C63.1484 62.4829 64.0078 62.0312 65.2236 62.0312C66.0928 62.0312 66.7788 62.2925 67.2817 62.8149C67.7847 63.3325 68.0361 64.0405 68.0361 64.939V70H66.7617V65.1587C66.7617 64.5142 66.5957 64.021 66.2637 63.6792C65.9365 63.3374 65.4629 63.1665 64.8428 63.1665C64.1934 63.1665 63.6709 63.3716 63.2754 63.7817C62.8848 64.1919 62.6895 64.7363 62.6895 65.415V70H61.415ZM73.7417 60.3247H75.0161V62.1045H76.5542V63.1592H75.0161V67.8979C75.0161 68.2593 75.0942 68.5254 75.2505 68.6963C75.4116 68.8672 75.6606 68.9526 75.9976 68.9526C76.2173 68.9526 76.4004 68.9404 76.5469 68.916V69.9927C76.3613 70.0366 76.0879 70.0586 75.7266 70.0586C75.0137 70.0586 74.5034 69.8975 74.1958 69.5752C73.8931 69.248 73.7417 68.7061 73.7417 67.9492V63.1592H72.6431V62.1045H73.7417V60.3247ZM83.6514 68.9819C82.9922 69.7095 82.1084 70.0732 81 70.0732C79.8916 70.0732 79.0078 69.7095 78.3486 68.9819C77.6895 68.2544 77.3599 67.2778 77.3599 66.0522C77.3599 64.8267 77.6895 63.8501 78.3486 63.1226C79.0078 62.395 79.8916 62.0312 81 62.0312C82.1084 62.0312 82.9922 62.395 83.6514 63.1226C84.3105 63.8501 84.6401 64.8267 84.6401 66.0522C84.6401 67.2778 84.3105 68.2544 83.6514 68.9819ZM81 68.938C81.7373 68.938 82.311 68.6841 82.7212 68.1763C83.1362 67.6636 83.3438 66.9556 83.3438 66.0522C83.3438 65.144 83.1362 64.436 82.7212 63.9282C82.311 63.4204 81.7373 63.1665 81 63.1665C80.2627 63.1665 79.6865 63.4229 79.2715 63.9355C78.8613 64.4434 78.6562 65.1489 78.6562 66.0522C78.6562 66.9556 78.8638 67.6636 79.2788 68.1763C79.6938 68.6841 80.2676 68.938 81 68.938ZM88.5586 68.9673C89.2031 68.9673 89.7354 68.7817 90.1553 68.4106C90.5801 68.0347 90.7925 67.5635 90.7925 66.9971V66.3599L88.7271 66.4917C87.5259 66.5649 86.9253 66.9873 86.9253 67.7588C86.9253 68.125 87.0718 68.418 87.3647 68.6377C87.6626 68.8574 88.0605 68.9673 88.5586 68.9673ZM88.2876 70.0732C87.4868 70.0732 86.8423 69.8608 86.354 69.436C85.8657 69.0112 85.6216 68.4497 85.6216 67.7515C85.6216 67.0728 85.8755 66.5405 86.3833 66.1548C86.8911 65.7642 87.6235 65.5396 88.5806 65.481L90.7925 65.3491V64.6899C90.7925 64.2017 90.6362 63.8257 90.3237 63.562C90.0112 63.2983 89.5645 63.1665 88.9834 63.1665C88.5244 63.1665 88.1362 63.2764 87.8188 63.4961C87.5063 63.7158 87.311 64.0112 87.2329 64.3823H86.0098C86.0293 63.7183 86.3247 63.1616 86.896 62.7124C87.4673 62.2583 88.168 62.0312 88.998 62.0312C89.9307 62.0312 90.6753 62.2632 91.2319 62.7271C91.7886 63.186 92.0669 63.8037 92.0669 64.5801V70H90.8584V68.6304H90.8291C90.6045 69.0698 90.2627 69.4214 89.8037 69.6851C89.3447 69.9438 88.8394 70.0732 88.2876 70.0732ZM89.4448 60.8447H88.3608L86.4492 58.6475H87.8994L89.4448 60.8447ZM93.7588 70V62.1045H94.96V63.3862H94.9893C95.4922 62.4829 96.3516 62.0312 97.5674 62.0312C98.4365 62.0312 99.1226 62.2925 99.6255 62.8149C100.128 63.3325 100.38 64.0405 100.38 64.939V70H99.1055V65.1587C99.1055 64.5142 98.9395 64.021 98.6074 63.6792C98.2803 63.3374 97.8066 63.1665 97.1865 63.1665C96.5371 63.1665 96.0146 63.3716 95.6191 63.7817C95.2285 64.1919 95.0332 64.7363 95.0332 65.415V70H93.7588ZM106.085 60.3247H107.36V62.1045H108.898V63.1592H107.36V67.8979C107.36 68.2593 107.438 68.5254 107.594 68.6963C107.755 68.8672 108.004 68.9526 108.341 68.9526C108.561 68.9526 108.744 68.9404 108.891 68.916V69.9927C108.705 70.0366 108.432 70.0586 108.07 70.0586C107.357 70.0586 106.847 69.8975 106.54 69.5752C106.237 69.248 106.085 68.7061 106.085 67.9492V63.1592H104.987V62.1045H106.085V60.3247ZM110.312 70V62.1045H111.513V63.3862H111.542C111.659 62.9712 111.891 62.6416 112.238 62.3975C112.584 62.1533 112.99 62.0312 113.454 62.0312C113.654 62.0312 113.817 62.0483 113.944 62.0825V63.3423C113.808 63.2837 113.588 63.2544 113.285 63.2544C112.772 63.2544 112.36 63.4253 112.047 63.7671C111.74 64.1089 111.586 64.5581 111.586 65.1147V70H110.312ZM117.65 68.9673C118.295 68.9673 118.827 68.7817 119.247 68.4106C119.672 68.0347 119.884 67.5635 119.884 66.9971V66.3599L117.819 66.4917C116.618 66.5649 116.017 66.9873 116.017 67.7588C116.017 68.125 116.164 68.418 116.457 68.6377C116.754 68.8574 117.152 68.9673 117.65 68.9673ZM117.379 70.0732C116.579 70.0732 115.934 69.8608 115.446 69.436C114.958 69.0112 114.713 68.4497 114.713 67.7515C114.713 67.0728 114.967 66.5405 115.475 66.1548C115.983 65.7642 116.715 65.5396 117.672 65.481L119.884 65.3491V64.6899C119.884 64.2017 119.728 63.8257 119.416 63.562C119.103 63.2983 118.656 63.1665 118.075 63.1665C117.616 63.1665 117.228 63.2764 116.911 63.4961C116.598 63.7158 116.403 64.0112 116.325 64.3823H115.102C115.121 63.7183 115.417 63.1616 115.988 62.7124C116.559 62.2583 117.26 62.0312 118.09 62.0312C119.022 62.0312 119.767 62.2632 120.324 62.7271C120.88 63.186 121.159 63.8037 121.159 64.5801V70H119.95V68.6304H119.921C119.696 69.0698 119.354 69.4214 118.896 69.6851C118.437 69.9438 117.931 70.0732 117.379 70.0732ZM118.603 60.8447H117.519L119.064 58.6475H120.514L118.603 60.8447ZM129.376 64.6753H128.124C128.041 64.231 127.821 63.8696 127.465 63.5913C127.108 63.3081 126.645 63.1665 126.073 63.1665C125.38 63.1665 124.821 63.4302 124.396 63.9575C123.971 64.4849 123.759 65.1831 123.759 66.0522C123.759 66.9409 123.971 67.644 124.396 68.1616C124.826 68.6792 125.39 68.938 126.088 68.938C126.64 68.938 127.091 68.8135 127.443 68.5645C127.799 68.3105 128.031 67.9468 128.139 67.4731H129.391C129.284 68.2495 128.927 68.877 128.322 69.3555C127.721 69.834 126.974 70.0732 126.081 70.0732C124.987 70.0732 124.11 69.7119 123.451 68.9893C122.792 68.2617 122.462 67.2827 122.462 66.0522C122.462 64.8413 122.792 63.8696 123.451 63.1372C124.11 62.3999 124.982 62.0312 126.066 62.0312C126.999 62.0312 127.763 62.29 128.358 62.8076C128.954 63.3203 129.293 63.9429 129.376 64.6753ZM130.688 70V58.9697H131.962V63.3862H131.991C132.489 62.4829 133.349 62.0312 134.569 62.0312C135.434 62.0312 136.132 62.2998 136.664 62.8369C137.196 63.374 137.462 64.082 137.462 64.9609V70H136.188V65.188C136.188 64.5581 136.01 64.0649 135.653 63.7085C135.302 63.3472 134.813 63.1665 134.188 63.1665C133.52 63.1665 132.98 63.3765 132.57 63.7964C132.165 64.2163 131.962 64.7705 131.962 65.459V70H130.688ZM142.743 70V62.1045H143.944V63.3862H143.974C144.477 62.4829 145.336 62.0312 146.552 62.0312C147.421 62.0312 148.107 62.2925 148.61 62.8149C149.113 63.3325 149.364 64.0405 149.364 64.939V70H148.09V65.1587C148.09 64.5142 147.924 64.021 147.592 63.6792C147.265 63.3374 146.791 63.1665 146.171 63.1665C145.521 63.1665 144.999 63.3716 144.604 63.7817C144.213 64.1919 144.018 64.7363 144.018 65.415V70H142.743ZM151.137 70V58.9697H152.411V63.3862H152.44C152.938 62.4829 153.798 62.0312 155.019 62.0312C155.883 62.0312 156.581 62.2998 157.113 62.8369C157.646 63.374 157.912 64.082 157.912 64.9609V70H156.637V65.188C156.637 64.5581 156.459 64.0649 156.103 63.7085C155.751 63.3472 155.263 63.1665 154.638 63.1665C153.969 63.1665 153.429 63.3765 153.019 63.7964C152.614 64.2163 152.411 64.7705 152.411 65.459V70H151.137ZM159.677 70V62.1045H160.951V70H159.677ZM160.314 60.8301C160.094 60.8301 159.904 60.752 159.743 60.5957C159.586 60.4346 159.508 60.2441 159.508 60.0244C159.508 59.7998 159.586 59.6094 159.743 59.4531C159.904 59.2969 160.094 59.2188 160.314 59.2188C160.539 59.2188 160.729 59.2969 160.885 59.4531C161.042 59.6094 161.12 59.7998 161.12 60.0244C161.12 60.2441 161.042 60.4346 160.885 60.5957C160.729 60.752 160.539 60.8301 160.314 60.8301ZM165.902 63.1519C165.282 63.1519 164.767 63.3569 164.357 63.7671C163.952 64.1772 163.727 64.7168 163.683 65.3857H168.026C168.012 64.7168 167.809 64.1772 167.418 63.7671C167.033 63.3569 166.527 63.1519 165.902 63.1519ZM167.997 67.7441H169.257C169.149 68.4229 168.788 68.9819 168.173 69.4214C167.558 69.856 166.828 70.0732 165.983 70.0732C164.875 70.0732 163.993 69.7144 163.339 68.9966C162.689 68.2788 162.365 67.3071 162.365 66.0815C162.365 64.856 162.689 63.8745 163.339 63.1372C163.988 62.3999 164.85 62.0312 165.924 62.0312C166.979 62.0312 167.814 62.3804 168.429 63.0786C169.044 63.772 169.352 64.7144 169.352 65.9058V66.4038H163.683V66.4771C163.683 67.229 163.896 67.8296 164.32 68.2788C164.745 68.728 165.309 68.9526 166.012 68.9526C166.505 68.9526 166.93 68.8452 167.287 68.6304C167.648 68.4106 167.885 68.1152 167.997 67.7441ZM166.378 58.6475L168.407 60.8447H167.213L165.946 59.4019H165.902L164.635 60.8447H163.441L165.47 58.6475H166.378ZM166.605 72.6074C166.435 72.7832 166.227 72.8711 165.983 72.8711C165.739 72.8711 165.529 72.7832 165.353 72.6074C165.182 72.4365 165.097 72.229 165.097 71.9849C165.097 71.7407 165.182 71.5308 165.353 71.355C165.529 71.1841 165.739 71.0986 165.983 71.0986C166.227 71.0986 166.435 71.1841 166.605 71.355C166.781 71.5308 166.869 71.7407 166.869 71.9849C166.869 72.229 166.781 72.4365 166.605 72.6074ZM170.692 70V62.1045H171.894V63.3862H171.923C172.108 62.9663 172.399 62.6367 172.794 62.3975C173.195 62.1533 173.651 62.0312 174.164 62.0312C174.696 62.0312 175.155 62.1606 175.541 62.4194C175.927 62.6782 176.205 63.0469 176.376 63.5254H176.405C176.63 63.0566 176.962 62.6904 177.401 62.4268C177.841 62.1631 178.336 62.0312 178.888 62.0312C179.669 62.0312 180.292 62.2656 180.756 62.7344C181.225 63.2031 181.459 63.8281 181.459 64.6094V70H180.185V64.9023C180.185 64.3555 180.038 63.9307 179.745 63.6279C179.457 63.3203 179.049 63.1665 178.522 63.1665C177.995 63.1665 177.56 63.3423 177.218 63.6938C176.881 64.0454 176.713 64.4922 176.713 65.0342V70H175.438V64.7485C175.438 64.27 175.287 63.8867 174.984 63.5986C174.687 63.3105 174.291 63.1665 173.798 63.1665C173.271 63.1665 172.833 63.3521 172.487 63.7231C172.14 64.0894 171.967 64.5483 171.967 65.1001V70H170.692ZM187.165 60.3247H188.439V62.1045H189.977V63.1592H188.439V67.8979C188.439 68.2593 188.517 68.5254 188.673 68.6963C188.834 68.8672 189.083 68.9526 189.42 68.9526C189.64 68.9526 189.823 68.9404 189.97 68.916V69.9927C189.784 70.0366 189.511 70.0586 189.149 70.0586C188.437 70.0586 187.926 69.8975 187.619 69.5752C187.316 69.248 187.165 68.7061 187.165 67.9492V63.1592H186.066V62.1045H187.165V60.3247ZM191.391 70V62.1045H192.592V63.3862H192.621C192.738 62.9712 192.97 62.6416 193.317 62.3975C193.664 62.1533 194.069 62.0312 194.533 62.0312C194.733 62.0312 194.896 62.0483 195.023 62.0825V63.3423C194.887 63.2837 194.667 63.2544 194.364 63.2544C193.852 63.2544 193.439 63.4253 193.126 63.7671C192.819 64.1089 192.665 64.5581 192.665 65.1147V70H191.391ZM201.505 68.6963C201.007 69.6143 200.146 70.0732 198.92 70.0732C198.056 70.0732 197.372 69.8145 196.869 69.2969C196.366 68.7744 196.115 68.064 196.115 67.1655V62.1045H197.389V66.9458C197.389 67.5903 197.553 68.0835 197.88 68.4253C198.212 68.7671 198.688 68.938 199.308 68.938C199.958 68.938 200.478 68.7329 200.868 68.3228C201.264 67.9126 201.461 67.3682 201.461 66.6895V62.1045H202.736V62.8369C202.921 63.0078 203.153 63.0933 203.432 63.0933C203.749 63.0933 203.976 62.9956 204.113 62.8003C204.25 62.6001 204.318 62.2754 204.318 61.8262V60.6836H205.482V62.1777C205.482 62.7539 205.314 63.2227 204.977 63.584C204.645 63.9404 204.21 64.1187 203.673 64.1187C203.307 64.1187 202.995 64.0259 202.736 63.8403V70H201.535V68.6963H201.505ZM209.892 60.8447H208.808L210.353 58.6475H211.803L209.892 60.8447ZM209.35 68.938C210.087 68.938 210.661 68.6841 211.071 68.1763C211.486 67.6636 211.693 66.9556 211.693 66.0522C211.693 65.144 211.486 64.436 211.071 63.9282C210.661 63.4204 210.087 63.1665 209.35 63.1665C208.612 63.1665 208.036 63.4229 207.621 63.9355C207.211 64.4434 207.006 65.1489 207.006 66.0522C207.006 66.9556 207.213 67.6636 207.628 68.1763C208.043 68.6841 208.617 68.938 209.35 68.938ZM212.99 66.0522C212.99 67.2778 212.66 68.2544 212.001 68.9819C211.342 69.7095 210.458 70.0732 209.35 70.0732C208.241 70.0732 207.357 69.7095 206.698 68.9819C206.039 68.2544 205.709 67.2778 205.709 66.0522C205.709 64.8267 206.039 63.8501 206.698 63.1226C207.357 62.395 208.241 62.0312 209.35 62.0312C209.687 62.0312 209.999 62.0679 210.287 62.1411C210.58 62.2144 210.824 62.3022 211.02 62.4048C211.215 62.5073 211.393 62.6123 211.554 62.7197C211.72 62.8223 211.881 62.9102 212.038 62.9834C212.199 63.0566 212.35 63.0933 212.492 63.0933C212.775 63.0933 212.98 62.9932 213.107 62.793C213.239 62.5928 213.305 62.2705 213.305 61.8262V60.6836H214.469V62.1777C214.469 62.7539 214.301 63.2227 213.964 63.584C213.632 63.9404 213.197 64.1187 212.66 64.1187H212.631C212.87 64.6704 212.99 65.3149 212.99 66.0522ZM221.793 64.6753H220.541C220.458 64.231 220.238 63.8696 219.882 63.5913C219.525 63.3081 219.062 63.1665 218.49 63.1665C217.797 63.1665 217.238 63.4302 216.813 63.9575C216.388 64.4849 216.176 65.1831 216.176 66.0522C216.176 66.9409 216.388 67.644 216.813 68.1616C217.243 68.6792 217.807 68.938 218.505 68.938C219.057 68.938 219.508 68.8135 219.86 68.5645C220.216 68.3105 220.448 67.9468 220.556 67.4731H221.808C221.701 68.2495 221.344 68.877 220.739 69.3555C220.138 69.834 219.391 70.0732 218.498 70.0732C217.404 70.0732 216.527 69.7119 215.868 68.9893C215.209 68.2617 214.879 67.2827 214.879 66.0522C214.879 64.8413 215.209 63.8696 215.868 63.1372C216.527 62.3999 217.399 62.0312 218.483 62.0312C219.416 62.0312 220.18 62.29 220.775 62.8076C221.371 63.3203 221.71 63.9429 221.793 64.6753ZM230.414 62.0312C231.425 62.0312 232.24 62.4023 232.86 63.1445C233.485 63.8818 233.798 64.8511 233.798 66.0522C233.798 67.2534 233.488 68.2251 232.868 68.9673C232.248 69.7046 231.439 70.0732 230.443 70.0732C229.887 70.0732 229.389 69.9561 228.949 69.7217C228.515 69.4873 228.173 69.1528 227.924 68.7183H227.895V72.6367H226.62V62.1045H227.829V63.3862H227.858C228.087 62.9761 228.434 62.6489 228.898 62.4048C229.362 62.1558 229.867 62.0312 230.414 62.0312ZM230.18 68.938C230.878 68.938 231.437 68.6768 231.857 68.1543C232.282 67.627 232.494 66.9263 232.494 66.0522C232.494 65.1831 232.282 64.4849 231.857 63.9575C231.437 63.4302 230.878 63.1665 230.18 63.1665C229.501 63.1665 228.949 63.4326 228.524 63.9648C228.1 64.4971 227.887 65.1929 227.887 66.0522C227.887 66.9116 228.097 67.6074 228.517 68.1396C228.942 68.6719 229.496 68.938 230.18 68.938ZM235.219 70V58.9697H236.493V63.3862H236.522C237.021 62.4829 237.88 62.0312 239.101 62.0312C239.965 62.0312 240.663 62.2998 241.195 62.8369C241.728 63.374 241.994 64.082 241.994 64.9609V70H240.719V65.188C240.719 64.5581 240.541 64.0649 240.185 63.7085C239.833 63.3472 239.345 63.1665 238.72 63.1665C238.051 63.1665 237.511 63.3765 237.101 63.7964C236.696 64.2163 236.493 64.7705 236.493 65.459V70H235.219ZM246.264 68.9673C246.908 68.9673 247.44 68.7817 247.86 68.4106C248.285 68.0347 248.498 67.5635 248.498 66.9971V66.3599L246.432 66.4917C245.231 66.5649 244.63 66.9873 244.63 67.7588C244.63 68.125 244.777 68.418 245.07 68.6377C245.368 68.8574 245.766 68.9673 246.264 68.9673ZM245.993 70.0732C245.192 70.0732 244.547 69.8608 244.059 69.436C243.571 69.0112 243.327 68.4497 243.327 67.7515C243.327 67.0728 243.581 66.5405 244.088 66.1548C244.596 65.7642 245.329 65.5396 246.286 65.481L248.498 65.3491V64.6899C248.498 64.2017 248.341 63.8257 248.029 63.562C247.716 63.2983 247.27 63.1665 246.688 63.1665C246.229 63.1665 245.841 63.2764 245.524 63.4961C245.211 63.7158 245.016 64.0112 244.938 64.3823H243.715C243.734 63.7183 244.03 63.1616 244.601 62.7124C245.172 62.2583 245.873 62.0312 246.703 62.0312C247.636 62.0312 248.38 62.2632 248.937 62.7271C249.494 63.186 249.772 63.8037 249.772 64.5801V70H248.563V68.6304H248.534C248.31 69.0698 247.968 69.4214 247.509 69.6851C247.05 69.9438 246.544 70.0732 245.993 70.0732ZM247.216 60.8447H246.132L247.677 58.6475H249.127L247.216 60.8447ZM255.258 62.0312C256.269 62.0312 257.084 62.4023 257.704 63.1445C258.329 63.8818 258.642 64.8511 258.642 66.0522C258.642 67.2534 258.332 68.2251 257.711 68.9673C257.091 69.7046 256.283 70.0732 255.287 70.0732C254.73 70.0732 254.232 69.9561 253.793 69.7217C253.358 69.4873 253.017 69.1528 252.768 68.7183H252.738V72.6367H251.464V62.1045H252.672V63.3862H252.702C252.931 62.9761 253.278 62.6489 253.742 62.4048C254.206 62.1558 254.711 62.0312 255.258 62.0312ZM255.023 68.938C255.722 68.938 256.281 68.6768 256.701 68.1543C257.125 67.627 257.338 66.9263 257.338 66.0522C257.338 65.1831 257.125 64.4849 256.701 63.9575C256.281 63.4302 255.722 63.1665 255.023 63.1665C254.345 63.1665 253.793 63.4326 253.368 63.9648C252.943 64.4971 252.731 65.1929 252.731 66.0522C252.731 66.9116 252.941 67.6074 253.361 68.1396C253.786 68.6719 254.34 68.938 255.023 68.938ZM263.651 70V58.9697H264.926V70H263.651ZM273.312 62.1045V70H272.111V68.6963H272.082C271.583 69.6143 270.722 70.0732 269.496 70.0732C268.632 70.0732 267.948 69.8145 267.445 69.2969C266.942 68.7744 266.691 68.064 266.691 67.1655V62.1045H267.965V66.9458C267.965 67.5903 268.129 68.0835 268.456 68.4253C268.788 68.7671 269.264 68.938 269.884 68.938C270.534 68.938 271.054 68.7329 271.444 68.3228C271.84 67.9126 272.038 67.3682 272.038 66.6895V62.1045H273.312ZM277.626 68.9673C278.271 68.9673 278.803 68.7817 279.223 68.4106C279.647 68.0347 279.86 67.5635 279.86 66.9971V66.3599L277.794 66.4917C276.593 66.5649 275.993 66.9873 275.993 67.7588C275.993 68.125 276.139 68.418 276.432 68.6377C276.73 68.8574 277.128 68.9673 277.626 68.9673ZM277.355 70.0732C276.554 70.0732 275.91 69.8608 275.421 69.436C274.933 69.0112 274.689 68.4497 274.689 67.7515C274.689 67.0728 274.943 66.5405 275.451 66.1548C275.958 65.7642 276.691 65.5396 277.648 65.481L279.86 65.3491V64.6899C279.86 64.2017 279.704 63.8257 279.391 63.562C279.079 63.2983 278.632 63.1665 278.051 63.1665C277.592 63.1665 277.204 63.2764 276.886 63.4961C276.574 63.7158 276.378 64.0112 276.3 64.3823H275.077C275.097 63.7183 275.392 63.1616 275.963 62.7124C276.535 62.2583 277.235 62.0312 278.065 62.0312C278.998 62.0312 279.743 62.2632 280.299 62.7271C280.856 63.186 281.134 63.8037 281.134 64.5801V70H279.926V68.6304H279.896C279.672 69.0698 279.33 69.4214 278.871 69.6851C278.412 69.9438 277.907 70.0732 277.355 70.0732ZM278.49 58.6475L280.519 60.8447H279.325L278.058 59.4019H278.014L276.747 60.8447H275.553L277.582 58.6475H278.49ZM278.556 72.6074C278.385 72.7832 278.178 72.8711 277.934 72.8711C277.689 72.8711 277.479 72.7832 277.304 72.6074C277.133 72.4365 277.047 72.229 277.047 71.9849C277.047 71.7407 277.133 71.5308 277.304 71.355C277.479 71.1841 277.689 71.0986 277.934 71.0986C278.178 71.0986 278.385 71.1841 278.556 71.355C278.732 71.5308 278.82 71.7407 278.82 71.9849C278.82 72.229 278.732 72.4365 278.556 72.6074ZM283.244 60.3247H284.518V62.1045H286.056V63.1592H284.518V67.8979C284.518 68.2593 284.596 68.5254 284.752 68.6963C284.914 68.8672 285.163 68.9526 285.5 68.9526C285.719 68.9526 285.902 68.9404 286.049 68.916V69.9927C285.863 70.0366 285.59 70.0586 285.229 70.0586C284.516 70.0586 284.005 69.8975 283.698 69.5752C283.395 69.248 283.244 68.7061 283.244 67.9492V63.1592H282.145V62.1045H283.244V60.3247ZM297.497 62.1045L294.582 70H293.292L290.377 62.1045H291.71L293.922 68.623H293.952L296.171 62.1045H297.497ZM301.474 63.1519C300.854 63.1519 300.338 63.3569 299.928 63.7671C299.523 64.1772 299.298 64.7168 299.254 65.3857H303.598C303.583 64.7168 303.38 64.1772 302.99 63.7671C302.604 63.3569 302.099 63.1519 301.474 63.1519ZM303.568 67.7441H304.828C304.721 68.4229 304.359 68.9819 303.744 69.4214C303.129 69.856 302.399 70.0732 301.554 70.0732C300.446 70.0732 299.564 69.7144 298.91 68.9966C298.261 68.2788 297.936 67.3071 297.936 66.0815C297.936 64.856 298.261 63.8745 298.91 63.1372C299.56 62.3999 300.421 62.0312 301.496 62.0312C302.55 62.0312 303.385 62.3804 304 63.0786C304.616 63.772 304.923 64.7144 304.923 65.9058V66.4038H299.254V66.4771C299.254 67.229 299.467 67.8296 299.892 68.2788C300.316 68.728 300.88 68.9526 301.583 68.9526C302.077 68.9526 302.501 68.8452 302.858 68.6304C303.219 68.4106 303.456 68.1152 303.568 67.7441ZM302.118 58.9624L304.03 60.8447H302.851L301.518 59.5264H301.474L300.141 60.8447H298.961L300.873 58.9624H302.118ZM304.132 58.6475H303.18L301.613 56.4575H302.843L304.132 58.6475ZM36.9375 91V79.9697H38.2119V84.3862H38.2412C38.7393 83.4829 39.5986 83.0312 40.8193 83.0312C41.6836 83.0312 42.3818 83.2998 42.9141 83.8369C43.4463 84.374 43.7124 85.082 43.7124 85.9609V91H42.438V86.188C42.438 85.5581 42.2598 85.0649 41.9033 84.7085C41.5518 84.3472 41.0635 84.1665 40.4385 84.1665C39.7695 84.1665 39.23 84.3765 38.8198 84.7964C38.4146 85.2163 38.2119 85.7705 38.2119 86.459V91H36.9375ZM45.4775 91V83.1045H46.752V91H45.4775ZM46.5908 81.8447H45.5068L43.5952 79.6475H45.0454L46.5908 81.8447ZM48.5537 91V83.1045H49.7549V84.3862H49.7842C50.2871 83.4829 51.1465 83.0312 52.3623 83.0312C53.2314 83.0312 53.9175 83.2925 54.4204 83.8149C54.9233 84.3325 55.1748 85.0405 55.1748 85.939V91H53.9004V86.1587C53.9004 85.5142 53.7344 85.021 53.4023 84.6792C53.0752 84.3374 52.6016 84.1665 51.9814 84.1665C51.332 84.1665 50.8096 84.3716 50.4141 84.7817C50.0234 85.1919 49.8281 85.7363 49.8281 86.415V91H48.5537ZM56.9473 91V79.9697H58.2217V84.3862H58.251C58.749 83.4829 59.6084 83.0312 60.8291 83.0312C61.6934 83.0312 62.3916 83.2998 62.9238 83.8369C63.4561 84.374 63.7222 85.082 63.7222 85.9609V91H62.4478V86.188C62.4478 85.5581 62.2695 85.0649 61.9131 84.7085C61.5615 84.3472 61.0732 84.1665 60.4482 84.1665C59.7793 84.1665 59.2397 84.3765 58.8296 84.7964C58.4243 85.2163 58.2217 85.7705 58.2217 86.459V91H56.9473ZM71.5811 89.9673C72.2256 89.9673 72.7578 89.7817 73.1777 89.4106C73.6025 89.0347 73.8149 88.5635 73.8149 87.9971V87.3599L71.7495 87.4917C70.5483 87.5649 69.9478 87.9873 69.9478 88.7588C69.9478 89.125 70.0942 89.418 70.3872 89.6377C70.6851 89.8574 71.083 89.9673 71.5811 89.9673ZM71.3101 91.0732C70.5093 91.0732 69.8647 90.8608 69.3765 90.436C68.8882 90.0112 68.644 89.4497 68.644 88.7515C68.644 88.0728 68.8979 87.5405 69.4058 87.1548C69.9136 86.7642 70.646 86.5396 71.603 86.481L73.8149 86.3491V85.6899C73.8149 85.2017 73.6587 84.8257 73.3462 84.562C73.0337 84.2983 72.5869 84.1665 72.0059 84.1665C71.5469 84.1665 71.1587 84.2764 70.8413 84.4961C70.5288 84.7158 70.3335 85.0112 70.2554 85.3823H69.0322C69.0518 84.7183 69.3472 84.1616 69.9185 83.7124C70.4897 83.2583 71.1904 83.0312 72.0205 83.0312C72.9531 83.0312 73.6978 83.2632 74.2544 83.7271C74.811 84.186 75.0894 84.8037 75.0894 85.5801V91H73.8809V89.6304H73.8516C73.627 90.0698 73.2852 90.4214 72.8262 90.6851C72.3672 90.9438 71.8618 91.0732 71.3101 91.0732ZM71.1489 80.5264V79.7573C71.4419 79.6353 71.769 79.5742 72.1304 79.5742C72.5454 79.5742 72.8774 79.6914 73.1265 79.9258C73.3804 80.1553 73.5073 80.4653 73.5073 80.856C73.5073 81.1636 73.3999 81.4492 73.1851 81.7129C72.9702 81.9717 72.6821 82.1646 72.3208 82.2915L71.874 81.6763C72.3232 81.5249 72.5479 81.2686 72.5479 80.9072C72.5479 80.751 72.4844 80.6191 72.3574 80.5117C72.2305 80.4043 72.0767 80.3506 71.896 80.3506C71.6714 80.3506 71.4224 80.4092 71.1489 80.5264ZM76.7812 91V83.1045H77.9824V84.3862H78.0117C78.5146 83.4829 79.374 83.0312 80.5898 83.0312C81.459 83.0312 82.145 83.2925 82.6479 83.8149C83.1509 84.3325 83.4023 85.0405 83.4023 85.939V91H82.1279V86.1587C82.1279 85.5142 81.9619 85.021 81.6299 84.6792C81.3027 84.3374 80.8291 84.1665 80.209 84.1665C79.5596 84.1665 79.0371 84.3716 78.6416 84.7817C78.251 85.1919 78.0557 85.7363 78.0557 86.415V91H76.7812ZM85.1748 91V79.9697H86.4492V84.3862H86.4785C86.9766 83.4829 87.8359 83.0312 89.0566 83.0312C89.9209 83.0312 90.6191 83.2998 91.1514 83.8369C91.6836 84.374 91.9497 85.082 91.9497 85.9609V91H90.6753V86.188C90.6753 85.5581 90.4971 85.0649 90.1406 84.7085C89.7891 84.3472 89.3008 84.1665 88.6758 84.1665C88.0068 84.1665 87.4673 84.3765 87.0571 84.7964C86.6519 85.2163 86.4492 85.7705 86.4492 86.459V91H85.1748ZM101.742 91.1758C100.282 91.1758 99.1226 90.6851 98.2632 89.7036C97.4087 88.7173 96.9814 87.3867 96.9814 85.7119C96.9814 84.0518 97.4136 82.7285 98.2778 81.7422C99.1421 80.751 100.297 80.2554 101.742 80.2554C102.895 80.2554 103.871 80.5776 104.672 81.2222C105.478 81.8618 105.963 82.709 106.129 83.7637H104.796C104.625 83.0703 104.262 82.5161 103.705 82.1011C103.148 81.6812 102.494 81.4712 101.742 81.4712C100.712 81.4712 99.8867 81.8569 99.2666 82.6284C98.6465 83.3999 98.3364 84.4277 98.3364 85.7119C98.3364 87.0107 98.644 88.0435 99.2593 88.8101C99.8745 89.5767 100.705 89.96 101.75 89.96C102.526 89.96 103.18 89.7817 103.712 89.4253C104.245 89.0688 104.606 88.5684 104.796 87.9238H106.129C105.885 88.9688 105.385 89.772 104.628 90.3335C103.871 90.895 102.909 91.1758 101.742 91.1758ZM118.104 80.4312V91H116.874V82.8555H116.823L113.454 90.9268H112.34L108.971 82.8555H108.92V91H107.689V80.4312H109.22L112.868 89.2495H112.926L116.574 80.4312H118.104ZM121.459 91H120.155V80.4312H121.437L127.223 88.7295H127.289V80.4312H128.593V91H127.311L121.525 82.731H121.459V91ZM130.644 80.4312H134.269C135.836 80.4312 137.06 80.8975 137.938 81.8301C138.817 82.7578 139.257 84.0518 139.257 85.7119C139.257 87.377 138.817 88.6758 137.938 89.6084C137.064 90.5361 135.841 91 134.269 91H130.644V80.4312ZM131.962 81.6177V89.8135H134.181C135.377 89.8135 136.298 89.4619 136.942 88.7588C137.587 88.0508 137.909 87.04 137.909 85.7266C137.909 84.4033 137.587 83.3877 136.942 82.6797C136.303 81.9717 135.382 81.6177 134.181 81.6177H131.962ZM140.575 93.4097H139.506L142.736 80.4238H143.827L140.575 93.4097ZM149.203 91.1758C147.743 91.1758 146.583 90.6851 145.724 89.7036C144.87 88.7173 144.442 87.3867 144.442 85.7119C144.442 84.0518 144.875 82.7285 145.739 81.7422C146.603 80.751 147.758 80.2554 149.203 80.2554C150.355 80.2554 151.332 80.5776 152.133 81.2222C152.938 81.8618 153.424 82.709 153.59 83.7637H152.257C152.086 83.0703 151.723 82.5161 151.166 82.1011C150.609 81.6812 149.955 81.4712 149.203 81.4712C148.173 81.4712 147.348 81.8569 146.728 82.6284C146.107 83.3999 145.797 84.4277 145.797 85.7119C145.797 87.0107 146.105 88.0435 146.72 88.8101C147.335 89.5767 148.166 89.96 149.21 89.96C149.987 89.96 150.641 89.7817 151.173 89.4253C151.706 89.0688 152.067 88.5684 152.257 87.9238H153.59C153.346 88.9688 152.846 89.772 152.089 90.3335C151.332 90.895 150.37 91.1758 149.203 91.1758ZM159.501 91.1758C158.041 91.1758 156.881 90.6851 156.022 89.7036C155.167 88.7173 154.74 87.3867 154.74 85.7119C154.74 84.0518 155.172 82.7285 156.037 81.7422C156.901 80.751 158.056 80.2554 159.501 80.2554C160.653 80.2554 161.63 80.5776 162.431 81.2222C163.236 81.8618 163.722 82.709 163.888 83.7637H162.555C162.384 83.0703 162.021 82.5161 161.464 82.1011C160.907 81.6812 160.253 81.4712 159.501 81.4712C158.471 81.4712 157.646 81.8569 157.025 82.6284C156.405 83.3999 156.095 84.4277 156.095 85.7119C156.095 87.0107 156.403 88.0435 157.018 88.8101C157.633 89.5767 158.463 89.96 159.508 89.96C160.285 89.96 160.939 89.7817 161.471 89.4253C162.003 89.0688 162.365 88.5684 162.555 87.9238H163.888C163.644 88.9688 163.144 89.772 162.387 90.3335C161.63 90.895 160.668 91.1758 159.501 91.1758ZM169.799 91.1758C168.339 91.1758 167.179 90.6851 166.32 89.7036C165.465 88.7173 165.038 87.3867 165.038 85.7119C165.038 84.0518 165.47 82.7285 166.334 81.7422C167.199 80.751 168.354 80.2554 169.799 80.2554C170.951 80.2554 171.928 80.5776 172.729 81.2222C173.534 81.8618 174.02 82.709 174.186 83.7637H172.853C172.682 83.0703 172.318 82.5161 171.762 82.1011C171.205 81.6812 170.551 81.4712 169.799 81.4712C168.769 81.4712 167.943 81.8569 167.323 82.6284C166.703 83.3999 166.393 84.4277 166.393 85.7119C166.393 87.0107 166.701 88.0435 167.316 88.8101C167.931 89.5767 168.761 89.96 169.806 89.96C170.583 89.96 171.237 89.7817 171.769 89.4253C172.301 89.0688 172.663 88.5684 172.853 87.9238H174.186C173.942 88.9688 173.441 89.772 172.685 90.3335C171.928 90.895 170.966 91.1758 169.799 91.1758ZM175.746 80.4312H179.372C180.939 80.4312 182.162 80.8975 183.041 81.8301C183.92 82.7578 184.359 84.0518 184.359 85.7119C184.359 87.377 183.92 88.6758 183.041 89.6084C182.167 90.5361 180.944 91 179.372 91H175.746V80.4312ZM177.064 81.6177V89.8135H179.284C180.48 89.8135 181.4 89.4619 182.045 88.7588C182.689 88.0508 183.012 87.04 183.012 85.7266C183.012 84.4033 182.689 83.3877 182.045 82.6797C181.405 81.9717 180.485 81.6177 179.284 81.6177H177.064ZM191.098 89.2202C191.508 89.7427 192.072 90.0039 192.79 90.0039C193.507 90.0039 194.074 89.7402 194.489 89.2129C194.904 88.6855 195.111 87.9653 195.111 87.0522C195.111 86.1489 194.901 85.4312 194.481 84.8989C194.066 84.3667 193.502 84.1006 192.79 84.1006C192.072 84.1006 191.508 84.3618 191.098 84.8843C190.688 85.4067 190.482 86.1294 190.482 87.0522C190.482 87.9751 190.688 88.6978 191.098 89.2202ZM197.25 80.6655V81.5737H196.342V91H195.141V89.7402H195.023C194.774 90.1748 194.428 90.5166 193.983 90.7656C193.544 91.0146 193.048 91.1392 192.497 91.1392C191.486 91.1392 190.68 90.7681 190.08 90.0259C189.479 89.2837 189.179 88.2925 189.179 87.0522C189.179 85.8169 189.479 84.8281 190.08 84.0859C190.685 83.3389 191.491 82.9653 192.497 82.9653C193.048 82.9653 193.544 83.0898 193.983 83.3389C194.423 83.583 194.752 83.9199 194.972 84.3496H195.082V81.5737H193.178V80.6655H195.082V79.5449H196.342V80.6655H197.25ZM200.868 89.9673C201.513 89.9673 202.045 89.7817 202.465 89.4106C202.89 89.0347 203.102 88.5635 203.102 87.9971V87.3599L201.037 87.4917C199.835 87.5649 199.235 87.9873 199.235 88.7588C199.235 89.125 199.381 89.418 199.674 89.6377C199.972 89.8574 200.37 89.9673 200.868 89.9673ZM200.597 91.0732C199.796 91.0732 199.152 90.8608 198.664 90.436C198.175 90.0112 197.931 89.4497 197.931 88.7515C197.931 88.0728 198.185 87.5405 198.693 87.1548C199.201 86.7642 199.933 86.5396 200.89 86.481L203.102 86.3491V85.6899C203.102 85.2017 202.946 84.8257 202.633 84.562C202.321 84.2983 201.874 84.1665 201.293 84.1665C200.834 84.1665 200.446 84.2764 200.128 84.4961C199.816 84.7158 199.621 85.0112 199.542 85.3823H198.319C198.339 84.7183 198.634 84.1616 199.206 83.7124C199.777 83.2583 200.478 83.0312 201.308 83.0312C202.24 83.0312 202.985 83.2632 203.542 83.7271C204.098 84.186 204.376 84.8037 204.376 85.5801V91H203.168V89.6304H203.139C202.914 90.0698 202.572 90.4214 202.113 90.6851C201.654 90.9438 201.149 91.0732 200.597 91.0732ZM202.245 81.7861C202.069 81.7861 201.903 81.7495 201.747 81.6763C201.596 81.5981 201.464 81.5054 201.352 81.3979C201.244 81.2856 201.142 81.1758 201.044 81.0684C200.946 80.9561 200.844 80.8633 200.736 80.79C200.629 80.7119 200.524 80.6729 200.421 80.6729C200.26 80.6729 200.136 80.7607 200.048 80.9365C199.96 81.1074 199.916 81.354 199.916 81.6763H199.081C199.081 81.1001 199.196 80.6509 199.425 80.3286C199.655 80.0063 199.975 79.8452 200.385 79.8452C200.57 79.8452 200.744 79.8843 200.905 79.9624C201.071 80.0356 201.21 80.1284 201.322 80.2407C201.435 80.3481 201.54 80.458 201.637 80.5703C201.74 80.6777 201.842 80.7705 201.945 80.8486C202.047 80.9219 202.147 80.9585 202.245 80.9585C202.548 80.9585 202.699 80.6216 202.699 79.9478H203.534C203.534 80.5093 203.417 80.9561 203.183 81.2881C202.948 81.6201 202.636 81.7861 202.245 81.7861ZM216.183 85.6753H214.931C214.848 85.231 214.628 84.8696 214.271 84.5913C213.915 84.3081 213.451 84.1665 212.88 84.1665C212.187 84.1665 211.627 84.4302 211.203 84.9575C210.778 85.4849 210.565 86.1831 210.565 87.0522C210.565 87.9409 210.778 88.644 211.203 89.1616C211.632 89.6792 212.196 89.938 212.895 89.938C213.446 89.938 213.898 89.8135 214.25 89.5645C214.606 89.3105 214.838 88.9468 214.945 88.4731H216.198C216.09 89.2495 215.734 89.877 215.128 90.3555C214.528 90.834 213.781 91.0732 212.887 91.0732C211.793 91.0732 210.917 90.7119 210.258 89.9893C209.599 89.2617 209.269 88.2827 209.269 87.0522C209.269 85.8413 209.599 84.8696 210.258 84.1372C210.917 83.3999 211.789 83.0312 212.873 83.0312C213.805 83.0312 214.569 83.29 215.165 83.8076C215.761 84.3203 216.1 84.9429 216.183 85.6753ZM224.005 83.1045V91H222.804V89.6963H222.775C222.277 90.6143 221.415 91.0732 220.189 91.0732C219.325 91.0732 218.642 90.8145 218.139 90.2969C217.636 89.7744 217.384 89.064 217.384 88.1655V83.1045H218.659V87.9458C218.659 88.5903 218.822 89.0835 219.149 89.4253C219.481 89.7671 219.958 89.938 220.578 89.938C221.227 89.938 221.747 89.7329 222.138 89.3228C222.533 88.9126 222.731 88.3682 222.731 87.6895V83.1045H224.005ZM225.741 91V83.1045H226.942V84.3862H226.972C227.475 83.4829 228.334 83.0312 229.55 83.0312C230.419 83.0312 231.105 83.2925 231.608 83.8149C232.111 84.3325 232.362 85.0405 232.362 85.939V91H231.088V86.1587C231.088 85.5142 230.922 85.021 230.59 84.6792C230.263 84.3374 229.789 84.1665 229.169 84.1665C228.52 84.1665 227.997 84.3716 227.602 84.7817C227.211 85.1919 227.016 85.7363 227.016 86.415V91H225.741ZM237.255 89.8647C237.948 89.8647 238.507 89.6035 238.932 89.0811C239.362 88.5537 239.577 87.8677 239.577 87.0229C239.577 86.1733 239.362 85.4849 238.932 84.9575C238.507 84.4302 237.948 84.1665 237.255 84.1665C236.566 84.1665 236.015 84.4277 235.6 84.9502C235.185 85.4678 234.977 86.1587 234.977 87.0229C234.977 87.8823 235.185 88.5708 235.6 89.0884C236.015 89.606 236.566 89.8647 237.255 89.8647ZM237.277 93.8198C236.383 93.8198 235.639 93.6196 235.043 93.2192C234.447 92.8237 234.103 92.2988 234.01 91.6445H235.336C235.429 91.9717 235.656 92.2305 236.017 92.4209C236.383 92.6162 236.828 92.7139 237.35 92.7139C238.034 92.7139 238.576 92.5479 238.976 92.2158C239.376 91.8887 239.577 91.4443 239.577 90.8828V89.645H239.547C239.298 90.0747 238.952 90.4092 238.507 90.6484C238.063 90.8828 237.565 91 237.013 91C236.012 91 235.204 90.6362 234.589 89.9087C233.979 89.1763 233.673 88.2144 233.673 87.0229C233.673 85.8169 233.981 84.8501 234.596 84.1226C235.211 83.395 236.027 83.0312 237.042 83.0312C237.599 83.0312 238.1 83.1484 238.544 83.3828C238.993 83.6172 239.35 83.9517 239.613 84.3862H239.635V83.1045H240.851V90.7803C240.851 91.7227 240.531 92.4648 239.892 93.0068C239.257 93.5488 238.385 93.8198 237.277 93.8198ZM252.702 85.6753H251.449C251.366 85.231 251.146 84.8696 250.79 84.5913C250.434 84.3081 249.97 84.1665 249.398 84.1665C248.705 84.1665 248.146 84.4302 247.721 84.9575C247.296 85.4849 247.084 86.1831 247.084 87.0522C247.084 87.9409 247.296 88.644 247.721 89.1616C248.151 89.6792 248.715 89.938 249.413 89.938C249.965 89.938 250.417 89.8135 250.768 89.5645C251.125 89.3105 251.356 88.9468 251.464 88.4731H252.716C252.609 89.2495 252.252 89.877 251.647 90.3555C251.046 90.834 250.299 91.0732 249.406 91.0732C248.312 91.0732 247.436 90.7119 246.776 89.9893C246.117 89.2617 245.788 88.2827 245.788 87.0522C245.788 85.8413 246.117 84.8696 246.776 84.1372C247.436 83.3999 248.307 83.0312 249.391 83.0312C250.324 83.0312 251.088 83.29 251.684 83.8076C252.279 84.3203 252.619 84.9429 252.702 85.6753ZM256.518 89.9673C257.162 89.9673 257.694 89.7817 258.114 89.4106C258.539 89.0347 258.751 88.5635 258.751 87.9971V87.3599L256.686 87.4917C255.485 87.5649 254.884 87.9873 254.884 88.7588C254.884 89.125 255.031 89.418 255.324 89.6377C255.622 89.8574 256.02 89.9673 256.518 89.9673ZM256.247 91.0732C255.446 91.0732 254.801 90.8608 254.313 90.436C253.825 90.0112 253.581 89.4497 253.581 88.7515C253.581 88.0728 253.834 87.5405 254.342 87.1548C254.85 86.7642 255.583 86.5396 256.54 86.481L258.751 86.3491V85.6899C258.751 85.2017 258.595 84.8257 258.283 84.562C257.97 84.2983 257.523 84.1665 256.942 84.1665C256.483 84.1665 256.095 84.2764 255.778 84.4961C255.465 84.7158 255.27 85.0112 255.192 85.3823H253.969C253.988 84.7183 254.284 84.1616 254.855 83.7124C255.426 83.2583 256.127 83.0312 256.957 83.0312C257.89 83.0312 258.634 83.2632 259.191 83.7271C259.748 84.186 260.026 84.8037 260.026 85.5801V91H258.817V89.6304H258.788C258.563 90.0698 258.222 90.4214 257.763 90.6851C257.304 90.9438 256.798 91.0732 256.247 91.0732ZM257.55 79.9624L259.462 81.8447H258.283L256.95 80.5264H256.906L255.573 81.8447H254.394L256.305 79.9624H257.55ZM258.173 79.6475L259.462 77.4575H260.692L259.125 79.6475H258.173ZM265.512 83.0312C266.522 83.0312 267.338 83.4023 267.958 84.1445C268.583 84.8818 268.896 85.8511 268.896 87.0522C268.896 88.2534 268.585 89.2251 267.965 89.9673C267.345 90.7046 266.537 91.0732 265.541 91.0732C264.984 91.0732 264.486 90.9561 264.047 90.7217C263.612 90.4873 263.271 90.1528 263.021 89.7183H262.992V93.6367H261.718V83.1045H262.926V84.3862H262.956C263.185 83.9761 263.532 83.6489 263.996 83.4048C264.459 83.1558 264.965 83.0312 265.512 83.0312ZM265.277 89.938C265.976 89.938 266.535 89.6768 266.955 89.1543C267.379 88.627 267.592 87.9263 267.592 87.0522C267.592 86.1831 267.379 85.4849 266.955 84.9575C266.535 84.4302 265.976 84.1665 265.277 84.1665C264.599 84.1665 264.047 84.4326 263.622 84.9648C263.197 85.4971 262.985 86.1929 262.985 87.0522C262.985 87.9116 263.195 88.6074 263.615 89.1396C264.04 89.6719 264.594 89.938 265.277 89.938Z" fill="#0A2851"/>
<g clip-path="url(#clip0_937_54892)">
<path fill-rule="evenodd" clip-rule="evenodd" d="M25.6107 30.8791C26.127 29.9878 26.1303 28.9254 25.6172 28.0374L20.4666 19.1175C19.9568 18.2196 19.0359 17.6868 18.0031 17.6868C16.9703 17.6868 16.0494 18.2229 15.5396 19.1142L10.3824 28.044C9.86928 28.9419 9.87257 30.0108 10.3922 30.9022C10.9053 31.7836 11.823 32.3132 12.8492 32.3132H23.1373C24.1668 32.3132 25.091 31.777 25.6107 30.8791ZM17.9998 27.965C17.5525 27.965 17.1776 28.34 17.1776 28.7873C17.1776 29.2346 17.5525 29.6096 17.9998 29.6096C18.4307 29.6096 18.8221 29.2346 18.8023 28.807C18.8221 28.3367 18.4504 27.965 17.9998 27.965ZM17.1611 23.0907C17.1611 22.6598 17.4045 22.3046 17.7959 22.1928C18.1873 22.1007 18.5787 22.2882 18.7464 22.6565C18.8023 22.7881 18.822 22.9196 18.822 23.0677C18.8122 23.2732 18.7982 23.4788 18.7842 23.6844C18.7702 23.8899 18.7563 24.0955 18.7464 24.301C18.7283 24.6184 18.7094 24.9358 18.6905 25.2532C18.6716 25.5706 18.6527 25.888 18.6346 26.2054C18.6148 26.4126 18.6148 26.6001 18.6148 26.804C18.5984 27.1428 18.3353 27.4026 17.9998 27.4026C17.6643 27.4026 17.4045 27.1592 17.3847 26.8237C17.3568 26.3289 17.3288 25.8389 17.3009 25.3489C17.2729 24.8588 17.2449 24.3686 17.217 23.8735C17.2071 23.7436 17.1981 23.6128 17.189 23.4821C17.18 23.3513 17.1709 23.2206 17.1611 23.0907Z" fill="#F7484A"/>
</g>
<defs>
<clipPath id="clip0_937_54892">
<rect width="16" height="16" fill="white" transform="translate(10 17)"/>
</clipPath>
</defs>
</svg>
