<svg width="156" height="156" viewBox="0 0 156 156" fill="none" xmlns="http://www.w3.org/2000/svg">
<circle cx="78" cy="78" r="42" fill="#0A73F0"/>
<path d="M64.1523 77.3411L75.2192 87.1529L94.6978 68.8264" stroke="white" stroke-width="6" stroke-linecap="round" stroke-linejoin="round"/>
<path fill-rule="evenodd" clip-rule="evenodd" d="M78 6C79.6569 6 81 4.65685 81 3C81 1.34315 79.6569 0 78 0C76.3431 0 75 1.34315 75 3C75 4.65685 76.3431 6 78 6ZM78 156C79.6569 156 81 154.657 81 153C81 151.343 79.6569 150 78 150C76.3431 150 75 151.343 75 153C75 154.657 76.3431 156 78 156Z" fill="#0A73F0"/>
<path fill-rule="evenodd" clip-rule="evenodd" d="M114 140.355C112.565 141.183 112.073 143.018 112.902 144.453C113.73 145.888 115.565 146.379 117 145.551C118.434 144.722 118.926 142.888 118.098 141.453C117.269 140.018 115.434 139.526 114 140.355ZM38.9996 10.4508C37.5647 11.2792 37.0731 13.114 37.9015 14.5489C38.7299 15.9838 40.5647 16.4754 41.9996 15.647C43.4344 14.8185 43.9261 12.9838 43.0976 11.5489C42.2692 10.114 40.4344 9.62239 38.9996 10.4508Z" fill="#0A73F0"/>
<path fill-rule="evenodd" clip-rule="evenodd" d="M140.355 114C139.526 115.435 140.018 117.27 141.453 118.098C142.888 118.927 144.722 118.435 145.551 117C146.379 115.566 145.888 113.731 144.453 112.902C143.018 112.074 141.183 112.566 140.355 114ZM10.4508 39.0004C9.62239 40.4353 10.114 42.2701 11.5489 43.0985C12.9838 43.9269 14.8185 43.4353 15.647 42.0004C16.4754 40.5655 15.9838 38.7308 14.5489 37.9023C13.114 37.0739 11.2792 37.5655 10.4508 39.0004Z" fill="#0A73F0"/>
<path fill-rule="evenodd" clip-rule="evenodd" d="M150 78C150 79.6569 151.343 81 153 81C154.657 81 156 79.6569 156 78C156 76.3431 154.657 75 153 75C151.343 75 150 76.3431 150 78ZM-1.31134e-07 78C-2.03558e-07 79.6568 1.34314 81 3 81C4.65686 81 6 79.6568 6 78C6 76.3431 4.65686 75 3 75C1.34314 75 -5.87108e-08 76.3431 -1.31134e-07 78Z" fill="#0A73F0"/>
<path fill-rule="evenodd" clip-rule="evenodd" d="M140.355 42.0004C141.183 43.4353 143.018 43.9269 144.453 43.0985C145.888 42.2701 146.379 40.4353 145.551 39.0004C144.722 37.5655 142.888 37.0739 141.453 37.9023C140.018 38.7308 139.526 40.5655 140.355 42.0004ZM10.4508 117C11.2792 118.435 13.114 118.927 14.5489 118.098C15.9838 117.27 16.4754 115.435 15.647 114C14.8185 112.566 12.9838 112.074 11.5489 112.902C10.114 113.731 9.62238 115.566 10.4508 117Z" fill="#0A73F0"/>
<path fill-rule="evenodd" clip-rule="evenodd" d="M114 15.6454C115.435 16.4738 117.27 15.9822 118.098 14.5473C118.927 13.1124 118.435 11.2776 117 10.4492C115.566 9.62079 113.731 10.1124 112.902 11.5473C112.074 12.9822 112.566 14.8169 114 15.6454ZM39.0004 145.549C40.4353 146.378 42.2701 145.886 43.0985 144.451C43.9269 143.016 43.4353 141.181 42.0004 140.353C40.5655 139.525 38.7308 140.016 37.9023 141.451C37.0739 142.886 37.5655 144.721 39.0004 145.549Z" fill="#0A73F0"/>
</svg>
