<svg width="132" height="143" viewBox="0 0 132 143" fill="none" xmlns="http://www.w3.org/2000/svg">
<g id="illustration_cancel">
<g id="Path 45 + Rectangle + Rectangle + Path 50 + Path 50 Copy + Oval + Rectangle + Rectangle + Rectangle + Rectangle Copy 20 + Path 51 + Rectangle + Path 52 + Path 53 + Path 53 Copy 2 Mask">
<circle id="Mask" cx="65.9989" cy="76.9987" r="65.9989" fill="#F2F8FF"/>
<mask id="mask0_4508_114794" style="mask-type:alpha" maskUnits="userSpaceOnUse" x="0" y="10" width="132" height="133">
<circle id="Mask_2" cx="65.9989" cy="76.9987" r="65.9989" fill="white"/>
</mask>
<g mask="url(#mask0_4508_114794)">
<path id="Path 45" fill-rule="evenodd" clip-rule="evenodd" d="M61.7983 112.763C61.7983 112.763 55.3301 113.961 47.6146 120.065C39.8991 126.169 31.0186 135.413 31.0186 135.413L49.8652 147.397H82.1314L99.7311 135.413C99.7311 135.413 75.8624 114.255 72.0602 113.396C70.5978 113.065 67.5335 117.013 65.9983 117.025C64.6717 117.034 61.7983 112.763 61.7983 112.763Z" fill="#0A2851"/>
<path id="Rectangle" d="M49.8672 128.331C49.8672 119.421 57.0902 112.198 66.0003 112.198C74.9103 112.198 82.1333 119.421 82.1333 128.331V147.397H49.8672V128.331Z" fill="#0A73F0"/>
<rect id="Rectangle_2" x="49.8672" y="126.864" width="32.2662" height="7.33322" fill="white"/>
<path id="Path 50" fill-rule="evenodd" clip-rule="evenodd" d="M31.9375 134.187C31.9375 134.187 33.2506 131.516 38.899 131.516C44.5474 131.516 51.3376 135.1 54.4901 137.869C57.6426 140.638 59.8136 144.321 59.8136 144.321H31.9375V134.187Z" fill="#FFD0C6"/>
<path id="Path 50 Copy" fill-rule="evenodd" clip-rule="evenodd" d="M99.7417 134.187C99.7417 134.187 98.4286 131.516 92.7802 131.516C87.1318 131.516 80.3416 135.1 77.1891 137.869C74.0366 140.638 71.8656 144.321 71.8656 144.321H99.7417V134.187Z" fill="#FFD0C6"/>
<ellipse id="Oval" cx="65.9986" cy="60.8663" rx="32.2662" ry="32.2662" fill="#0A2851"/>
<path id="Rectangle_3" d="M61.5991 107.798H70.399V113.665C70.399 116.095 68.4291 118.065 65.9991 118.065C63.569 118.065 61.5991 116.095 61.5991 113.665V107.798Z" fill="#FFBAB6"/>
<path id="Rectangle_4" fill-rule="evenodd" clip-rule="evenodd" d="M39.5991 50.5999H93.8649V82.1327C93.8649 97.1178 81.7171 109.266 66.732 109.266C51.7469 109.266 39.5991 97.1178 39.5991 82.1327V50.5999Z" fill="#FFD0C6"/>
<path id="Rectangle_5" d="M33.7324 77.7321C33.7324 74.8971 36.0307 72.5989 38.8657 72.5989H39.599V82.8654H38.8657C36.0307 82.8654 33.7324 80.5671 33.7324 77.7321Z" fill="#FFBAB6"/>
<path id="Rectangle Copy 20" d="M99.73 77.7321C99.73 74.8971 97.4317 72.5989 94.5967 72.5989H93.8634V82.8654H94.5967C97.4317 82.8654 99.73 80.5671 99.73 77.7321Z" fill="#FFBAB6"/>
<path id="Path 51" fill-rule="evenodd" clip-rule="evenodd" d="M39.5998 72.599C49.8663 75.0606 63.8743 60.0595 63.8743 60.0595C63.8743 60.0595 58.0629 68.1991 60.5661 72.599C63.0692 76.9989 72.2246 72.0044 75.2524 69.6657C78.2803 67.327 83.7226 62.4512 83.7226 62.4512C83.7226 62.4512 80.5423 70.8378 82.1324 73.4333C83.7226 76.0289 93.8656 64.9202 93.8656 64.9202C93.8656 64.9202 95.706 61.5425 95.706 58.9659C95.706 56.3893 93.8656 47.5928 93.8656 47.5928H39.5998C39.5998 47.5928 36.6665 55.0753 36.6665 57.7236C36.6665 62.4085 39.5998 72.599 39.5998 72.599Z" fill="#0A2851"/>
<rect id="Rectangle_6" x="63.0674" y="82.8647" width="5.86657" height="8.79986" rx="2.93329" fill="#F99192"/>
<path id="Path 52" d="M61.5991 98.9988C61.5991 98.9988 63.0658 100.974 65.9991 100.974C68.9323 100.974 70.399 98.9988 70.399 98.9988" stroke="#0A2851" stroke-width="1.46664" stroke-linecap="round"/>
<path id="Path 53" d="M55.6616 81.6279C55.6616 81.6279 54.6158 82.4058 53.3469 82.8658C52.0779 83.3259 50.7822 83.3971 50.7822 83.3971" stroke="#0A2851" stroke-width="1.46664" stroke-linecap="round"/>
<path id="Path 53 Copy 2" d="M76.2666 81.6279C76.2666 81.6279 77.3124 82.4058 78.5814 82.8658C79.8503 83.3259 81.146 83.3971 81.146 83.3971" stroke="#0A2851" stroke-width="1.46664" stroke-linecap="round"/>
</g>
</g>
<g id="Group 29">
<path id="Rectangle_7" fill-rule="evenodd" clip-rule="evenodd" d="M75.897 16.1331C75.897 7.22303 83.12 0 92.03 0H105.23C114.14 0 121.363 7.22303 121.363 16.1331V17.6493C121.363 25.722 114.819 32.2662 106.746 32.2662L100.806 36.4965V32.2662H92.03C83.12 32.2662 75.897 25.0431 75.897 16.1331Z" fill="#FF5561"/>
<path id="Path" d="M103.497 8.79956C101.521 8.79956 100.006 9.74978 98.997 11.1638C97.9878 9.74952 96.4724 8.79956 94.4971 8.79956C92.9664 8.79956 91.5698 9.35231 90.5647 10.356C89.6184 11.3009 89.0972 12.5629 89.0972 13.9095C89.0972 15.3736 89.739 16.7272 91.1171 18.1693C92.3254 19.4338 94.0599 20.7345 96.0685 22.2407C96.811 22.7975 97.5789 23.3733 98.3949 24.0017C98.5661 24.1335 98.7816 24.1993 98.997 24.1993C99.2125 24.1993 99.4279 24.1335 99.5991 24.0016C100.415 23.3733 101.183 22.7975 101.926 22.2406C103.934 20.7345 105.669 19.4337 106.877 18.1693C108.255 16.7273 108.897 15.3736 108.897 13.9095C108.897 11.1561 106.692 8.79956 103.497 8.79956Z" fill="white"/>
</g>
</g>
</svg>
