<svg width="120" height="130" viewBox="0 0 120 130" fill="none" xmlns="http://www.w3.org/2000/svg">
<circle cx="60" cy="70" r="60" fill="#F2F8FF"/>
<mask id="mask0_1312_14622" style="mask-type:alpha" maskUnits="userSpaceOnUse" x="0" y="10" width="120" height="120">
<circle cx="60" cy="70" r="60" fill="white"/>
</mask>
<g mask="url(#mask0_1312_14622)">
<path fill-rule="evenodd" clip-rule="evenodd" d="M56.1817 102.514C56.1817 102.514 50.3015 103.603 43.2873 109.152C36.273 114.701 28.1997 123.105 28.1997 123.105L45.3333 134H74.6666L90.6666 123.105C90.6666 123.105 68.9674 103.871 65.5109 103.089C64.1814 102.789 61.3956 106.378 60 106.388C58.794 106.397 56.1817 102.514 56.1817 102.514Z" fill="#0A2851"/>
<path d="M45.3334 116.667C45.3334 108.566 51.8999 102 60 102C68.1002 102 74.6667 108.566 74.6667 116.667V134H45.3334V116.667Z" fill="#0A73F0"/>
<rect x="45.3334" y="115.333" width="29.3333" height="6.66667" fill="white"/>
<path fill-rule="evenodd" clip-rule="evenodd" d="M29.0356 121.991C29.0356 121.991 30.2294 119.563 35.3644 119.563C40.4994 119.563 46.6724 122.821 49.5383 125.338C52.4043 127.855 54.378 131.203 54.378 131.203H29.0356V121.991Z" fill="#FFD0C6"/>
<path fill-rule="evenodd" clip-rule="evenodd" d="M90.6757 121.991C90.6757 121.991 89.4819 119.563 84.3469 119.563C79.2119 119.563 73.0389 122.821 70.173 125.338C67.307 127.855 65.3333 131.203 65.3333 131.203H90.6757V121.991Z" fill="#FFD0C6"/>
<circle cx="60" cy="55.3333" r="29.3333" fill="#0A2851"/>
<path d="M56 98H64V103.333C64 105.542 62.2091 107.333 60 107.333C57.7909 107.333 56 105.542 56 103.333V98Z" fill="#FFBAB6"/>
<path fill-rule="evenodd" clip-rule="evenodd" d="M36 46H85.3333V74.6667C85.3333 88.2897 74.2897 99.3333 60.6667 99.3333C47.0436 99.3333 36 88.2897 36 74.6667V46Z" fill="#FFD0C6"/>
<path d="M30.6666 70.6667C30.6666 68.0893 32.756 66 35.3333 66H36V75.3333H35.3333C32.756 75.3333 30.6666 73.244 30.6666 70.6667Z" fill="#FFBAB6"/>
<path d="M90.6666 70.6667C90.6666 68.0893 88.5773 66 86 66H85.3333V75.3333H86C88.5773 75.3333 90.6666 73.244 90.6666 70.6667Z" fill="#FFBAB6"/>
<path fill-rule="evenodd" clip-rule="evenodd" d="M36 66C45.3334 68.2379 58.0681 54.6003 58.0681 54.6003C58.0681 54.6003 52.785 62 55.0606 66C57.3362 70 65.6594 65.4595 68.4121 63.3333C71.1647 61.2072 76.1123 56.7746 76.1123 56.7746C76.1123 56.7746 73.2211 64.3989 74.6667 66.7585C76.1123 69.1181 85.3334 59.0191 85.3334 59.0191C85.3334 59.0191 87.0065 55.9485 87.0065 53.6061C87.0065 51.2637 85.3334 43.2667 85.3334 43.2667H36C36 43.2667 33.3334 50.0691 33.3334 52.4767C33.3334 56.7358 36 66 36 66Z" fill="#0A2851"/>
<rect x="57.3334" y="75.3333" width="5.33333" height="8" rx="2.66667" fill="#F99192"/>
<path d="M56 90C56 90 57.3333 91.7954 60 91.7954C62.6667 91.7954 64 90 64 90" stroke="#0A2851" stroke-width="1.33333" stroke-linecap="round"/>
<path d="M50.6016 74.2079C50.6016 74.2079 49.6509 74.9151 48.4973 75.3333C47.3437 75.7516 46.1658 75.8163 46.1658 75.8163" stroke="#0A2851" stroke-width="1.33333" stroke-linecap="round"/>
<path d="M69.3333 74.2079C69.3333 74.2079 70.2841 74.9151 71.4376 75.3333C72.5912 75.7516 73.7692 75.8163 73.7692 75.8163" stroke="#0A2851" stroke-width="1.33333" stroke-linecap="round"/>
</g>
<path fill-rule="evenodd" clip-rule="evenodd" d="M71 14.6667C71 6.56649 77.5665 0 85.6667 0H97.6667C105.767 0 112.333 6.56649 112.333 14.6667V16.045C112.333 23.3839 106.384 29.3333 99.045 29.3333L93.6452 33.1792V29.3333H85.6667C77.5665 29.3333 71 22.7668 71 14.6667Z" fill="#FF5561"/>
<path d="M96.0909 8C94.2948 8 92.9173 8.86385 92 10.1494C91.0825 8.86361 89.7049 8 87.9091 8C86.5176 8 85.2479 8.50251 84.3341 9.41493C83.4738 10.274 83 11.4213 83 12.6454C83 13.9765 83.5835 15.2071 84.8363 16.5181C85.9348 17.6676 87.5117 18.8501 89.3376 20.2194C90.0127 20.7256 90.7108 21.2491 91.4526 21.8203C91.6083 21.9401 91.8041 22 92 22C92.1959 22 92.3917 21.9401 92.5474 21.8203C93.2892 21.249 93.9873 20.7256 94.6624 20.2193C96.4883 18.8501 98.0652 17.6676 99.1637 16.5181C100.416 15.2071 101 13.9765 101 12.6454C101 10.1424 98.9956 8 96.0909 8Z" fill="white"/>
</svg>
