<svg width="125" height="125" viewBox="0 0 125 125" fill="none" xmlns="http://www.w3.org/2000/svg">
<circle cx="62.502" cy="62.4998" r="33.6534" fill="#0A73F0"/>
<path d="M51.4053 61.9717L60.2728 69.8337L75.8804 55.1492" stroke="white" stroke-width="6" stroke-linecap="round" stroke-linejoin="round"/>
<path fill-rule="evenodd" clip-rule="evenodd" d="M62.5015 4.8086C63.8291 4.8086 64.9053 3.73238 64.9053 2.40479C64.9053 1.0772 63.8291 0.000976562 62.5015 0.000976562C61.1739 0.000976562 60.0977 1.0772 60.0977 2.40479C60.0977 3.73238 61.1739 4.8086 62.5015 4.8086ZM62.5015 124.999C63.8291 124.999 64.9053 123.923 64.9053 122.595C64.9053 121.268 63.8291 120.191 62.5015 120.191C61.1739 120.191 60.0977 121.268 60.0977 122.595C60.0977 123.923 61.1739 124.999 62.5015 124.999Z" fill="#0A73F0"/>
<path fill-rule="evenodd" clip-rule="evenodd" d="M91.3463 112.463C90.1966 113.127 89.8026 114.597 90.4664 115.746C91.1302 116.896 92.6004 117.29 93.7501 116.626C94.8998 115.963 95.2937 114.492 94.63 113.343C93.9662 112.193 92.496 111.799 91.3463 112.463ZM31.2513 8.37483C30.1016 9.03862 29.7076 10.5088 30.3714 11.6585C31.0352 12.8082 32.5054 13.2021 33.6551 12.5384C34.8048 11.8746 35.1987 10.4044 34.535 9.25469C33.8712 8.10496 32.401 7.71103 31.2513 8.37483Z" fill="#0A73F0"/>
<path fill-rule="evenodd" clip-rule="evenodd" d="M112.464 91.3458C111.8 92.4956 112.194 93.9657 113.343 94.6295C114.493 95.2933 115.963 94.8994 116.627 93.7497C117.291 92.5999 116.897 91.1298 115.747 90.466C114.598 89.8022 113.127 90.1961 112.464 91.3458ZM8.3758 31.2505C7.71201 32.4002 8.10593 33.8704 9.25566 34.5342C10.4054 35.198 11.8755 34.804 12.5393 33.6543C13.2031 32.5046 12.8092 31.0344 11.6595 30.3707C10.5097 29.7069 9.03959 30.1008 8.3758 31.2505Z" fill="#0A73F0"/>
<path fill-rule="evenodd" clip-rule="evenodd" d="M120.192 62.4998C120.192 63.8273 121.269 64.9036 122.596 64.9036C123.924 64.9036 125 63.8273 125 62.4998C125 61.1722 123.924 60.0959 122.596 60.0959C121.269 60.0959 120.192 61.1722 120.192 62.4998ZM0.000915422 62.4998C0.000915364 63.8273 1.07714 64.9036 2.40473 64.9036C3.73231 64.9036 4.80854 63.8273 4.80854 62.4998C4.80854 61.1722 3.73232 60.0959 2.40473 60.0959C1.07714 60.0959 0.00091548 61.1722 0.000915422 62.4998Z" fill="#0A73F0"/>
<path fill-rule="evenodd" clip-rule="evenodd" d="M112.464 33.6545C113.128 34.8042 114.598 35.1982 115.748 34.5344C116.898 33.8706 117.291 32.4004 116.628 31.2507C115.964 30.101 114.494 29.7071 113.344 30.3709C112.194 31.0346 111.8 32.5048 112.464 33.6545ZM8.3763 93.7498C9.04009 94.8995 10.5102 95.2935 11.66 94.6297C12.8097 93.9659 13.2036 92.4957 12.5398 91.346C11.876 90.1963 10.4059 89.8023 9.25616 90.4661C8.10643 91.1299 7.7125 92.6001 8.3763 93.7498Z" fill="#0A73F0"/>
<path fill-rule="evenodd" clip-rule="evenodd" d="M91.3469 12.5373C92.4966 13.2011 93.9668 12.8072 94.6306 11.6574C95.2944 10.5077 94.9004 9.03758 93.7507 8.37378C92.601 7.70999 91.1308 8.10391 90.467 9.25364C89.8032 10.4034 90.1972 11.8735 91.3469 12.5373ZM31.2519 116.626C32.4017 117.289 33.8718 116.896 34.5356 115.746C35.1994 114.596 34.8055 113.126 33.6558 112.462C32.506 111.798 31.0359 112.192 30.3721 113.342C29.7083 114.492 30.1022 115.962 31.2519 116.626Z" fill="#0A73F0"/>
</svg>
