<svg width="16" height="16" viewBox="0 0 16 16" fill="none" xmlns="http://www.w3.org/2000/svg">
<ellipse opacity="0.8" cx="8" cy="7.82144" rx="8" ry="7.82144" fill="#8493A8"/>
<path fill-rule="evenodd" clip-rule="evenodd" d="M8.46895 9.06099V9.34226H7.18209L7.17238 9.03446C7.14 8.62405 7.19261 8.28617 7.3302 8.02082C7.46779 7.75547 7.70654 7.51312 8.04647 7.29376C8.36049 7.08856 8.57497 6.90458 8.6899 6.74183C8.80483 6.57909 8.86229 6.37211 8.86229 6.12092C8.86229 5.86618 8.77731 5.65744 8.60735 5.49469C8.43738 5.33194 8.21481 5.25057 7.93963 5.25057C7.66122 5.25057 7.43622 5.3399 7.26464 5.51857C7.09306 5.69724 6.99918 5.93694 6.98299 6.23767H5.66699C5.67994 5.56899 5.89361 5.0321 6.30799 4.627C6.72238 4.2219 7.2954 4.01935 8.02704 4.01935C8.71661 4.01935 9.27344 4.20952 9.69753 4.58985C10.1216 4.97018 10.3337 5.46462 10.3337 6.07315C10.3337 6.46587 10.2479 6.80817 10.0763 7.10006C9.90473 7.39194 9.64412 7.64933 9.29448 7.87222C8.97074 8.07743 8.75222 8.2614 8.63891 8.42415C8.5256 8.5869 8.46895 8.79918 8.46895 9.06099ZM8.54974 11.4057C8.39752 11.551 8.21358 11.6236 7.99793 11.6236C7.78228 11.6236 7.59913 11.5502 7.44849 11.4032C7.29785 11.2563 7.22253 11.0763 7.22253 10.8632C7.22253 10.6501 7.29785 10.4701 7.44849 10.3231C7.59913 10.1762 7.78228 10.1028 7.99793 10.1028C8.21358 10.1028 8.39752 10.1762 8.54974 10.3231C8.70196 10.4701 8.77808 10.6501 8.77808 10.8632C8.77808 11.0763 8.70196 11.2571 8.54974 11.4057Z" fill="white"/>
</svg>
